<svg width="44" height="44" viewBox="0 0 44 44" fill="none" xmlns="http://www.w3.org/2000/svg">
<g clip-path="url(#clip0)">
<path d="M29.0221 1.04584L28.0137 5.64007L27.5654 5.52801L28.3498 1.86757L25.8846 4.55688L25.6605 4.51953L24.54 1.04584L23.7556 4.70628L23.3074 4.59423L24.2412 0L24.652 0.0747029L25.8846 3.9219L28.6113 0.933786L29.0221 1.04584Z" fill="black"/>
<path d="M32.2342 7.47028L32.0101 7.8438L29.134 6.20033L31.4498 2.09167L34.2512 3.69779L34.0271 4.0713L31.6366 2.72665L30.8148 4.18336L32.9439 5.3786L32.7198 5.75212L30.6281 4.55687L29.769 6.08828L32.2342 7.47028Z" fill="black"/>
<path d="M38.8456 7.80649L35.5213 11.1308L35.2225 10.832L35.7828 5.97626L33.0935 8.66557L32.7573 8.32941L36.0816 5.00513L36.3804 5.30394L35.8201 10.1596L38.4721 7.47032L38.8456 7.80649Z" fill="black"/>
<path d="M37.9865 11.1681L40.377 9.89813L40.6011 10.3463L38.248 11.6163C37.2768 12.1392 37.0527 12.8489 37.5009 13.6706C37.9492 14.4924 38.6215 14.7165 39.63 14.1935L41.9831 12.9236L42.2072 13.3345L39.8167 14.6044C38.6215 15.2394 37.6503 14.9406 37.0901 13.8574C36.5298 12.7742 36.7913 11.8031 37.9865 11.1681Z" fill="black"/>
<path d="M43.4397 26.9304L38.7708 26.3701L38.8081 25.8845L42.5432 26.3327L39.6298 24.129L39.6672 23.9049L42.9915 22.4482L39.2563 22L39.2937 21.5144L43.9626 22.0747L43.9252 22.4855L40.2275 24.0917L43.4397 26.5195V26.9304Z" fill="black"/>
<path d="M37.3513 30.7402L36.9404 30.5535L38.2851 27.528L42.5805 29.4329L41.2732 32.3837L40.8623 32.1969L41.9829 29.6944L40.4515 29.0221L39.4803 31.2632L39.1068 31.0764L40.078 28.8353L38.4718 28.1256L37.3513 30.7402Z" fill="black"/>
<path d="M37.6502 37.3515L33.9897 34.3634L34.2512 34.0645L39.1069 34.1392L36.1561 31.7114L36.4549 31.3379L40.078 34.326L39.8166 34.6248L34.9235 34.5501L37.8743 36.978L37.6502 37.3515Z" fill="black"/>
<path d="M34.214 36.8285L35.7081 39.0696L35.2972 39.3311L33.8031 37.09C33.1682 36.1562 32.4585 36.0441 31.7115 36.5297C30.9644 37.0526 30.7777 37.7623 31.4127 38.6961L32.9067 40.9372L32.4958 41.1986L31.0018 38.9575C30.2548 37.837 30.4789 36.8659 31.45 36.1935C32.4958 35.5586 33.467 35.708 34.214 36.8285Z" fill="black"/>
<path d="M14.978 42.8421L15.9492 38.2479L16.4347 38.3599L15.6504 42.0577L18.1155 39.3311L18.3397 39.3684L19.4976 42.8421L20.2819 39.1816L20.7675 39.2937L19.7964 43.8879L19.3855 43.8132L18.0782 39.966L15.3889 42.9541L14.978 42.8421Z" fill="black"/>
<path d="M11.7284 36.4176L11.9525 36.0441L14.8659 37.6876L12.5501 41.7963L9.74878 40.2275L9.97289 39.854L12.3634 41.1986L13.1851 39.7419L11.0561 38.5467L11.2802 38.1732L13.4092 39.3684L14.2683 37.837L11.7284 36.4176Z" fill="black"/>
<path d="M5.11719 36.1188L8.44147 32.7572L8.74028 33.056L8.21736 37.9117L10.9067 35.185L11.2428 35.5212L7.91855 38.8828L7.61973 38.584L8.14265 33.7283L5.45335 36.455L5.11719 36.1188Z" fill="black"/>
<path d="M5.93898 32.7572L3.58584 34.0272L3.36173 33.6163L5.71487 32.3464C6.68601 31.8234 6.91011 31.1138 6.4619 30.292C6.01368 29.4703 5.34135 29.2462 4.33286 29.8065L1.97972 31.0764L1.75562 30.6656L4.10876 29.3956C5.304 28.7606 6.27514 29.0594 6.83541 30.1053C7.39568 31.1511 7.13422 32.1223 5.93898 32.7572Z" fill="black"/>
<path d="M1.00849 14.9779L5.60272 15.949L5.52801 16.4346L1.83022 15.6502L4.55688 18.1154L4.48217 18.3395L1.00849 19.4974L4.66893 20.2818L4.55688 20.7674L0 19.7589L0.0747029 19.348L3.9219 18.0781L0.933786 15.3888L1.00849 14.9779Z" fill="black"/>
<path d="M7.43305 11.7283L7.80657 11.9525L6.20046 14.8659L2.0918 12.5874L3.66056 9.74872L4.03407 9.97283L2.68942 12.3633L4.14613 13.1851L5.34137 11.056L5.71489 11.2801L4.51964 13.4092L6.05105 14.2682L7.43305 11.7283Z" fill="black"/>
<path d="M7.73178 5.11713L11.0934 8.44141L10.7946 8.74022L5.93891 8.2173L8.66557 10.9066L8.3294 11.2428L4.96777 7.91848L5.26659 7.61967L10.1223 8.14259L7.39562 5.45329L7.73178 5.11713Z" fill="black"/>
<path d="M11.0561 5.97621L9.74878 3.62307L10.2343 3.36161L11.5043 5.71475C12.0272 6.68588 12.7369 6.90999 13.5586 6.46177C14.3804 6.01356 14.5671 5.30388 14.0442 4.33274L12.7742 1.9796L13.1851 1.75549L14.4924 4.10863C15.1274 5.30388 14.8286 6.27502 13.7827 6.83529C12.6995 7.43291 11.7284 7.1341 11.0561 5.97621Z" fill="black"/>
<path d="M19.236 2.9881C19.8136 2.9881 20.2819 2.51987 20.2819 1.94226C20.2819 1.36466 19.8136 0.896423 19.236 0.896423C18.6584 0.896423 18.1902 1.36466 18.1902 1.94226C18.1902 2.51987 18.6584 2.9881 19.236 2.9881Z" fill="black"/>
<path d="M25.9218 42.3565C26.4994 42.3565 26.9677 41.8883 26.9677 41.3107C26.9677 40.7331 26.4994 40.2648 25.9218 40.2648C25.3442 40.2648 24.876 40.7331 24.876 41.3107C24.876 41.8883 25.3442 42.3565 25.9218 42.3565Z" fill="black"/>
<path d="M2.46503 26.5195C3.04263 26.5195 3.51087 26.0513 3.51087 25.4737C3.51087 24.8961 3.04263 24.4279 2.46503 24.4279C1.88743 24.4279 1.41919 24.8961 1.41919 25.4737C1.41919 26.0513 1.88743 26.5195 2.46503 26.5195Z" fill="black"/>
<path d="M41.7963 18.9746C42.3739 18.9746 42.8422 18.5063 42.8422 17.9287C42.8422 17.3511 42.3739 16.8829 41.7963 16.8829C41.2187 16.8829 40.7505 17.3511 40.7505 17.9287C40.7505 18.5063 41.2187 18.9746 41.7963 18.9746Z" fill="black"/>
<path fill-rule="evenodd" clip-rule="evenodd" d="M31.4062 31L13.5938 13.7484L14.1875 13.1733L32 30.4249L31.4062 31Z" fill="black"/>
<path fill-rule="evenodd" clip-rule="evenodd" d="M31.4062 13.5751L13.5938 30.8267L13 30.2516L30.8125 13L31.4062 13.5751Z" fill="black"/>
</g>
<defs>
<clipPath id="clip0">
<rect width="44" height="43.8879" fill="white"/>
</clipPath>
</defs>
</svg>
