<svg width="44" height="44" viewBox="0 0 44 44" fill="none" xmlns="http://www.w3.org/2000/svg">
<g clip-path="url(#clip0)">
<path d="M29.022 1.04584L28.0135 5.64007L27.5653 5.52801L28.3497 1.86757L25.8845 4.55688L25.6604 4.51953L24.5398 1.04584L23.7555 4.70628L23.3073 4.59423L24.241 0L24.6519 0.0747029L25.8845 3.9219L28.6112 0.933786L29.022 1.04584Z" fill="black"/>
<path d="M32.2343 7.47028L32.0102 7.8438L29.1342 6.20033L31.4499 2.09167L34.2513 3.69779L34.0272 4.0713L31.6367 2.72665L30.815 4.18336L32.944 5.3786L32.7199 5.75212L30.6282 4.55687L29.7691 6.08828L32.2343 7.47028Z" fill="black"/>
<path d="M38.8456 7.80649L35.5213 11.1308L35.2225 10.832L35.7828 5.97626L33.0935 8.66557L32.7573 8.32941L36.0816 5.00513L36.3804 5.30394L35.8201 10.1596L38.4721 7.47032L38.8456 7.80649Z" fill="black"/>
<path d="M37.9864 11.1681L40.3769 9.89813L40.601 10.3463L38.2478 11.6163C37.2767 12.1392 37.0526 12.8489 37.5008 13.6706C37.949 14.4924 38.6214 14.7165 39.6298 14.1935L41.983 12.9236L42.2071 13.3345L39.8166 14.6044C38.6214 15.2394 37.6502 14.9406 37.09 13.8574C36.5297 12.7742 36.7911 11.8031 37.9864 11.1681Z" fill="black"/>
<path d="M43.4397 26.9304L38.7708 26.3701L38.8081 25.8845L42.5432 26.3327L39.6298 24.129L39.6672 23.9049L42.9915 22.4482L39.2563 22L39.2937 21.5144L43.9626 22.0747L43.9252 22.4855L40.2275 24.0917L43.4397 26.5195V26.9304Z" fill="black"/>
<path d="M37.3514 30.7402L36.9406 30.5535L38.2852 27.528L42.5806 29.4329L41.2733 32.3837L40.8625 32.1969L41.983 29.6944L40.4516 29.0221L39.4804 31.2632L39.1069 31.0764L40.0781 28.8353L38.472 28.1256L37.3514 30.7402Z" fill="black"/>
<path d="M37.6503 37.3515L33.9899 34.3634L34.2513 34.0645L39.107 34.1392L36.1563 31.7114L36.4551 31.3379L40.0782 34.326L39.8167 34.6248L34.9237 34.5501L37.8744 36.978L37.6503 37.3515Z" fill="black"/>
<path d="M34.2139 36.8285L35.708 39.0696L35.2971 39.3311L33.803 37.09C33.1681 36.1562 32.4584 36.0441 31.7113 36.5297C30.9643 37.0526 30.7776 37.7623 31.4125 38.6961L32.9066 40.9372L32.4957 41.1986L31.0017 38.9575C30.2546 37.837 30.4787 36.8659 31.4499 36.1935C32.4957 35.5586 33.4669 35.708 34.2139 36.8285Z" fill="black"/>
<path d="M14.9779 42.8421L15.949 38.2479L16.4346 38.3599L15.6502 42.0577L18.1154 39.3311L18.3395 39.3684L19.4974 42.8421L20.2818 39.1816L20.7674 39.2937L19.7962 43.8879L19.3854 43.8132L18.0781 39.966L15.3888 42.9541L14.9779 42.8421Z" fill="black"/>
<path d="M11.7284 36.4176L11.9525 36.0441L14.8659 37.6876L12.5501 41.7963L9.74878 40.2275L9.97289 39.854L12.3634 41.1986L13.1851 39.7419L11.0561 38.5467L11.2802 38.1732L13.4092 39.3684L14.2683 37.837L11.7284 36.4176Z" fill="black"/>
<path d="M5.11719 36.1188L8.44147 32.7572L8.74028 33.056L8.21736 37.9117L10.9067 35.185L11.2428 35.5212L7.91855 38.8828L7.61973 38.584L8.14265 33.7283L5.45335 36.455L5.11719 36.1188Z" fill="black"/>
<path d="M5.93898 32.7572L3.58584 34.0272L3.36173 33.6163L5.71487 32.3464C6.68601 31.8234 6.91011 31.1138 6.4619 30.292C6.01368 29.4703 5.34135 29.2462 4.33286 29.8065L1.97972 31.0764L1.75562 30.6656L4.10876 29.3956C5.304 28.7606 6.27514 29.0594 6.83541 30.1053C7.39568 31.1511 7.13422 32.1223 5.93898 32.7572Z" fill="black"/>
<path d="M1.00849 14.9779L5.60272 15.949L5.52801 16.4346L1.83022 15.6502L4.55688 18.1154L4.48217 18.3395L1.00849 19.4974L4.66893 20.2818L4.55688 20.7674L0 19.7589L0.0747029 19.348L3.9219 18.0781L0.933786 15.3888L1.00849 14.9779Z" fill="black"/>
<path d="M7.43293 11.7283L7.80645 11.9525L6.20033 14.8659L2.09167 12.5874L3.66044 9.74872L4.03395 9.97283L2.6893 12.3633L4.146 13.1851L5.34125 11.056L5.71476 11.2801L4.51952 13.4092L6.05093 14.2682L7.43293 11.7283Z" fill="black"/>
<path d="M7.73166 5.11713L11.0933 8.44141L10.7945 8.74022L5.93879 8.2173L8.66544 10.9066L8.32928 11.2428L4.96765 7.91848L5.26646 7.61967L10.1222 8.14259L7.39549 5.45329L7.73166 5.11713Z" fill="black"/>
<path d="M11.0561 5.97621L9.74878 3.62307L10.2343 3.36161L11.5043 5.71475C12.0272 6.68588 12.7369 6.90999 13.5586 6.46177C14.3804 6.01356 14.5671 5.30388 14.0442 4.33274L12.7742 1.9796L13.1851 1.75549L14.4924 4.10863C15.1274 5.30388 14.8286 6.27502 13.7827 6.83529C12.6995 7.43291 11.7284 7.1341 11.0561 5.97621Z" fill="black"/>
<path d="M19.236 2.9881C19.8136 2.9881 20.2819 2.51987 20.2819 1.94226C20.2819 1.36466 19.8136 0.896423 19.236 0.896423C18.6584 0.896423 18.1902 1.36466 18.1902 1.94226C18.1902 2.51987 18.6584 2.9881 19.236 2.9881Z" fill="black"/>
<path d="M25.9219 42.3565C26.4995 42.3565 26.9678 41.8883 26.9678 41.3107C26.9678 40.7331 26.4995 40.2648 25.9219 40.2648C25.3443 40.2648 24.8761 40.7331 24.8761 41.3107C24.8761 41.8883 25.3443 42.3565 25.9219 42.3565Z" fill="black"/>
<path d="M2.46515 26.5195C3.04275 26.5195 3.51099 26.0513 3.51099 25.4737C3.51099 24.8961 3.04275 24.4279 2.46515 24.4279C1.88755 24.4279 1.41931 24.8961 1.41931 25.4737C1.41931 26.0513 1.88755 26.5195 2.46515 26.5195Z" fill="black"/>
<path d="M41.7963 18.9746C42.3739 18.9746 42.8422 18.5063 42.8422 17.9287C42.8422 17.3511 42.3739 16.8829 41.7963 16.8829C41.2187 16.8829 40.7505 17.3511 40.7505 17.9287C40.7505 18.5063 41.2187 18.9746 41.7963 18.9746Z" fill="black"/>
<path d="M11.0004 20.3077C12.582 19.0336 16.263 16.5809 18.3336 16.9631C20.9218 17.4409 21.7845 20.3077 24.3727 20.3077C26.9609 20.3077 31.2746 16.9631 33.0001 16.9631" stroke="black" stroke-width="0.846142"/>
<path d="M11.0004 27.0768C12.582 25.8027 16.263 23.35 18.3336 23.7322C20.9218 24.21 21.7845 27.0768 24.3727 27.0768C26.9609 27.0768 31.2746 23.7322 33.0001 23.7322" stroke="black" stroke-width="0.846142"/>
</g>
<defs>
<clipPath id="clip0">
<rect width="44" height="43.8879" fill="white"/>
</clipPath>
</defs>
</svg>
