<svg width="32" height="32" viewBox="0 0 32 32" fill="none" xmlns="http://www.w3.org/2000/svg">
<path d="M27.2 7.2C27.2 8.52548 26.1255 9.6 24.8 9.6C23.4745 9.6 22.4 8.52548 22.4 7.2C22.4 5.87452 23.4745 4.8 24.8 4.8C26.1255 4.8 27.2 5.87452 27.2 7.2Z" fill="black"/>
<path fill-rule="evenodd" clip-rule="evenodd" d="M16 24C20.4183 24 24 20.4183 24 16C24 11.5817 20.4183 8 16 8C11.5817 8 8 11.5817 8 16C8 20.4183 11.5817 24 16 24ZM16 20.8C18.651 20.8 20.8 18.651 20.8 16C20.8 13.349 18.651 11.2 16 11.2C13.349 11.2 11.2 13.349 11.2 16C11.2 18.651 13.349 20.8 16 20.8Z" fill="black"/>
<path fill-rule="evenodd" clip-rule="evenodd" d="M0 15.36C0 9.9835 0 7.29524 1.04634 5.24169C1.96672 3.43534 3.43534 1.96672 5.24169 1.04634C7.29524 0 9.9835 0 15.36 0H16.64C22.0165 0 24.7048 0 26.7583 1.04634C28.5647 1.96672 30.0333 3.43534 30.9537 5.24169C32 7.29524 32 9.9835 32 15.36V16.64C32 22.0165 32 24.7048 30.9537 26.7583C30.0333 28.5647 28.5647 30.0333 26.7583 30.9537C24.7048 32 22.0165 32 16.64 32H15.36C9.9835 32 7.29524 32 5.24169 30.9537C3.43534 30.0333 1.96672 28.5647 1.04634 26.7583C0 24.7048 0 22.0165 0 16.64V15.36ZM15.36 3.2H16.64C19.3811 3.2 21.2444 3.20249 22.6847 3.32016C24.0876 3.43479 24.8051 3.64255 25.3055 3.89756C26.5098 4.51115 27.4889 5.49022 28.1024 6.69446C28.3575 7.19494 28.5652 7.91239 28.6798 9.31532C28.7975 10.7556 28.8 12.6189 28.8 15.36V16.64C28.8 19.3811 28.7975 21.2444 28.6798 22.6847C28.5652 24.0876 28.3575 24.8051 28.1024 25.3055C27.4889 26.5098 26.5098 27.4889 25.3055 28.1024C24.8051 28.3575 24.0876 28.5652 22.6847 28.6798C21.2444 28.7975 19.3811 28.8 16.64 28.8H15.36C12.6189 28.8 10.7556 28.7975 9.31532 28.6798C7.91239 28.5652 7.19494 28.3575 6.69446 28.1024C5.49022 27.4889 4.51115 26.5098 3.89756 25.3055C3.64255 24.8051 3.43479 24.0876 3.32016 22.6847C3.20249 21.2444 3.2 19.3811 3.2 16.64V15.36C3.2 12.6189 3.20249 10.7556 3.32016 9.31532C3.43479 7.91239 3.64255 7.19494 3.89756 6.69446C4.51115 5.49022 5.49022 4.51115 6.69446 3.89756C7.19494 3.64255 7.91239 3.43479 9.31532 3.32016C10.7556 3.20249 12.6189 3.2 15.36 3.2Z" fill="black"/>
</svg>
