<svg viewBox="0 0 558 123" fill="none" xmlns="http://www.w3.org/2000/svg">
<path d="M58.3108 2.55202H59.9349V24.7778H58.3108C56.362 19.4263 54.1503 15.2503 51.6756 12.2497C49.8814 10.1462 47.6233 8.30566 44.9011 6.72805C42.2099 5.11951 39.1784 3.8667 35.8067 2.96962C32.4658 2.04162 29.0786 1.57761 25.645 1.57761C23.0775 1.57761 20.7884 1.93335 18.7777 2.64482C16.7671 3.35629 15.0657 4.40803 13.6737 5.80005C12.6838 6.78992 11.895 7.90353 11.3073 9.14087C10.7195 10.3782 10.4257 11.5692 10.4257 12.7137C10.4257 14.879 11.2609 16.7505 12.9313 18.3281C13.7046 19.1015 14.8028 19.8439 16.2257 20.5554C17.6796 21.2668 19.5356 21.9628 21.7938 22.6434C24.0828 23.3239 27.269 24.1591 31.3522 25.149C32.4658 25.4893 33.2237 25.6903 33.6259 25.7522L35.8995 26.309L39.5187 27.237C45.6435 28.8146 50.1134 30.2066 52.9284 31.413C55.7434 32.6195 58.1407 34.2125 60.1205 36.1923C61.6671 37.6462 62.8581 39.3475 63.6933 41.2963C64.5594 43.2451 64.9925 45.3486 64.9925 47.6068C64.9925 49.834 64.513 52.0767 63.5541 54.3348C62.5951 56.562 61.2341 58.5263 59.4709 60.2277C57.1818 62.5786 54.3514 64.3418 50.9796 65.5173C47.6388 66.6928 43.8185 67.2805 39.5187 67.2805C36.5181 67.2805 33.6877 66.9712 31.0274 66.3525C28.3981 65.7648 25.181 64.6666 21.3762 63.0581C18.9015 62.0682 17.0145 61.4031 15.7153 61.0629C14.4161 60.6917 13.1942 60.5061 12.0497 60.5061C9.8534 60.5061 7.98192 61.0938 6.43524 62.2693C4.9195 63.4138 3.91416 65.0533 3.41922 67.1877H1.79521V37.2131H3.41922C4.06883 42.5337 6.21871 47.3593 9.86887 51.69C12.0652 54.2266 14.8646 56.593 18.2673 58.7893C21.701 60.9546 25.2893 62.6405 29.0322 63.8469C32.7752 65.0533 36.3325 65.6565 39.7043 65.6565C42.7049 65.6565 45.4425 65.1616 47.9172 64.1717C50.4228 63.1818 52.3716 61.8053 53.7636 60.0421C55.1556 58.2789 55.8516 56.2836 55.8516 54.0564C55.8516 51.7055 54.9082 49.5865 53.0212 47.6996C52.1551 46.8644 51.026 46.091 49.634 45.3796C48.2729 44.6681 46.4942 43.9411 44.2979 43.1987C42.1326 42.4563 39.1475 41.5747 35.3427 40.5539L30.7026 39.3011C23.4642 37.3523 18.4529 35.8365 15.6689 34.7539C12.5446 33.6093 10.0854 32.4648 8.29126 31.3202C6.52805 30.1757 4.99683 28.7218 3.69762 26.9586C1.77974 24.4839 0.820801 21.7618 0.820801 18.7921C0.820801 15.2038 1.88801 11.9868 4.02243 9.14087C6.15684 6.26405 9.14193 4.02136 12.9777 2.41282C16.8135 0.804273 21.0668 0 25.7378 0C32.7906 0 40.1064 1.96428 47.6852 5.89285C50.3455 7.22299 52.1551 7.88806 53.114 7.88806C55.5268 7.88806 57.2591 6.10938 58.3108 2.55202Z" fill="black"/>
<path d="M116.23 15.1729L103.516 44.0803H129.268L116.23 15.1729ZM121.148 0H122.865L148.942 56.7012C149.777 58.4645 150.705 59.9183 151.726 61.0629C152.778 62.2074 153.953 63.0426 155.252 63.5685C156.552 64.0634 158.083 64.3109 159.846 64.3109H161.563V66.1205H123.932V64.3109H128.851C131.294 64.3109 133.073 63.9861 134.187 63.3365C135.331 62.656 135.903 61.6197 135.903 60.2277C135.903 59.3615 135.671 58.3098 135.207 57.0724C134.774 55.8351 133.8 53.5924 132.284 50.3444C132.191 50.1588 132.052 49.8495 131.867 49.4164C131.681 48.9833 131.48 48.5657 131.263 48.1636L130.196 45.7972H102.727L100.639 50.6228C99.9586 52.2623 99.6183 53.9172 99.6183 55.5876C99.6183 57.0106 100.005 58.4181 100.778 59.8101C101.583 61.2021 102.619 62.2538 103.887 62.9653C104.722 63.4602 105.465 63.8005 106.114 63.9861C106.795 64.1408 107.754 64.249 108.991 64.3109V66.1205H82.5894V64.3109C84.5073 64.0944 86.023 63.7541 87.1366 63.2901C88.2811 62.8261 89.5494 62.0528 90.9414 60.9701C94.2204 58.4335 97.422 53.6543 100.546 46.6324L121.148 0Z" fill="black"/>
<path d="M179.995 1.29921H206.025L251.08 47.978V20.045C251.08 16.6423 250.492 13.6726 249.317 11.1361C248.172 8.5686 246.502 6.61978 244.306 5.28964C243.13 4.54723 241.939 4.02136 240.733 3.71203C239.557 3.40269 237.903 3.17069 235.768 3.01602V1.29921H267.877V3.01602H267.228C262.557 3.01602 258.999 4.50083 256.555 7.47046C254.112 10.4401 252.89 14.7553 252.89 20.4162V66.7701H251.359L195.4 9.28007V47.7924C195.4 51.5353 195.848 54.5359 196.745 56.794C197.642 59.0213 199.096 60.769 201.107 62.0373C202.747 63.0272 204.742 63.6613 207.093 63.9397C208.392 64.1562 210.248 64.3109 212.661 64.4037V66.1205H178.835V64.4037C182.299 64.2181 185.114 63.6149 187.28 62.5941C189.476 61.5423 191.085 59.9957 192.105 57.954C193.157 55.9124 193.683 53.3759 193.683 50.3444V13.6881C193.683 11.43 193.173 9.51207 192.152 7.93446C191.162 6.35685 189.708 5.15044 187.79 4.31523C185.872 3.44909 183.552 3.01602 180.83 3.01602H179.995V1.29921Z" fill="black"/>
<path d="M285.242 1.29921H361.246V34.1971L359.761 34.2899C358.988 26.0615 356.513 18.9932 352.337 13.0849C347.388 6.37231 341.108 3.01602 333.498 3.01602H330.111V52.5252C330.111 60.3823 334.024 64.3109 341.85 64.3109H351.641V66.1205H295.032V64.3109H304.73C312.587 64.3109 316.516 60.3823 316.516 52.5252V3.01602H312.34C304.606 3.01602 298.327 6.63525 293.501 13.8737C291.119 17.4311 289.31 21.669 288.072 26.5874C287.67 28.2578 287.268 30.7944 286.866 34.1971H285.242V1.29921Z" fill="black"/>
<path d="M422.273 0C428.336 0 433.874 0.974408 438.885 2.92322C443.927 4.8411 448.304 7.65606 452.016 11.3681C455.14 14.5233 457.553 18.0497 459.254 21.9474C460.956 25.8141 461.807 29.7736 461.807 33.8259C461.807 39.9198 460.074 45.5342 456.61 50.6692C453.176 55.8042 448.49 59.8719 442.55 62.8725C436.642 65.873 430.161 67.3733 423.109 67.3733C417.726 67.3733 412.653 66.5227 407.889 64.8213C403.156 63.12 398.98 60.7226 395.361 57.6292C391.742 54.505 388.912 50.8703 386.87 46.7252C384.859 42.5801 383.854 38.2494 383.854 33.7331C383.854 27.7319 385.602 22.133 389.097 16.9361C392.593 11.7393 397.279 7.62513 403.156 4.59364C409.034 1.53121 415.406 0 422.273 0ZM423.48 1.67041C420.665 1.67041 418.005 2.16535 415.499 3.15522C413.024 4.11416 410.936 5.49071 409.235 7.28486C407.379 9.23367 405.786 11.5537 404.456 14.2449C403.156 16.9052 402.167 19.8903 401.486 23.2002C400.836 26.4791 400.512 30.021 400.512 33.8259C400.512 38.5896 401.038 42.9358 402.089 46.8644C403.141 50.762 404.657 54.1338 406.636 56.9796C408.616 59.7946 410.983 61.9445 413.736 63.4293C416.489 64.9141 419.551 65.6565 422.923 65.6565C427.501 65.6565 431.476 64.3573 434.848 61.7589C438.251 59.1295 440.849 55.3866 442.643 50.53C444.468 45.6734 445.381 39.9043 445.381 33.2227C445.381 28.892 444.886 24.8397 443.896 21.0658C442.906 17.2919 441.483 14.0129 439.627 11.2289C437.771 8.41393 435.528 6.18672 432.899 4.54724C431.6 3.6811 430.1 2.98509 428.398 2.45922C426.697 1.93335 425.057 1.67041 423.48 1.67041Z" fill="black"/>
<path d="M510.352 3.01602V35.3107H523.298C529.701 35.3107 534.434 33.996 537.497 31.3666C540.559 28.7064 542.09 24.6077 542.09 19.0705C542.09 12.6054 539.971 8.1046 535.733 5.56804C534.218 4.67097 532.439 4.02136 530.397 3.61923C528.356 3.21709 525.819 3.01602 522.788 3.01602H510.352ZM482.698 1.29921H521.396C523.685 1.29921 526.19 1.37654 528.913 1.53121C531.635 1.68588 534.078 1.88695 536.244 2.13442C538.409 2.35095 540.203 2.61389 541.626 2.92322C546.73 4.0059 550.628 5.95471 553.319 8.76967C556.041 11.5537 557.402 15.0183 557.402 19.1633C557.402 22.0092 556.753 24.5458 555.454 26.773C554.154 29.0002 552.237 30.8872 549.7 32.4339C547.194 33.9496 544.116 35.1096 540.466 35.9139C536.816 36.7182 532.702 37.1203 528.124 37.1203H510.352V52.5252C510.352 60.4442 514.281 64.4037 522.138 64.4037H525.386V66.1205H482.605V64.4037H484.879C492.736 64.4037 496.664 60.4442 496.664 52.5252V14.8017C496.664 6.94459 492.736 3.01602 484.879 3.01602H482.698V1.29921Z" fill="black"/>
<path d="M86.0469 100.292H109.266V108.745H108.797C108.37 107.266 107.984 106.162 107.641 105.433C107.307 104.693 106.87 103.995 106.328 103.339C105.672 102.558 104.958 102.001 104.188 101.667C102.906 101.136 101.349 100.87 99.5156 100.87H95.2188V111.245H96.375C98.0938 111.245 99.4583 110.506 100.469 109.027C100.99 108.266 101.375 107.36 101.625 106.308C101.75 105.86 101.865 105.199 101.969 104.324H102.516V118.636H101.969C101.844 117.865 101.693 117.141 101.516 116.464C101.349 115.777 101.156 115.219 100.938 114.792C100.729 114.365 100.458 113.938 100.125 113.511C99.1875 112.355 97.8542 111.777 96.125 111.777H95.2188V121.542H98.8125C99.875 121.542 100.828 121.469 101.672 121.324C102.526 121.167 103.292 120.933 103.969 120.62C104.646 120.298 105.281 119.881 105.875 119.37C106.896 118.506 107.688 117.428 108.25 116.136C108.573 115.397 108.911 114.397 109.266 113.136H109.844V122.12H86.0781L86.0469 121.542H86.6406C89.2865 121.542 90.6094 120.209 90.6094 117.542V104.839C90.6094 103.485 90.2865 102.485 89.6406 101.839C88.9948 101.193 87.9948 100.87 86.6406 100.87H86.0469V100.292Z" fill="black"/>
<path d="M192.391 100.292H206.625V100.87H206.344C205.562 100.87 204.932 100.995 204.453 101.245C203.984 101.485 203.75 101.818 203.75 102.245C203.75 102.485 203.823 102.777 203.969 103.12C204.125 103.454 204.328 103.782 204.578 104.105L208.984 109.199L212.422 105.699C213.255 104.834 213.672 104.037 213.672 103.308C213.672 102.568 213.365 101.985 212.75 101.558C212.135 101.131 211.245 100.902 210.078 100.87V100.292H221.797V100.87C220.411 101.1 219.224 101.464 218.234 101.964C216.422 102.87 214.76 104.094 213.25 105.636L209.344 109.636L216.609 118.12C217.536 119.193 218.5 120.032 219.5 120.636C220.5 121.24 221.432 121.542 222.297 121.542H222.688V122.12H208.156V121.542H209.406C210.302 121.542 210.995 121.417 211.484 121.167C211.974 120.907 212.219 120.553 212.219 120.105C212.219 119.615 211.964 119.094 211.453 118.542L206.406 112.62L202.812 116.292C202.448 116.678 202.151 117.027 201.922 117.339C201.693 117.641 201.526 117.938 201.422 118.23C201.328 118.511 201.281 118.803 201.281 119.105C201.281 119.855 201.589 120.449 202.203 120.886C202.828 121.324 203.693 121.542 204.797 121.542H205.438V122.12H192.391V121.542C193.266 121.428 193.995 121.282 194.578 121.105C195.172 120.917 195.849 120.647 196.609 120.292C198.401 119.449 200.089 118.245 201.672 116.683L206.047 112.23L198.812 103.886C197.104 101.876 195.151 100.87 192.953 100.87H192.391V100.292Z" fill="black"/>
<path d="M313.406 100.87V111.745H317.766C319.922 111.745 321.516 111.303 322.547 110.417C323.578 109.522 324.094 108.141 324.094 106.277C324.094 104.1 323.38 102.584 321.953 101.73C321.443 101.428 320.844 101.209 320.156 101.074C319.469 100.938 318.615 100.87 317.594 100.87H313.406ZM304.094 100.292H317.125C317.896 100.292 318.74 100.318 319.656 100.37C320.573 100.423 321.396 100.49 322.125 100.574C322.854 100.647 323.458 100.735 323.938 100.839C325.656 101.204 326.969 101.86 327.875 102.808C328.792 103.745 329.25 104.912 329.25 106.308C329.25 107.266 329.031 108.12 328.594 108.87C328.156 109.62 327.51 110.256 326.656 110.777C325.812 111.287 324.776 111.678 323.547 111.949C322.318 112.219 320.932 112.355 319.391 112.355H313.406V117.542C313.406 120.209 314.729 121.542 317.375 121.542H318.469V122.12H304.062V121.542H304.828C307.474 121.542 308.797 120.209 308.797 117.542V104.839C308.797 102.193 307.474 100.87 304.828 100.87H304.094V100.292Z" fill="black"/>
<path d="M425.594 99.8549C427.635 99.8549 429.5 100.183 431.188 100.839C432.885 101.485 434.359 102.433 435.609 103.683C436.661 104.745 437.474 105.933 438.047 107.245C438.62 108.548 438.906 109.881 438.906 111.245C438.906 113.298 438.323 115.188 437.156 116.917C436 118.647 434.422 120.016 432.422 121.027C430.432 122.037 428.25 122.542 425.875 122.542C424.062 122.542 422.354 122.256 420.75 121.683C419.156 121.11 417.75 120.303 416.531 119.261C415.312 118.209 414.359 116.985 413.672 115.589C412.995 114.193 412.656 112.735 412.656 111.214C412.656 109.193 413.245 107.308 414.422 105.558C415.599 103.808 417.177 102.423 419.156 101.402C421.135 100.37 423.281 99.8549 425.594 99.8549ZM426 100.417C425.052 100.417 424.156 100.584 423.312 100.917C422.479 101.24 421.776 101.704 421.203 102.308C420.578 102.964 420.042 103.745 419.594 104.652C419.156 105.548 418.823 106.553 418.594 107.667C418.375 108.772 418.266 109.964 418.266 111.245C418.266 112.85 418.443 114.313 418.797 115.636C419.151 116.949 419.661 118.084 420.328 119.042C420.995 119.99 421.792 120.714 422.719 121.214C423.646 121.714 424.677 121.964 425.812 121.964C427.354 121.964 428.693 121.527 429.828 120.652C430.974 119.766 431.849 118.506 432.453 116.87C433.068 115.235 433.375 113.292 433.375 111.042C433.375 109.584 433.208 108.219 432.875 106.949C432.542 105.678 432.062 104.574 431.438 103.636C430.812 102.688 430.057 101.938 429.172 101.386C428.734 101.094 428.229 100.86 427.656 100.683C427.083 100.506 426.531 100.417 426 100.417Z" fill="black"/>
</svg>
