<svg width="194" height="43" viewBox="0 0 194 43" fill="none" xmlns="http://www.w3.org/2000/svg">
<path d="M20.7745 0.885759H21.3382V8.59991H20.7745C20.0981 6.74251 19.3305 5.29308 18.4716 4.25164C17.8488 3.52156 17.0651 2.88274 16.1203 2.33518C15.1862 1.77689 14.134 1.34206 12.9638 1.0307C11.8042 0.708607 10.6286 0.54756 9.43682 0.54756C8.54569 0.54756 7.75119 0.67103 7.05332 0.917969C6.35545 1.16491 5.76495 1.52995 5.28181 2.01309C4.93824 2.35666 4.66446 2.74317 4.46046 3.17263C4.25647 3.60209 4.15448 4.01544 4.15448 4.41269C4.15448 5.16424 4.44436 5.8138 5.02413 6.36136C5.29254 6.62977 5.67369 6.88745 6.16756 7.13439C6.67218 7.38132 7.31637 7.6229 8.10013 7.8591C8.89463 8.0953 10.0005 8.38518 11.4177 8.72875C11.8042 8.84685 12.0673 8.91664 12.2068 8.93811L12.996 9.13137L14.2521 9.45346C16.3779 10.001 17.9294 10.4842 18.9064 10.9029C19.8834 11.3216 20.7155 11.8745 21.4026 12.5617C21.9394 13.0663 22.3528 13.6568 22.6427 14.3332C22.9433 15.0096 23.0936 15.7397 23.0936 16.5234C23.0936 17.2965 22.9272 18.0749 22.5944 18.8586C22.2615 19.6316 21.7891 20.3134 21.1772 20.9039C20.3827 21.7199 19.4003 22.3319 18.23 22.7398C17.0705 23.1478 15.7445 23.3518 14.2521 23.3518C13.2107 23.3518 12.2283 23.2445 11.305 23.0297C10.3924 22.8257 9.27577 22.4446 7.95519 21.8863C7.09627 21.5427 6.44134 21.3119 5.99041 21.1938C5.53948 21.065 5.11539 21.0005 4.71814 21.0005C3.95585 21.0005 3.30629 21.2045 2.76947 21.6125C2.24338 22.0098 1.89445 22.5788 1.72266 23.3196H1.159V12.916H1.72266C1.94813 14.7626 2.69432 16.4375 3.96122 17.9406C4.72351 18.821 5.69516 19.6424 6.87617 20.4047C8.06792 21.1562 9.31335 21.7414 10.6125 22.1601C11.9116 22.5788 13.1463 22.7882 14.3165 22.7882C15.358 22.7882 16.3082 22.6164 17.1671 22.2728C18.0367 21.9292 18.7131 21.4515 19.1963 20.8395C19.6794 20.2275 19.921 19.535 19.921 18.762C19.921 17.946 19.5935 17.2106 18.9386 16.5556C18.638 16.2658 18.2461 15.9973 17.763 15.7504C17.2906 15.5035 16.6732 15.2512 15.9109 14.9935C15.1594 14.7358 14.1233 14.4298 12.8027 14.0755L11.1922 13.6407C8.6799 12.9643 6.94059 12.4382 5.97431 12.0624C4.88992 11.6652 4.03637 11.2679 3.41366 10.8707C2.80168 10.4734 2.27022 9.96881 1.81929 9.35684C1.15363 8.49792 0.820801 7.55311 0.820801 6.52241C0.820801 5.27698 1.19121 4.16038 1.93203 3.17263C2.67284 2.17413 3.70891 1.39574 5.04023 0.837445C6.37156 0.279148 7.84782 0 9.46903 0C11.9169 0 14.4561 0.681766 17.0866 2.0453C18.0099 2.50697 18.638 2.7378 18.9708 2.7378C19.8083 2.7378 20.4095 2.12045 20.7745 0.885759Z" fill="white"/>
<path d="M40.8771 5.26624L36.4644 15.2995H45.4025L40.8771 5.26624ZM42.5842 0H43.18L52.2309 19.68C52.5208 20.2919 52.8429 20.7965 53.1972 21.1938C53.5622 21.591 53.9702 21.8809 54.4211 22.0635C54.8721 22.2352 55.4035 22.3211 56.0155 22.3211H56.6114V22.9492H43.5505V22.3211H45.2576C46.1057 22.3211 46.7231 22.2084 47.1096 21.9829C47.5069 21.7467 47.7055 21.3871 47.7055 20.9039C47.7055 20.6033 47.625 20.2382 47.4639 19.8088C47.3136 19.3793 46.9754 18.6009 46.4493 17.4736C46.4171 17.4092 46.3688 17.3018 46.3044 17.1515C46.2399 17.0012 46.1702 16.8563 46.095 16.7167L45.7246 15.8953H36.1906L35.4659 17.5702C35.2297 18.1393 35.1116 18.7137 35.1116 19.2934C35.1116 19.7873 35.2458 20.2758 35.5142 20.759C35.7934 21.2421 36.153 21.6071 36.5932 21.8541C36.8831 22.0259 37.1408 22.144 37.3662 22.2084C37.6025 22.2621 37.9353 22.2997 38.3647 22.3211V22.9492H29.2012V22.3211C29.8668 22.246 30.3929 22.1279 30.7794 21.9668C31.1767 21.8058 31.6169 21.5374 32.1 21.1616C33.2381 20.2812 34.3493 18.6224 35.4337 16.1852L42.5842 0Z" fill="white"/>
<path d="M63.0088 0.450932H72.0436L87.6812 16.6523V6.95723C87.6812 5.77622 87.4772 4.74552 87.0693 3.86513C86.672 2.974 86.0922 2.2976 85.3299 1.83594C84.922 1.57826 84.5086 1.39574 84.0899 1.28838C83.6819 1.18101 83.1075 1.10049 82.3667 1.04681V0.450932H93.5111V1.04681H93.2857C91.6645 1.04681 90.4298 1.56216 89.5816 2.59286C88.7334 3.62356 88.3093 5.1213 88.3093 7.08607V23.1747H87.7779L68.3556 3.22094V16.5879C68.3556 17.887 68.5113 18.9284 68.8226 19.7122C69.134 20.4852 69.6386 21.0918 70.3365 21.532C70.9055 21.8756 71.598 22.0957 72.414 22.1923C72.8649 22.2674 73.5091 22.3211 74.3465 22.3533V22.9492H62.6062V22.3533C63.8087 22.2889 64.7857 22.0796 65.5373 21.7253C66.2995 21.3602 66.8578 20.8234 67.2121 20.1148C67.5772 19.4062 67.7597 18.5258 67.7597 17.4736V4.75089C67.7597 3.96713 67.5826 3.30147 67.2282 2.75391C66.8847 2.20635 66.3801 1.78762 65.7144 1.49774C65.0487 1.19712 64.2435 1.04681 63.2987 1.04681H63.0088V0.450932Z" fill="white"/>
<path d="M99.5381 0.450932H125.918V11.8692L125.402 11.9014C125.134 9.04548 124.275 6.59219 122.826 4.54153C121.108 2.21171 118.928 1.04681 116.287 1.04681H115.111V18.2305C115.111 20.9576 116.47 22.3211 119.186 22.3211H122.584V22.9492H102.936V22.3211H106.302C109.029 22.3211 110.393 20.9576 110.393 18.2305V1.04681H108.943C106.259 1.04681 104.08 2.30297 102.405 4.81531C101.578 6.05 100.95 7.5209 100.521 9.228C100.381 9.80777 100.241 10.6882 100.102 11.8692H99.5381V0.450932Z" fill="white"/>
<path d="M147.099 0C149.204 0 151.125 0.338199 152.865 1.0146C154.615 1.68026 156.134 2.65728 157.422 3.94565C158.507 5.04077 159.344 6.26473 159.935 7.61753C160.525 8.95959 160.82 10.3339 160.82 11.7403C160.82 13.8554 160.219 15.8041 159.017 17.5863C157.825 19.3686 156.198 20.7804 154.137 21.8219C152.086 22.8633 149.837 23.384 147.389 23.384C145.521 23.384 143.76 23.0888 142.107 22.4983C140.464 21.9078 139.015 21.0757 137.758 20.002C136.502 18.9177 135.52 17.6561 134.811 16.2174C134.113 14.7788 133.765 13.2756 133.765 11.7081C133.765 9.62525 134.371 7.68195 135.584 5.87822C136.798 4.07449 138.424 2.64654 140.464 1.59437C142.504 0.531455 144.716 0 147.099 0ZM147.518 0.579769C146.541 0.579769 145.618 0.751553 144.748 1.09512C143.889 1.42795 143.164 1.90572 142.574 2.52844C141.93 3.20484 141.377 4.01007 140.915 4.94415C140.464 5.86748 140.121 6.90355 139.884 8.05235C139.659 9.19042 139.546 10.4197 139.546 11.7403C139.546 13.3937 139.729 14.9022 140.094 16.2658C140.459 17.6186 140.985 18.7888 141.672 19.7766C142.359 20.7536 143.18 21.4998 144.136 22.0151C145.092 22.5305 146.154 22.7882 147.325 22.7882C148.914 22.7882 150.293 22.3372 151.464 21.4354C152.645 20.5228 153.546 19.2237 154.169 17.538C154.803 15.8524 155.119 13.85 155.119 11.531C155.119 10.0279 154.948 8.62139 154.604 7.31154C154.26 6.00169 153.767 4.86362 153.122 3.89734C152.478 2.92032 151.7 2.14729 150.787 1.57826C150.336 1.27764 149.816 1.03607 149.225 0.85355C148.635 0.67103 148.065 0.579769 147.518 0.579769Z" fill="white"/>
<path d="M177.67 1.04681V12.2557H182.163C184.385 12.2557 186.028 11.7994 187.091 10.8868C188.154 9.96345 188.685 8.54086 188.685 6.61904C188.685 4.37511 187.95 2.81296 186.479 1.93256C185.953 1.62121 185.336 1.39574 184.627 1.25617C183.918 1.11659 183.038 1.04681 181.986 1.04681H177.67ZM168.071 0.450932H181.503C182.297 0.450932 183.167 0.477773 184.112 0.531455C185.057 0.585138 185.905 0.654925 186.656 0.740817C187.408 0.815972 188.031 0.907232 188.524 1.0146C190.296 1.39037 191.649 2.06677 192.583 3.04379C193.528 4.01007 194 5.21256 194 6.65124C194 7.639 193.775 8.51939 193.324 9.29242C192.873 10.0654 192.207 10.7204 191.327 11.2572C190.457 11.7833 189.389 12.1859 188.122 12.465C186.855 12.7442 185.427 12.8838 183.838 12.8838H177.67V18.2305C177.67 20.9791 179.033 22.3533 181.76 22.3533H182.888V22.9492H168.039V22.3533H168.828C171.555 22.3533 172.919 20.9791 172.919 18.2305V5.1374C172.919 2.41034 171.555 1.04681 168.828 1.04681H168.071V0.450932Z" fill="white"/>
<path d="M30.4012 34.8091H38.46V37.743H38.2974C38.1491 37.2296 38.0153 36.8464 37.896 36.5933C37.7803 36.3366 37.6285 36.0944 37.4405 35.8666C37.2127 35.5954 36.9651 35.402 36.6975 35.2863C36.2528 35.1019 35.7123 35.0097 35.076 35.0097H33.5846V38.6107H33.9859C34.5825 38.6107 35.0561 38.354 35.4068 37.8406C35.5876 37.5767 35.7214 37.2621 35.8081 36.897C35.8515 36.7415 35.8913 36.5119 35.9274 36.2082H36.1172V41.1759H35.9274C35.884 40.9083 35.8316 40.657 35.7702 40.422C35.7123 40.1834 35.6454 39.99 35.5695 39.8418C35.4972 39.6935 35.4032 39.5453 35.2875 39.3971C34.9621 38.9957 34.4993 38.7951 33.8992 38.7951H33.5846V42.1846H34.832C35.2007 42.1846 35.5315 42.1592 35.8244 42.1086C36.1209 42.0544 36.3866 41.9731 36.6216 41.8646C36.8566 41.7525 37.0771 41.6079 37.2832 41.4307C37.6375 41.1307 37.9123 40.7565 38.1075 40.3081C38.2196 40.0515 38.3371 39.7044 38.46 39.2669H38.6607V42.3852H30.4121L30.4012 42.1846H30.6073C31.5256 42.1846 31.9848 41.7218 31.9848 40.7962V36.3872C31.9848 35.9172 31.8727 35.5701 31.6486 35.346C31.4244 35.1218 31.0773 35.0097 30.6073 35.0097H30.4012V34.8091Z" fill="white"/>
<path d="M67.3112 34.8091H72.2517V35.0097H72.1541C71.8829 35.0097 71.6642 35.0531 71.4979 35.1399C71.3352 35.223 71.2538 35.3387 71.2538 35.487C71.2538 35.5701 71.2791 35.6714 71.3298 35.7907C71.384 35.9064 71.4545 36.0202 71.5413 36.1323L73.0706 37.9003L74.2637 36.6855C74.5529 36.3854 74.6975 36.1088 74.6975 35.8557C74.6975 35.599 74.5909 35.3966 74.3776 35.2483C74.1642 35.1001 73.8551 35.0206 73.4502 35.0097V34.8091H77.5176V35.0097C77.0367 35.0893 76.6246 35.2158 76.2811 35.3894C75.652 35.7039 75.0753 36.1287 74.5511 36.6638L73.1953 38.0521L75.7171 40.9969C76.0389 41.3693 76.3733 41.6603 76.7204 41.87C77.0674 42.0797 77.391 42.1846 77.6911 42.1846H77.8267V42.3852H72.7832V42.1846H73.217C73.5279 42.1846 73.7684 42.1412 73.9383 42.0544C74.1082 41.964 74.1932 41.8411 74.1932 41.6856C74.1932 41.5157 74.1046 41.3349 73.9274 41.1433L72.1758 39.0879L70.9284 40.3624C70.8019 40.4962 70.6989 40.6173 70.6193 40.7257C70.5398 40.8306 70.4819 40.9336 70.4458 41.0349C70.4132 41.1325 70.397 41.2337 70.397 41.3385C70.397 41.5989 70.5036 41.8049 70.7169 41.9568C70.9339 42.1086 71.2339 42.1846 71.6172 42.1846H71.8395V42.3852H67.3112V42.1846C67.6149 42.1448 67.868 42.0942 68.0704 42.0327C68.2765 41.9676 68.5115 41.8736 68.7754 41.7507C69.3973 41.4579 69.983 41.0403 70.5325 40.498L72.051 38.9524L69.5401 36.0564C68.9472 35.3586 68.2693 35.0097 67.5064 35.0097H67.3112V34.8091Z" fill="white"/>
<path d="M109.313 35.0097V38.7842H110.827C111.575 38.7842 112.128 38.6306 112.486 38.3233C112.844 38.0123 113.023 37.5333 113.023 36.8861C113.023 36.1305 112.775 35.6045 112.28 35.308C112.103 35.2032 111.895 35.1272 111.656 35.0802C111.418 35.0332 111.121 35.0097 110.767 35.0097H109.313ZM106.081 34.8091H110.604C110.872 34.8091 111.165 34.8181 111.483 34.8362C111.801 34.8543 112.087 34.8778 112.34 34.9067C112.593 34.932 112.802 34.9627 112.969 34.9989C113.565 35.1254 114.021 35.3532 114.335 35.6822C114.653 36.0076 114.813 36.4125 114.813 36.897C114.813 37.2296 114.737 37.5261 114.585 37.7864C114.433 38.0467 114.209 38.2672 113.912 38.448C113.619 38.6252 113.26 38.7607 112.833 38.8547C112.406 38.9487 111.926 38.9957 111.391 38.9957H109.313V40.7962C109.313 41.7218 109.773 42.1846 110.691 42.1846H111.071V42.3852H106.07V42.1846H106.336C107.255 42.1846 107.714 41.7218 107.714 40.7962V36.3872C107.714 35.4689 107.255 35.0097 106.336 35.0097H106.081V34.8091Z" fill="white"/>
<path d="M148.252 34.6572C148.96 34.6572 149.607 34.7711 150.193 34.9989C150.783 35.223 151.294 35.552 151.728 35.9859C152.093 36.3547 152.375 36.7668 152.574 37.2224C152.773 37.6743 152.872 38.1371 152.872 38.6107C152.872 39.3229 152.67 39.9791 152.265 40.5793C151.864 41.1795 151.316 41.6549 150.622 42.0056C149.931 42.3563 149.174 42.5316 148.349 42.5316C147.72 42.5316 147.127 42.4322 146.571 42.2334C146.017 42.0345 145.529 41.7543 145.106 41.3928C144.683 41.0276 144.352 40.6028 144.114 40.1183C143.879 39.6339 143.761 39.1277 143.761 38.5999C143.761 37.8985 143.966 37.2441 144.374 36.6367C144.783 36.0293 145.33 35.5484 146.017 35.1941C146.704 34.8362 147.449 34.6572 148.252 34.6572ZM148.393 34.8525C148.064 34.8525 147.753 34.9103 147.46 35.026C147.171 35.1381 146.927 35.299 146.728 35.5087C146.511 35.7364 146.325 36.0076 146.169 36.3221C146.017 36.6331 145.902 36.9819 145.822 37.3688C145.746 37.752 145.708 38.166 145.708 38.6107C145.708 39.1675 145.77 39.6754 145.893 40.1346C146.016 40.5902 146.193 40.9842 146.424 41.3169C146.655 41.6459 146.932 41.8971 147.254 42.0707C147.576 42.2442 147.934 42.331 148.328 42.331C148.863 42.331 149.327 42.1791 149.721 41.8754C150.119 41.5681 150.423 41.1307 150.632 40.563C150.846 39.9954 150.952 39.3211 150.952 38.5402C150.952 38.034 150.895 37.5604 150.779 37.1193C150.663 36.6783 150.497 36.295 150.28 35.9696C150.063 35.6406 149.801 35.3803 149.494 35.1887C149.342 35.0875 149.166 35.0061 148.968 34.9447C148.769 34.8832 148.577 34.8525 148.393 34.8525Z" fill="white"/>
</svg>
