<svg width="10" height="10" viewBox="0 0 10 10" fill="none" xmlns="http://www.w3.org/2000/svg">
<path d="M7.05843 6.84015L6.74913 7.3041C6.68739 7.3967 6.60574 7.47572 6.49814 7.50416C6.14568 7.59729 5.20994 7.63935 3.7853 6.21471C2.36066 4.79007 2.40271 3.85432 2.49584 3.50186C2.52428 3.39426 2.60329 3.31261 2.6959 3.25087L3.15985 2.94157C3.50527 2.71129 3.59861 2.24459 3.36833 1.89917L2.49208 0.584805C2.29108 0.283306 1.9036 0.168118 1.57054 0.310857L1.17526 0.480261C0.874987 0.608951 0.630045 0.839908 0.483944 1.13211C0.361882 1.37623 0.267275 1.63331 0.254457 1.90595C0.214061 2.76514 0.402459 4.88192 2.76028 7.23974C5.11809 9.59755 7.23486 9.78594 8.09405 9.74554C8.36669 9.73272 8.62377 9.63812 8.86789 9.51606C9.16009 9.36996 9.39105 9.12501 9.51974 8.82474L9.68914 8.42946C9.83188 8.0964 9.71669 7.70891 9.4152 7.50792L8.10083 6.63167C7.75541 6.40139 7.28871 6.49473 7.05843 6.84015Z" fill="black"/>
</svg>
