<svg width="153" height="65" viewBox="0 0 153 65" fill="none" xmlns="http://www.w3.org/2000/svg">
<path d="M68.4434 14.4608C68.4413 19.9845 72.2012 23.8579 77.5615 23.8579C82.926 23.8579 86.6816 19.9867 86.6816 14.4629C86.6816 8.92402 82.9368 5.05932 77.5615 5.05932C72.1883 5.05932 68.4434 8.92186 68.4434 14.4608ZM61.0683 14.4608C61.0683 6.10705 68.0331 0 77.5615 0C87.092 0 94.059 6.10705 94.059 14.4608C94.059 22.7929 87.079 28.9107 77.5615 28.9107C68.0482 28.9107 61.0683 22.795 61.0683 14.4608ZM132.874 1.04124V27.8673H153V22.6114H139.861V16.2365H149.521V11.1837H139.861V6.29715H151.469V1.04124H132.874ZM99.0478 1.04124V27.8673H106.043V16.3985H118.407V27.8673H125.404V1.04124H118.407V10.959H106.043V1.04124H99.0478ZM33.9237 1.04124V27.8673H40.9231V6.10273H43.9401C47.8966 6.10273 49.6697 7.36648 49.6697 10.1791C49.6697 13.0544 47.6871 14.6962 44.2036 14.6962L42.6659 14.6552H41.8798L51.6025 27.8673H60.5478L51.6328 17.0812C54.9435 15.5863 56.7079 12.9335 56.7079 9.44681C56.7079 3.76533 53.0279 1.04124 45.3482 1.04124H33.9237ZM20.9183 14.3981V22.4408C19.0826 23.2098 17.2491 23.5943 15.422 23.5943C10.7118 23.5943 7.4011 19.9565 7.4011 14.7783C7.4011 9.20054 11.3576 5.31207 17.0374 5.31207C20.2121 5.31207 23.3566 6.19778 27.1705 8.16361V2.81698C22.2983 0.825218 19.8946 0.257071 16.2945 0.257071C6.35151 0.257071 0 5.88454 0 14.6941C0 23.0759 6.16363 28.6493 15.4285 28.6493C19.5599 28.6493 24.458 27.3208 28.0279 25.234V14.3981H20.9183ZM125.793 57.7955L125.119 57.5514L123.283 56.9379C117.955 55.3307 113.692 54.5292 110.436 54.5292C107.71 54.5292 103.095 55.3134 99.4343 56.3978L97.6073 56.9379C96.6808 57.2447 96.061 57.4456 95.7608 57.5514L93.9251 58.1844L92.1002 58.8044L90.2623 59.4287C84.6861 61.2347 80.7167 62.0404 77.4168 62.0404C74.5747 62.0404 70.3612 61.2627 66.4047 60.0098L64.5669 59.4287L62.7333 58.8044L60.9041 58.1844L59.0684 57.5514L57.2241 56.9379C51.9027 55.3307 47.6288 54.5292 44.3915 54.5292C41.6466 54.5314 37.0379 55.3112 33.373 56.3978L31.5481 56.9379C30.2458 57.357 29.978 57.4521 29.0364 57.7955L32.7294 59.7117L33.5587 59.4611C37.8629 58.1304 41.571 57.4369 44.4001 57.4369C46.7801 57.4369 50.499 58.044 53.5592 58.9275L55.397 59.4611L57.2241 60.053L59.0684 60.6622L60.9041 61.2973L62.7333 61.9173L64.5669 62.5308C70.0805 64.2223 74.1384 65.0022 77.4189 65C80.2351 64.9978 84.5371 64.2482 88.4266 63.0817L90.2623 62.5308L92.1002 61.9173L93.9251 61.2973L95.7608 60.6622L97.6073 60.053L99.4343 59.4611C104.119 58.0699 107.572 57.4369 110.442 57.4391C113.271 57.4391 116.973 58.1325 121.275 59.4611L122.102 59.7117L125.793 57.7955ZM137.759 50.8352L127.067 47.5516C122.26 46.074 120.4 45.5555 117.837 44.9895C115.124 44.389 112.405 44.0433 110.438 44.0433C107.336 44.0433 101.421 45.1472 97.6073 46.4391L90.2623 48.9277C85.293 50.6127 80.7167 51.5416 77.3779 51.5416C74.0218 51.5416 69.4909 50.6213 64.4956 48.9277L57.1507 46.4391C53.3475 45.1494 47.4107 44.0433 44.3051 44.0433C42.3485 44.0433 39.6057 44.3933 36.9126 44.9895C34.3772 45.5512 32.3687 46.1085 27.6802 47.5516L17.0007 50.8352C18.141 51.8743 18.4455 52.1141 19.724 52.9803L25.6609 51.1722L30.5654 49.7248L32.535 49.1415C37.7549 47.6013 41.2946 46.9402 44.3116 46.9402C47.0522 46.9402 52.0086 47.8475 55.3128 48.9601L64.4956 52.0406C68.7955 53.4815 74.1211 54.499 77.3801 54.499C80.626 54.499 85.9992 53.475 90.2623 52.0406L99.4343 48.9601C102.726 47.854 107.712 46.9381 110.442 46.9402C113.47 46.9402 116.979 47.597 122.212 49.1415L124.182 49.7248L129.088 51.1722L135.036 52.9803C136.308 52.1076 136.61 51.8699 137.759 50.8352ZM148.713 40.5005L148.409 41.0103C147.724 42.1531 147.413 42.5787 146.389 43.7949C145.087 43.972 144.567 44.0109 143.536 44.0109C140.265 44.0109 134.909 42.9848 130.628 41.5418L123.283 39.0596C118.295 37.3789 113.738 36.45 110.442 36.4479C107.667 36.4479 102.803 37.3401 99.4343 38.4699L90.2623 41.5418C85.9387 42.987 80.6325 44.0109 77.4189 44.0109C74.2075 44.0109 68.897 42.9891 64.5669 41.5418L55.397 38.4699C52.0258 37.3401 47.171 36.4479 44.3915 36.4479C41.1024 36.4479 36.5325 37.3789 31.5481 39.0596L24.2031 41.5418C19.9206 42.9848 14.5668 44.0109 11.2885 44.0109C10.2562 44.0109 9.74 43.972 8.45285 43.7949C7.50044 42.6975 7.12683 42.1877 6.42062 41.0103L6.11827 40.5005C8.60402 40.9045 9.99483 41.0514 11.3576 41.0514C14.6251 41.0514 19.3007 40.0987 24.2031 38.4396L31.5481 35.9488C35.429 34.6333 41.2233 33.551 44.3915 33.5488C47.5446 33.5488 53.3454 34.6354 57.2241 35.9488L64.5669 38.4396C69.4671 40.0987 74.1471 41.0514 77.4168 41.0514C80.6843 41.0514 85.3643 40.0987 90.2623 38.4396L97.6073 35.9488C101.482 34.6354 107.285 33.5488 110.433 33.5488C113.61 33.5488 119.394 34.6333 123.283 35.9488L130.628 38.4396C135.528 40.0987 140.204 41.0514 143.472 41.0514C144.837 41.0514 146.225 40.9045 148.713 40.5005Z" fill="#132D52"/>
</svg>
