<svg width="140" height="59" viewBox="0 0 140 59" fill="none" xmlns="http://www.w3.org/2000/svg">
<path d="M76.91 58.9496C70.3961 58.5635 66.68 58.0658 52.1548 55.6347C40.8946 53.75 37.2174 53.2301 33.1475 52.9465L31.8446 52.8557L28.8174 52.9014L25.7899 52.9472L24.0655 53.0642C17.3208 53.5221 10.6233 54.5006 2.53126 56.2104C1.24675 56.4818 0.151728 56.7039 0.0978883 56.7039H0V51.3081V45.9122H0.0413803C0.0641398 45.9122 1.02121 45.6737 2.16819 45.3826C8.6689 43.732 13.9194 42.8508 19.7352 42.4347L21.3447 42.3194L24.1039 42.2315L26.863 42.1436L31.538 42.1845L36.2132 42.2255L37.4012 42.3107C43.3071 42.7346 46.8189 43.2488 58.8609 45.4531C66.72 46.8916 70.9097 47.4956 75.6072 47.8673L77.2167 47.9947L79.277 48.0441L81.3375 48.0935L83.8756 48.0427L86.4137 47.9922L88.3681 47.8687C90.4874 47.7348 93.0018 47.528 95.7437 47.2619L97.4863 47.093L97.4298 47.1493C97.3987 47.1802 93.2534 49.8593 88.2178 53.1027L79.0621 59L78.1777 58.9862C77.6912 58.9785 77.1209 58.9621 76.91 58.9496ZM101.264 54.1181C101.696 53.4116 103.359 50.691 104.961 48.0724L107.873 43.311L123.566 43.3105L139.258 43.3099V49.3563V55.4028H119.869H100.48L101.264 54.1181ZM53.8792 36.4472C50.6384 36.13 48.6852 35.6442 46.5983 34.6362L45.7937 34.2475L45.0058 33.7214L44.2179 33.1953L43.5176 32.5313L42.817 31.8675L42.3683 31.3054L41.9196 30.7433L41.5 30.0311L41.0802 29.3189L40.7473 28.4885C40.3861 27.587 40.1594 26.7972 39.9711 25.7849L39.8505 25.1364L39.7716 24.0134L39.6925 22.8903L39.7725 21.8274C39.8166 21.2427 39.9083 20.4384 39.9763 20.0398L40.1 19.3153L40.3645 18.4352L40.6288 17.555L41.048 16.6805L41.467 15.806L41.9058 15.1522L42.3446 14.4985L43.0727 13.739L43.8008 12.9796L44.3773 12.541C45.1527 11.9509 45.8694 11.5178 46.7932 11.0806L47.5631 10.7163L48.4795 10.4115L49.3957 10.1068L50.277 9.9124C51.4481 9.65415 52.5308 9.50232 53.8792 9.40717L54.9906 9.32877H56.2551H57.5197L58.631 9.40698C59.2422 9.45 60.2164 9.55374 60.7959 9.63752L61.8494 9.78987L62.8769 10.0483C64.2012 10.3814 65.041 10.6866 66.1801 11.249L67.1 11.703L67.8116 12.2113L68.5233 12.7197L69.1561 13.3387C69.8836 14.0507 70.3222 14.6075 70.8795 15.5268L71.2738 16.1773L71.577 16.9051C71.969 17.8464 72.2421 18.7929 72.4386 19.8893L72.5962 20.7695L72.636 22.4204L72.6759 24.071L72.5849 24.8694C72.5349 25.3086 72.4252 26.0124 72.3409 26.4333L72.1879 27.1988L71.9253 27.9857L71.6628 28.7727L71.3096 29.4782C71.1154 29.8662 70.7634 30.4764 70.5275 30.8343L70.0987 31.4849L69.2124 32.3702L68.3262 33.2556L67.5588 33.7627L66.7914 34.2699L65.911 34.6904L65.0307 35.1108L64.1108 35.4147L63.1912 35.7185L62.3098 35.9129C61.2485 36.1469 60.1373 36.3114 58.8992 36.4175L57.9795 36.4964L56.0634 36.4849C55.0097 36.4786 54.0267 36.4617 53.8792 36.4472ZM58.5092 31.685C58.8427 31.596 59.3069 31.4355 59.5409 31.3286L59.9663 31.134L60.3731 30.8207L60.7798 30.5072L61.1458 29.961L61.5116 29.4146L61.7219 28.7796L61.932 28.1445L62.0545 27.4037L62.1771 26.663L62.2129 23.4574L62.2485 20.252L62.1612 19.265L62.0739 18.2778L61.8896 17.5526L61.7054 16.8273L61.4536 16.3493L61.2019 15.8712L60.7404 15.4113L60.2788 14.9514L59.8939 14.7463L59.5089 14.5412L58.8302 14.3448L58.1517 14.1484L57.2372 14.0651L56.3227 13.9817L55.4098 14.0697L54.4968 14.1576L53.939 14.3116L53.3811 14.4655L52.8835 14.7091L52.386 14.9528L51.9187 15.412L51.4514 15.8712L51.1708 16.4452L50.8901 17.0193L50.7438 17.5977C50.6633 17.9158 50.5526 18.5186 50.4979 18.9371L50.3981 19.698L50.4015 22.9125L50.405 26.1271L50.5354 27.0839L50.6658 28.0407L50.9144 28.7677L51.1632 29.4949L51.4556 29.935L51.7482 30.3752L52.1041 30.688L52.4599 31.0007L53.0737 31.2937L53.6875 31.587L54.2624 31.7057C54.5786 31.7712 54.9233 31.8403 55.0289 31.8593C55.1342 31.8784 55.824 31.8834 56.5617 31.8706L57.9029 31.847L58.5092 31.685ZM90.4757 36.3844C89.3996 36.2325 88.398 35.9925 87.3717 35.6407L86.4903 35.3385L85.6488 34.9195L84.8073 34.5005L84.0776 34.0129L83.348 33.5253L82.743 32.9827C81.9413 32.264 81.2561 31.4835 80.6928 30.6478L80.2317 29.9639L79.8617 29.1936C79.2425 27.904 78.8313 26.4758 78.6377 24.9409L78.5557 24.2903L78.5548 22.9079L78.554 21.5258L78.6687 20.7098C78.8127 19.6846 78.9575 19.0513 79.2584 18.129L79.4957 17.4019L79.8634 16.6366L80.2309 15.8712L80.694 15.1824C81.2612 14.3386 81.9436 13.5593 82.743 12.8425L83.348 12.2999L84.0761 11.8156C85.054 11.1652 85.6398 10.854 86.6435 10.452C87.9751 9.91869 89.1972 9.60476 90.7438 9.39878L91.3954 9.31203L93.2592 9.31844L95.123 9.32488L96.1715 9.40558C99.4468 9.65769 102.426 10.2542 104.197 11.0122L104.529 11.1541L103.568 13.3979C103.039 14.6319 102.581 15.6696 102.549 15.7038L102.491 15.7659L101.701 15.4913C100.154 14.9536 98.4737 14.6074 96.6675 14.4543L95.665 14.3693L94.8857 14.4549L94.1064 14.5405L93.5265 14.6886L92.9468 14.8367L92.3857 15.1062L91.8245 15.3757L91.3264 15.7765L90.8281 16.1773L90.4391 16.6632L90.0502 17.149L89.7045 17.8587L89.3588 18.5683L89.138 19.4416L88.9172 20.3149L88.8241 21.1135L88.7312 21.9121L88.7751 23.4455L88.8189 24.9792L88.9752 25.7399C89.337 27.5006 89.9309 28.7259 90.8695 29.6485C91.6328 30.3986 92.5456 30.8898 93.6947 31.1689L94.2311 31.2991L94.9975 31.3633L95.764 31.4274L96.607 31.3614C97.6843 31.2771 98.3825 31.1746 99.4797 30.9406L100.36 30.7527L101.42 30.4003L102.48 30.0481L102.54 30.1159C102.572 30.1531 103.024 31.1786 103.544 32.3946L104.49 34.6054L104.35 34.7071C104.273 34.763 103.793 34.9463 103.283 35.1143C101.453 35.7168 99.843 36.0396 97.2968 36.315L96.2238 36.4311L93.733 36.4617L91.2421 36.4926L90.4757 36.3844ZM122.857 36.4497C120.747 36.2639 118.906 35.9634 117.285 35.54L116.274 35.2759L115.465 34.9723C115.02 34.8053 114.308 34.4949 113.884 34.2827L113.112 33.8968L112.525 33.4944L111.939 33.0921L111.377 32.5616L110.815 32.0311L110.406 31.4134L109.996 30.796L109.806 30.3368C109.702 30.0842 109.555 29.6364 109.479 29.3418L109.343 28.806L109.342 27.8492L109.341 26.8926L109.434 26.395C109.644 25.2862 110.085 24.2552 110.7 23.4382L111.053 22.969L111.54 22.5146L112.026 22.0601L112.582 21.6913C112.888 21.4885 113.471 21.1579 113.878 20.957L114.618 20.5916L115.401 20.3206C117.042 19.7524 119.294 19.3123 121.707 19.088L122.972 18.9705L125.156 18.8956C126.357 18.8545 127.658 18.8201 128.047 18.8193L128.753 18.8179L128.823 18.6839L128.893 18.55L128.831 17.4364L128.769 16.3228L128.654 15.8291C128.591 15.5576 128.469 15.1715 128.383 14.9712L128.227 14.607L127.862 14.2173L127.497 13.8277L127.124 13.639C126.919 13.5352 126.487 13.3765 126.164 13.2863L125.578 13.1223L123.278 13.123L120.979 13.1237L119.906 13.26L118.833 13.3963L117.837 13.6511L116.84 13.906L115.691 14.3777C115.059 14.6372 114.487 14.8665 114.421 14.8874L114.3 14.9253L113.855 13.7145C113.61 13.0485 113.294 12.1837 113.152 11.7928L112.894 11.0819L113.258 10.9253C114.523 10.3804 117.248 9.80621 119.944 9.51639L120.979 9.40514L123.106 9.3126L125.232 9.22006L126.938 9.31143L128.643 9.40281L129.525 9.52095C131.331 9.7631 133.113 10.251 134.414 10.8598L135.064 11.1642L135.724 11.6015L136.384 12.0387L136.961 12.6156L137.538 13.1924L137.906 13.7472L138.273 14.3019L138.531 14.8952L138.788 15.4886L138.944 16.1009C139.03 16.4376 139.136 17.005 139.179 17.3617L139.258 18.0103V26.1035V34.1967L138.396 34.4641C135.564 35.3418 132.757 35.9372 129.678 36.3125L128.643 36.4388L125.923 36.4594C124.426 36.4709 123.047 36.4665 122.857 36.4499V36.4497ZM127.834 31.7442L128.72 31.659L128.816 31.5812L128.913 31.5033L128.893 27.1314L128.873 22.7595L127.685 22.7356L126.497 22.7116L125.401 22.7973C124.175 22.893 123.345 23.0244 122.482 23.2594L121.899 23.4179L121.275 23.7184L120.65 24.0191L120.221 24.4104L119.793 24.8018L119.511 25.3708L119.229 25.94L119.194 26.7327L119.159 27.5255L119.288 28.1052L119.417 28.6848L119.655 29.1664L119.894 29.6479L120.436 30.1845L120.979 30.7209L121.554 30.9996C122.277 31.3501 123.008 31.5718 123.892 31.708L124.581 31.8145L125.765 31.8218L126.949 31.8292L127.834 31.7442ZM2.4717 35.9048L0 35.8836V18.0608V0.238054L9.4461 0.181039L18.8922 0.124023L21.613 0.163391L24.3339 0.202757L25.3435 0.359744C27.7629 0.735888 29.4662 1.34557 30.9752 2.37551L31.6384 2.82823L32.242 3.45633C32.9941 4.23868 33.2549 4.61564 33.7262 5.60092L34.0991 6.38057L34.2893 7.10767C34.3939 7.50757 34.5203 8.1103 34.5704 8.44708L34.6614 9.05936L34.6599 10.0926L34.6585 11.1259L34.5321 11.8911L34.4057 12.6563L34.1369 13.4601L33.8678 14.2639L33.5955 14.7614C33.4455 15.035 33.1525 15.4892 32.9443 15.7706L32.5657 16.2823L31.918 16.8945L31.2701 17.5068L30.6377 17.9244C29.8747 18.4283 29.1257 18.8114 28.0509 19.2476L27.2462 19.5743L27.251 19.751L27.256 19.9276L31.7154 27.9177C34.1681 32.3124 36.1749 35.9201 36.1749 35.9351C36.1749 35.95 33.3555 35.9596 29.9094 35.9563L23.644 35.9504L22.0169 32.6843C20.3291 29.2963 18.5524 25.9048 17.1187 23.3335L16.2864 21.841H13.8338H11.3813L11.2472 21.8962L11.1131 21.9511V28.9567V35.9623L8.02823 35.9443C6.33157 35.9343 3.83114 35.9165 2.4717 35.9048ZM13.1057 16.7115C14.1316 16.6495 15.5727 16.4705 16.5272 16.2865L17.3408 16.1298L18.1165 15.876C19.1201 15.5476 19.7822 15.245 20.4731 14.7986L21.0306 14.4384L21.5222 13.9685L22.0137 13.4985L22.3408 13.0393C22.7717 12.4344 23.0804 11.8075 23.3395 11.0111L23.5511 10.3605L23.5487 9.82178L23.5462 9.28305L23.4244 8.80777C23.2754 8.22758 23.0697 7.80782 22.6754 7.28042L22.3752 6.87914L21.8317 6.49799L21.2882 6.11682L20.6974 5.88928L20.1066 5.66174L19.3078 5.48773L18.509 5.31373L14.8302 5.31139L11.1514 5.30903L11.1317 10.9643L11.1121 16.6197L11.2029 16.729L11.2938 16.8384L11.8357 16.797C12.1338 16.7742 12.7053 16.7357 13.1057 16.7115Z" fill="#008BD2"/>
</svg>
