<svg width="113" height="96" viewBox="0 0 113 96" fill="none" xmlns="http://www.w3.org/2000/svg">
<path d="M0 0H112.411V96H0V0Z" fill="white"/>
<path d="M3.91211 53.7305H108.483V92.1045H3.91211V53.7305Z" fill="#FFED00"/>
<path d="M3.91211 3.89551H108.483V49.834H3.91211V3.89551Z" fill="black"/>
<path fill-rule="evenodd" clip-rule="evenodd" d="M31.5077 20.0963H26.2645L23.5375 28.6347C23.0829 30.0794 22.5797 31.7676 22.3687 32.6766C22.1577 31.8 21.6545 30.0469 21.2 28.6347L18.4729 20.0963H13.0999L19.7877 38.5366H24.8198L31.5077 20.0963ZM59.1519 29.3489C59.1519 30.0469 59.1195 30.5501 59.087 30.891H47.9676C48.8767 36.6536 55.4022 34.6083 56.9118 33.3584L56.993 33.3746L57.7397 37.0757C56.5547 37.9847 54.4607 38.9262 51.7823 38.9262C46.4418 38.9262 43.0329 35.1602 43.0329 29.3327C43.0329 23.6837 46.6041 19.7067 51.3116 19.7067C56.295 19.7229 59.1519 24.0733 59.1519 29.3489ZM54.412 27.2387C54.2659 25.5829 53.2757 23.9434 51.0843 23.9434C49.3149 23.9434 48.2111 25.3881 48.0326 27.2387H54.412ZM34.5432 20.0963H39.5753V38.5366H34.5432V20.0963ZM41.296 13.0838C41.296 10.795 39.3643 8.86328 37.043 8.86328C34.7218 8.86328 32.7901 10.7787 32.7901 13.0838C32.7901 15.3726 34.7218 17.3043 37.043 17.3043C39.3643 17.3043 41.296 15.3888 41.296 13.0838ZM72.9172 32.8227V25.8751C72.1705 24.8525 71.0343 24.3006 69.622 24.3006C67.739 24.3006 66.7164 25.9238 66.7164 29.008C66.7164 32.8065 67.9987 34.381 69.898 34.381C71.4238 34.3648 72.203 33.7317 72.9172 32.8227ZM77.8682 35.3875C78.1442 44.283 72.7225 45.9062 66.1482 45.7926L65.3853 41.7507L65.434 41.702C69.1837 41.702 73.2744 41.8156 72.9984 37.3516C72.0731 38.1632 70.8395 38.8937 69.0701 38.8937C65.1093 38.8937 61.8466 35.9394 61.8466 29.0567C61.8466 23.5376 64.46 19.6742 69.0701 19.6742C70.6934 19.6742 72.1218 20.3073 72.9984 21.1189L73.0146 20.0638H77.8844L77.8682 35.3875ZM92.1367 33.1311V30.8098C91.2926 30.2904 90.4648 30.0307 88.7441 30.0307C86.9098 30.0307 85.9196 30.8748 85.9196 32.352C85.9196 33.6506 86.6663 34.8031 88.7441 34.8031C90.3349 34.8193 91.6173 34.0077 92.1367 33.1311ZM97.0552 38.6015H92.2179L92.1692 37.3678C91.2764 38.2769 89.7343 38.9911 87.9974 38.9911C84.5236 38.9911 81.066 36.8809 81.066 32.4169C81.066 28.3425 84.3937 26.2972 88.598 26.2972C90.3024 26.2972 91.39 26.6543 92.1692 27.0276V26.1186C92.1692 24.0084 89.3934 22.239 83.9068 25.0635L83.8418 25.0473L83.1438 21.3462C86.228 19.3496 97.0552 17.6614 97.0552 26.4757V38.6015Z" fill="#FFED00"/>
</svg>
