<svg width="208" height="69" viewBox="0 0 208 69" fill="none" xmlns="http://www.w3.org/2000/svg">
<path d="M203.671 34.2519C200.062 34.6404 196.416 34.5062 192.846 33.8536C191.303 33.6296 189.761 33.8536 188.193 33.6296C187.198 33.6296 186.327 33.2811 185.356 33.082C184.436 32.9844 183.537 32.7407 182.694 32.3601C181.325 31.5636 180.803 30.3937 179.086 31.2898C178.357 31.7864 177.592 32.2274 176.797 32.6091C175.926 32.858 175.403 32.385 174.831 31.7627C173.6 30.7749 172.134 30.1232 170.576 29.871C169.804 29.5723 169.307 28.95 168.51 28.701C167.705 28.4163 166.827 28.4163 166.022 28.701C164.424 29.0221 162.994 29.9052 161.991 31.1902C161.145 32.4099 158.831 32.6588 157.462 32.9326C155.981 33.3064 154.461 33.4987 152.933 33.5052C151.515 33.2562 152.635 31.3396 153.207 30.792C153.809 30.1163 154.343 29.3826 154.8 28.6015C155.251 27.8979 155.759 27.232 156.317 26.6101C156.915 25.8385 157.338 24.9673 157.985 24.121C158.632 23.2746 159.328 22.4034 159.901 21.5073C160.984 19.925 162.245 18.4718 163.658 17.1762C165.002 15.6578 166.146 14.0398 167.689 12.621C169.232 11.2021 170.178 10.1318 171.422 8.98675C171.82 8.66316 172.741 7.71728 172.143 7.16966C171.546 6.62204 170.153 7.46836 169.655 8.21511C168.372 9.83115 166.966 11.3457 165.45 12.7454C163.932 14.3136 162.464 15.9813 161.045 17.7238C158.542 20.6758 155.75 23.3693 152.709 25.7638C149.835 28.107 146.694 30.1038 143.353 31.7129C142.582 32.0365 139.646 33.4554 139.297 31.9121C139.048 30.8915 140.591 28.0539 138.377 28.1285C136.716 28.8708 135.232 29.9567 134.022 31.3147C132.667 32.578 130.897 33.3037 129.045 33.3558C128.666 33.3243 128.299 33.2061 127.972 33.0104C127.646 32.8146 127.368 32.5466 127.162 32.2268C126.955 31.907 126.824 31.544 126.78 31.1658C126.736 30.7876 126.778 30.4042 126.905 30.0452C127.03 29.2736 127.926 28.8006 128.398 28.2281C129.01 27.4676 129.675 26.7521 130.389 26.0874C131.763 24.8507 132.946 23.4162 133.898 21.8309C134.943 20.0138 136.535 18.595 137.531 16.8526C138.078 16.1805 138.526 15.4337 139.073 14.7865C139.531 14.0304 139.947 13.2493 140.317 12.4467C141.188 11.227 143.552 9.31035 143.005 7.61771C142.457 5.92507 139.571 9.11121 139.048 9.50948C137.267 10.85 135.692 12.4433 134.37 14.2389C133.074 15.8341 131.861 17.4958 130.737 19.2173C129.715 20.6988 128.777 22.2362 127.926 23.8223C127.229 25.3407 126.408 26.7595 125.761 28.3277C125.114 29.8958 122.849 31.1155 121.207 32.161C119.963 32.9326 118.072 34.2519 116.554 33.9781C115.036 33.7043 117.251 31.8623 117.723 31.4889C118.965 30.2965 119.911 28.8304 120.485 27.2075C120.759 26.5355 120.038 26.0376 119.391 26.1123C118.578 26.1796 117.822 26.5533 117.276 27.1578C116.678 27.7303 115.857 27.7303 116.629 26.8093C117.4 25.8883 117.674 25.3904 118.196 24.6686C119.533 23.1011 120.257 21.1031 120.237 19.043C120.143 17.2099 119.704 15.411 118.943 13.7411C118.224 12.1885 117.393 10.6909 116.454 9.26056C115.27 7.89542 113.906 6.69791 112.398 5.70104C110.756 4.58257 108.927 3.76503 106.999 3.28654C103.312 2.33835 99.4844 2.06845 95.7016 2.49C94.0344 2.73892 92.2677 2.98784 90.6005 3.0874C89.0369 3.27912 87.4953 3.62088 85.9971 4.10797C85.2257 4.55602 82.8121 5.15342 83.3346 6.59715C83.6503 7.26215 84.0992 7.85521 84.6534 8.33957C85.6239 9.08632 85.6985 8.33957 85.3004 7.54303C84.4792 5.05385 91.347 4.10797 92.9147 4.05818C94.8805 4.05818 96.8214 3.63502 98.812 3.61013C99.8323 3.61013 100.828 3.61013 101.823 3.61013C102.818 3.61013 103.863 4.0084 104.908 4.08308C108.583 4.55492 111.971 6.31966 114.464 9.06143C115.537 10.2935 116.487 11.6274 117.3 13.0441C117.649 13.8655 118.047 14.5874 118.321 15.5333C118.584 16.5744 118.709 17.6456 118.694 18.7194C118.814 19.6655 118.772 20.6252 118.569 21.5571C118.196 22.4532 117.723 23.2995 117.35 24.1956C116.478 25.459 115.361 26.5341 114.066 27.3569C112.416 28.1381 110.574 28.4234 108.765 28.1783C105.198 27.892 101.615 27.8421 98.0407 28.029C96.5725 28.029 95.1293 28.6761 93.711 28.7259C93.1884 28.7259 92.641 29.0744 92.1433 28.7259C91.6456 28.3774 92.1433 27.332 92.1433 26.9088C92.7559 25.3485 93.4967 23.8415 94.3579 22.4034C95.2786 20.661 96.2988 18.9684 97.2693 17.2508C98.2895 16.0809 98.9862 14.7616 100.081 13.6166C100.533 13.2295 100.89 12.7442 101.126 12.1978C101.35 11.6004 100.902 10.8785 100.23 11.1026C99.9107 11.2333 99.6217 11.4292 99.3818 11.6777C99.1419 11.9263 98.9563 12.2221 98.8369 12.5463C98.3843 13.2664 97.8856 13.9565 97.3439 14.6123C96.2242 16.1805 95.1542 17.7736 94.1837 19.4413C93.6721 20.1746 93.2542 20.969 92.9396 21.806C92.5912 22.503 92.0189 22.8764 91.7949 23.648C91.571 24.4197 91.1231 25.3904 90.924 26.3612C90.8401 27.2317 90.5865 28.0774 90.1775 28.8504C89.2071 30.1199 87.2662 29.7216 86.0718 30.5181C85.3365 30.6409 84.6338 30.9119 84.0064 31.3147C82.9982 31.6758 82.0239 32.1256 81.0951 32.6588C79.8758 33.3558 77.5865 34.5755 77.7358 36.293C77.8851 38.0106 80.4481 38.7822 81.9162 38.7822C85.8192 38.8018 89.7084 38.3165 93.487 37.3385C94.9791 36.7371 96.5305 36.2949 98.1153 36.0192C99.6581 35.5214 101.176 34.8493 102.744 34.4262C104.311 34.003 105.954 33.3309 107.447 32.5344C108.307 32.1172 109.138 31.6432 109.935 31.1155C110.831 30.5679 111.876 30.2443 112.697 29.622C113.518 28.9997 116.38 28.1534 115.011 29.8461C114.573 30.4239 114.237 31.072 114.016 31.7627C113.618 32.858 112.772 33.0322 111.876 33.6296C110.98 34.227 110.482 34.6502 109.636 34.4759C108.79 34.3017 109.338 33.6794 108.765 33.7043C107.637 34.0236 106.681 34.7749 106.103 35.7952C105.431 37.6372 109.263 36.6664 109.86 36.3677C110.457 36.069 111.478 35.5712 112.349 35.2227C112.759 34.9796 113.228 34.8513 113.705 34.8513C114.182 34.8513 114.65 34.9796 115.061 35.2227C115.887 35.5632 116.789 35.675 117.674 35.5463C118.44 35.2808 119.181 34.9476 119.888 34.5506C121.481 33.8287 122.7 32.6837 124.218 31.8872C125.736 31.0907 126.283 33.5798 127.08 34.227C127.719 34.677 128.466 34.9517 129.244 35.0236C130.24 35.0236 131.111 34.451 132.081 34.451C133.052 34.451 133.524 35.0982 134.445 34.7746C135.006 34.4952 135.505 34.1058 135.913 33.6296C136.01 33.4954 136.134 33.3834 136.278 33.3008C136.421 33.2182 136.58 33.167 136.745 33.1505C136.909 33.134 137.076 33.1527 137.233 33.2052C137.39 33.2578 137.533 33.343 137.655 33.4554C138.259 34.0295 139.061 34.3502 139.894 34.3515C141.682 34.1516 143.393 33.51 144.871 32.4846C145.642 32.0645 146.382 31.5903 147.086 31.0658C147.882 30.4684 148.902 30.1199 149.574 29.4478C150.689 28.3142 151.963 27.3498 153.356 26.5852C154.327 26.187 153.73 27.4565 153.356 27.7303C152.585 28.5268 152.187 29.622 151.49 30.4435C151.192 31.0804 150.706 31.6104 150.097 31.9619C149.574 31.9619 148.753 31.6881 148.33 32.1361C147.907 32.5842 148.529 33.4305 148.604 34.0528C148.678 34.6751 147.832 35.7952 147.285 36.542C146.177 37.9695 145.187 39.4846 144.324 41.0723C143.353 42.8147 142.034 44.3082 140.964 46.0506C139.894 47.793 138.849 49.0625 137.978 50.7303C137.108 52.398 136.062 53.8666 135.241 55.5344C134.608 56.8728 134.148 58.2864 133.873 59.7411C133.549 61.2595 133.226 63.4749 134.644 64.7194C136.062 65.964 138.028 64.1967 138.999 63.3006C140.46 61.8069 141.831 60.2277 143.104 58.5712C145.271 55.549 147.09 52.2926 148.529 48.8634C149.208 47.3642 149.75 45.8062 150.146 44.2086C150.694 42.5548 151.045 40.842 151.192 39.1058C151.266 38.2362 151.266 37.3618 151.192 36.4922C151.192 35.7703 151.192 35.1978 151.963 35.0733C152.734 34.9489 153.755 35.0733 154.65 35.0733C155.546 35.0733 156.666 34.6004 157.736 34.5008C158.806 34.4013 161.095 32.8829 161.891 34.5008C162.383 35.1331 163.019 35.6375 163.747 35.9711C164.475 36.3048 165.272 36.4579 166.072 36.4175C167.73 36.396 169.337 35.837 170.65 34.8244C170.837 34.589 170.97 34.3152 171.039 34.0226C171.107 33.73 171.111 33.4258 171.048 33.1318C171.048 32.2357 171.048 32.0863 171.969 32.3601C172.665 32.572 173.287 32.9778 173.761 33.53C174.308 34.2519 173.761 34.7497 173.761 35.4965C173.761 36.2433 174.831 36.6664 175.453 36.3677C176.225 35.8341 176.949 35.2344 177.618 34.5755C178.314 34.0528 178.986 33.3558 179.932 33.53C180.877 33.7043 181.35 34.2768 182.146 34.451C184.161 34.8948 186.208 35.1778 188.268 35.2974C192.192 35.6003 196.129 35.6917 200.062 35.5712C201.39 35.6919 202.727 35.6501 204.044 35.4467C205.387 35.1231 204.815 33.9283 203.671 34.4013V34.2519ZM129.195 23.9218C129.858 22.5049 130.694 21.1756 131.683 19.964C132.803 18.5452 133.723 17.0019 134.918 15.6329C136.112 14.2638 136.958 13.1437 138.178 11.9738C139.397 10.8039 139.621 11.7497 138.924 12.6956C138.227 13.6415 137.978 14.1891 137.456 14.911C136.535 16.2303 135.565 17.4002 134.594 18.7941C134.047 19.5409 133.549 20.3125 133.052 21.1091C132.554 21.9056 132.006 22.279 131.583 22.951C131.048 23.6525 130.457 24.31 129.817 24.9175C128.672 25.9132 128.772 24.9175 129.17 23.9218C129.17 23.7725 129.02 24.2205 129.17 23.9218H129.195ZM118.694 26.9586C120.734 27.2573 117.027 30.4684 116.579 31.1404C114.961 31.1404 118.445 27.4565 118.694 26.9586C118.893 26.9586 118.146 28.1036 118.694 26.9586ZM106.551 31.5387C104.187 32.2855 101.922 33.4305 99.5834 34.1772C98.2895 34.6004 97.0951 35.1231 95.7514 35.4716C94.4077 35.8201 93.2631 35.9694 92.1682 36.3677C91.7148 36.4967 91.2461 36.5636 90.7747 36.5668C90.2024 36.5668 89.7545 36.9153 89.2071 36.99C88.6596 37.0647 88.162 37.2389 87.6394 37.3634C87.0889 37.3169 86.5344 37.3589 85.9971 37.4878C84.9271 37.4878 78.3082 38.2595 79.7265 35.5712C80.258 34.7823 80.9874 34.1471 81.8416 33.7292C82.7931 33.0542 83.8309 32.51 84.9271 32.1112C86.1962 31.7378 87.4155 31.24 88.7592 30.8666C89.9413 30.5819 91.1047 30.2245 92.2428 29.7963C93.5336 29.4063 94.8758 29.2133 96.2242 29.2238C96.9707 29.2238 97.5928 28.8255 98.3641 28.7757C99.1355 28.7259 100.006 28.7757 100.852 28.7757C102.545 28.6264 104.361 28.7757 106.053 28.7757C106.882 28.7259 107.713 28.7259 108.541 28.7757C109.2 28.6634 109.873 28.6634 110.532 28.7757C110.532 29.6967 107.297 31.0409 106.576 31.3894C106.327 31.3894 107.098 31.1404 106.576 31.3894L106.551 31.5387ZM134.37 33.9034C133.922 34.1274 133.002 34.0279 133.375 33.306C133.799 32.6307 134.38 32.0673 135.067 31.6632C135.316 31.4889 138.277 28.8006 138.078 30.0701C138.078 30.8168 136.933 31.6134 136.436 32.1112C135.837 32.8053 135.142 33.409 134.37 33.9034ZM149.524 40.3504C149.038 43.0368 148.296 45.6707 147.31 48.2162C146.869 49.3808 146.345 50.5122 145.742 51.6015C145.371 52.1456 145.046 52.7202 144.772 53.319C144.423 53.9413 144.299 54.6383 143.926 55.2606C142.685 57.4877 141.059 59.4767 139.123 61.135C138.252 61.7324 137.108 63.45 135.888 63.1513C134.669 62.8526 135.192 60.6621 135.366 59.766C136.262 54.464 139.745 49.8093 142.632 45.4532C144.05 43.2627 145.667 41.1718 147.26 39.0809C147.708 38.5084 148.554 36.4424 149.499 36.9402C149.626 38.0734 149.626 39.2172 149.499 40.3504C149.499 40.5993 149.499 40.0019 149.499 40.3504H149.524ZM169.406 33.6545C168.759 34.6004 166.345 34.7995 165.275 34.7497C164.206 34.7 161.866 33.1069 163.708 32.1361C164.33 31.7876 164.977 31.4142 165.649 31.0907C166.321 30.7671 166.968 29.7714 167.639 29.8461C168.034 29.9377 168.402 30.118 168.716 30.3733C169.03 30.6285 169.281 30.952 169.452 31.3191C169.622 31.6863 169.706 32.0874 169.698 32.4921C169.691 32.8967 169.591 33.2943 169.406 33.6545C169.605 33.306 169.157 33.9781 169.406 33.6545Z" fill="#393937"/>
<path d="M78.5573 18.496C77.5122 18.496 76.0689 20.2882 75.422 20.9852C74.1529 22.1053 72.9336 23.4744 71.6895 24.5945C71.024 25.3475 70.3002 26.0466 69.5246 26.6854C68.8414 27.2962 68.0695 27.7998 67.2353 28.1789C66.5137 28.3781 65.8916 28.8012 65.1949 29.0003C64.4083 29.1348 63.6342 29.3346 62.8807 29.5978C62.2296 29.8016 61.5436 29.8694 60.8652 29.7969C60.1625 29.8604 59.5075 30.1792 59.0238 30.693C58.4515 31.1908 57.7548 31.5393 57.1576 32.0371C56.5604 32.535 55.6894 33.456 54.8683 34.1032C53.4366 35.0828 51.9401 35.9643 50.3893 36.7417C49.817 36.7417 48.747 37.0404 48.3737 36.4181C48.0005 35.7958 48.5977 34.6757 49.1451 34.0534C49.6926 33.4311 51.4842 30.917 52.9274 30.9419C53.4997 30.9419 53.2011 32.1367 54.072 32.1616C54.9429 32.1865 55.4406 31.1659 55.5899 30.7179C56.3364 28.6519 53.7734 29.1746 52.7781 29.4484C50.7874 30.0209 49.4935 31.9376 47.677 32.7839C46.2976 33.8174 44.782 34.6551 43.1731 35.2731C41.9787 35.2731 43.3473 34.0285 43.621 33.7547C44.3426 33.0826 44.691 32.535 44.3426 31.5891C43.0487 28.3034 37.5992 35.1735 36.5541 36.2439C36.0316 36.7915 35.6086 37.8618 34.9367 38.2103C34.2649 38.5588 33.5184 38.509 32.8714 38.8824C31.3589 39.097 29.8626 39.413 28.3924 39.8283C27.9694 40.0523 26.6008 40.5999 26.6506 39.5794C26.7003 38.5588 27.3971 38.1605 27.7703 37.588C28.8154 35.9203 30.1094 34.4019 31.1296 32.7341C32.1498 31.0664 33.3193 29.7222 34.3893 28.2287C35.4593 26.7352 36.4546 24.943 37.649 23.3997C38.8062 21.8959 39.8859 20.334 40.8839 18.72C41.2433 17.9072 41.7213 17.1523 42.3022 16.4798C42.9741 15.5837 43.5713 14.7125 44.2182 13.7915C45.3629 12.0988 46.5324 10.3813 47.5277 8.58909C48.407 7.10343 49.0532 5.4916 49.4437 3.80987C49.7672 2.4906 50.5635 0.623719 48.7968 0.00142492C48.0332 -0.0701497 47.2632 0.0264726 46.541 0.284497C45.8188 0.542522 45.1618 0.955685 44.6164 1.49493L40.1373 4.97978C38.5946 6.17459 37.226 7.46896 35.7579 8.68866C35.1195 9.32881 34.4194 9.90413 33.6677 10.4062C33.0207 11.0285 32.3986 11.6259 31.7019 12.2233C31.0052 12.8207 30.3084 13.6172 29.537 14.2146C28.7135 14.7226 27.9388 15.3059 27.2229 15.9571C26.1542 17.0259 25.0243 18.0315 23.8387 18.969C22.3955 20.2633 20.9523 21.9809 19.2851 23.1508C16.0751 25.4159 13.2384 28.1291 10.1778 30.6183C8.79981 31.9194 7.53452 33.335 6.39551 34.8499C5.92273 35.4224 5.32553 36.1692 5.69878 36.9408C5.78757 37.0842 5.90403 37.2084 6.04136 37.3063C6.17869 37.4041 6.33414 37.4736 6.49862 37.5107C6.6631 37.5478 6.83331 37.5517 6.99932 37.5223C7.16533 37.4928 7.32381 37.4305 7.4655 37.3391C8.78432 36.5675 8.53548 34.8499 9.48105 33.7796C10.8126 32.1822 12.2509 30.677 13.7859 29.2742C15.0283 27.944 16.3406 26.681 17.7174 25.4906C19.3582 24.3426 20.921 23.087 22.3955 21.7319C25.1327 19.0685 28.1187 16.7536 30.9305 14.1151C32.2244 13.0696 33.4188 11.8499 34.7377 10.7796C36.0565 9.70922 38.1964 8.11615 39.7143 6.59775C40.9501 5.41878 42.2818 4.34472 43.6957 3.38671C44.7775 2.40986 46.1004 1.7396 47.5277 1.44515C49.817 1.44515 46.0347 8.68866 45.4873 9.48519C43.3722 12.5718 41.4064 15.7579 39.2416 18.7947C38.0969 20.3878 37.1513 22.0804 36.0316 23.7731C34.7491 25.2887 33.5766 26.8942 32.523 28.5772C31.6746 30.0102 30.6825 31.353 29.5619 32.5848C29.0629 33.2528 28.6059 33.9511 28.1933 34.6757C27.5713 35.5967 26.8745 36.4679 26.2524 37.4138C25.4175 39.0275 24.353 40.5115 23.0922 41.8196C21.4006 42.9677 19.6479 44.023 17.8419 44.9809C14.4622 47.353 11.298 50.0184 8.38618 52.9462C5.99628 55.5295 3.90914 58.3773 2.16534 61.4343C1.48877 63.0613 0.899036 64.7231 0.398623 66.4127C0.249323 67.1346 -0.322994 67.8813 0.22444 68.6032C0.484494 68.8617 0.820452 69.0302 1.18313 69.0839C1.54582 69.1377 1.91617 69.0739 2.23999 68.9019C3.62537 67.8597 4.81355 66.5784 5.74855 65.1183C7.09225 63.9235 8.23688 62.4051 9.38152 61.1356C11.8699 58.4722 14.184 55.3856 16.5479 52.4982C18.9118 49.6107 21.1513 46.3001 23.7143 43.3878C26.2773 40.4755 30.3831 40.8986 33.4935 39.7536C34.3084 39.5337 35.1669 39.5337 35.9818 39.7536C36.44 39.8103 36.9051 39.7563 37.3381 39.596C37.771 39.4358 38.1593 39.174 38.4702 38.8326C39.0922 38.3597 39.9134 37.5133 40.7346 37.5631C41.5939 37.7336 42.4859 37.5641 43.2229 37.0902C43.9445 36.5426 46.2089 34.601 46.5821 36.2687C46.6684 36.6387 46.8321 36.9863 47.0624 37.2884C47.2927 37.5905 47.5844 37.8403 47.9183 38.0214C48.2521 38.2025 48.6206 38.3108 48.9994 38.339C49.3781 38.3673 49.7585 38.315 50.1156 38.1854C51.3597 37.6129 53.1265 36.4679 54.3209 37.4636C55.5153 38.4592 58.0036 37.4636 59.1731 36.2687C60.4765 35.2607 61.3625 33.8072 61.6615 32.1865C61.6615 31.4895 62.9305 31.0913 63.5028 30.9419C64.0751 30.7926 65.0705 30.2449 65.9912 30.0956C67.4842 29.8218 66.1902 31.7633 65.9912 32.2612C65.449 32.9583 65.0601 33.7622 64.85 34.6201C64.6399 35.478 64.6133 36.3706 64.7719 37.2395C64.9523 37.5923 65.2065 37.9021 65.5172 38.1479C65.8279 38.3938 66.1878 38.5699 66.5725 38.6643C66.9572 38.7588 67.3577 38.7693 67.7468 38.6953C68.136 38.6212 68.5047 38.4643 68.8279 38.2352C70.5078 37.143 71.7771 35.523 72.436 33.6302C72.6682 32.8161 72.6824 31.9552 72.4771 31.1339C72.2719 30.3125 71.8543 29.5596 71.2664 28.9506C69.8979 27.6313 72.635 25.7893 73.6304 25.0426C75.1344 23.783 76.5634 22.4365 77.9103 21.0101C78.3582 20.562 80.0751 18.8445 78.6319 18.5209C77.8605 18.5209 80.1249 18.8196 78.6319 18.5209L78.5573 18.496ZM18.3893 47.47C17.3437 49.2829 16.1271 50.9916 14.7563 52.5729C13.4126 54.4397 11.6708 55.9581 10.3271 57.8001C8.92349 59.6311 7.4024 61.3689 5.77343 63.0025C5.07669 63.7493 4.42973 64.5209 3.75788 65.3175C3.08603 66.114 2.98649 66.1638 2.36441 66.0891C1.74232 66.0144 2.14046 65.0436 2.36441 64.5956C2.61383 63.7352 2.94721 62.9015 3.35974 62.1064C4.00165 61.1259 4.59138 60.1123 5.12646 59.0696C6.53365 56.992 8.15134 55.0651 9.95383 53.3196C11.5143 51.4356 13.3127 49.7622 15.3038 48.3413C16.0751 47.7103 16.9089 47.1598 17.7921 46.6984C18.7377 46.1757 18.9865 46.4495 18.5137 47.3456C18.5137 47.5447 18.6381 47.1216 18.5137 47.3456L18.3893 47.47ZM39.8139 36.2439C39.5153 36.5426 37.5744 38.0112 37.7734 36.6421C38.0226 35.8024 38.506 35.0511 39.1669 34.4765C39.5153 34.1032 40.9087 32.4354 41.2073 33.4809C41.5059 34.5263 40.3364 35.6962 39.8139 36.2439ZM60.0192 33.1324C59.845 34.1778 58.7999 34.8997 58.0036 35.4224C57.6801 35.6216 55.2664 36.7168 56.0129 35.298C56.5028 34.5301 57.1167 33.8487 57.8294 33.2817C58.2276 32.9084 60.3178 31.4397 60.0192 33.1324C60.0192 32.8337 60.0192 33.1324 60.0192 33.1324ZM71.0425 32.8337C70.8766 33.7082 70.4934 34.5268 69.9281 35.2141C69.3627 35.9015 68.6335 36.4353 67.8076 36.7666C66.2898 37.5133 65.9165 35.5469 66.3146 34.4765C66.7893 32.9071 67.644 31.4792 68.803 30.3196C70.5697 28.9008 71.2913 31.6389 71.142 32.8088" fill="#393937"/>
<path d="M163.907 48.6138C164.479 48.6138 165.3 48.6138 165.674 49.1365C166.296 50.0824 165.325 50.8042 164.454 50.854C163.583 50.9038 163.907 50.854 163.907 50.2068V48.6138ZM163.907 51.551C165.425 51.551 167.042 50.8789 166.395 49.0618C165.972 47.7425 164.156 47.9168 163.061 47.9168V53.7415C163.061 54.3638 163.21 54.1895 163.832 54.1895V51.551" fill="#393937"/>
<path d="M176.398 51.9H174.184C174.557 51.0537 174.93 50.2074 175.278 49.4109L176.398 51.9ZM176.722 52.597L177.319 53.8914C177.518 54.3145 177.817 54.1901 178.289 54.1901C177.294 51.9996 176.274 49.834 175.278 47.6436L172.292 54.1901C172.765 54.1901 173.064 54.3394 173.263 53.8914C173.462 53.4433 173.611 52.7713 173.86 52.597C174.289 52.5347 174.725 52.5347 175.154 52.597H176.672" fill="#393937"/>
<path d="M185.954 48.615C186.551 48.615 187.347 48.615 187.72 49.1378C188.342 50.1085 187.372 50.8055 186.526 50.8802C185.68 50.9549 185.978 50.8802 185.978 50.2081C185.978 49.536 185.978 49.1378 185.978 48.615H185.954ZM187.123 51.4527C187.422 51.4095 187.704 51.2906 187.944 51.1072C188.184 50.9238 188.372 50.682 188.492 50.405C188.612 50.128 188.659 49.8249 188.628 49.5246C188.597 49.2244 188.491 48.9369 188.317 48.6897C187.646 47.694 186.252 47.9181 185.207 47.9181V54.1659C186.202 54.1659 186.003 54.0414 186.003 53.0956C186.003 53.0956 186.003 51.0046 186.327 51.5523L187.72 53.5436C188.193 54.2406 188.243 54.1659 189.114 54.1659L187.123 51.4527Z" fill="#393937"/>
<path d="M196.828 54.1651C196.355 54.1651 196.056 54.3642 196.056 53.8415V47.9173C196.529 47.9173 196.828 47.7181 196.828 48.216V54.1651Z" fill="#393937"/>
<path d="M207.179 49.0865C206.358 47.7175 204.268 49.0865 205.512 50.0324C206.756 50.9783 207.751 50.6796 208 51.9989C208.049 52.3118 208.022 52.6318 207.922 52.9323C207.822 53.2327 207.651 53.505 207.425 53.7265C207.199 53.9479 206.923 54.1122 206.621 54.2057C206.318 54.2992 205.998 54.3192 205.686 54.264C205.379 54.2089 205.09 54.0806 204.843 53.8899C204.596 53.6993 204.399 53.4519 204.268 53.1688C203.919 52.422 204.268 52.4967 204.865 52.3723C204.875 52.6288 204.968 52.8753 205.129 53.0751C205.29 53.275 205.511 53.4176 205.76 53.4818C206.008 53.546 206.271 53.5285 206.508 53.4318C206.746 53.335 206.946 53.1643 207.08 52.9448C207.702 51.7997 206.532 51.3517 205.736 50.9783C202.377 49.5346 206.358 46.1244 207.826 48.7132L207.204 49.0865" fill="#393937"/>
</svg>
