<svg width="167" height="25" viewBox="0 0 167 25" fill="none" xmlns="http://www.w3.org/2000/svg">
<path d="M39.3657 0H29.6298L22.3528 22.0867L16.7894 8.41634L23.5697 0H15.796L8.34503 9.73606V0H0V24.9004H8.24569V18.4263L10.4313 15.8118L13.7594 24.9004H28.2142L29.2076 21.3147H36.6585L37.5278 24.9004H46.6179L39.3657 0ZM30.8468 15.4382L33.1566 7.12151L35.1684 15.4382H30.8468Z" fill="#1D1D1B"/>
<path d="M47.8599 0.0751953V24.9258H62.712V19.0742H56.2794V0.0751953H47.8599Z" fill="#1D1D1B"/>
<path d="M84.4438 3.63614C83.5699 2.49042 82.4413 1.56513 81.1477 0.933971C79.8541 0.302814 78.4314 -0.0167693 76.9929 0.000677836H64.5747V24.9011H75.7014C77.3116 24.9124 78.9058 24.5809 80.3786 23.9284C81.8515 23.2759 83.1694 22.3174 84.2451 21.1162C86.0539 18.5115 86.9294 15.3693 86.7288 12.2019C86.8492 9.1806 86.0525 6.19378 84.4438 3.63614ZM77.2661 17.0326C77.0436 17.6419 76.6367 18.1663 76.1023 18.5324C75.568 18.8985 74.9328 19.088 74.2857 19.0744H72.9446V6.10128H74.8321C75.526 6.18956 76.1709 6.50653 76.6654 7.00234C77.1599 7.49816 77.4761 8.14471 77.5642 8.84032C77.7997 10.1208 77.8913 11.4238 77.8374 12.7248C77.9786 14.1938 77.7833 15.6757 77.2661 17.0575" fill="#1D1D1B"/>
<path d="M88.7405 0.0263672V24.9268H104.834V19.1499H97.0607V15.2903H103.916V9.53832H97.011V5.82816H104.487V0.0263672H88.7405Z" fill="#1D1D1B"/>
<path d="M106.027 0.076168L110.373 25.0015H119.19L121.798 12.377L124.207 24.9517H133.098L138.19 0.076168H132.179L129.348 14.3192L126.889 0.0263672H119.488L116.408 14.4188L114.247 0.076168H106.027Z" fill="#1D1D1B"/>
<path d="M139.605 0.0263672V25.0015H155.774V19.1499H148V15.2654H154.93V9.53832H148.05V5.82816H155.476V0.0263672H139.605Z" fill="#1D1D1B"/>
<path d="M158.531 0.0263672V24.9517H167V0.076168L158.531 0.0263672Z" fill="#1D1D1B"/>
</svg>
