<svg width="161" height="84" viewBox="0 0 161 84" fill="none" xmlns="http://www.w3.org/2000/svg">
<path d="M15.023 82.4582C13.9897 83.4864 12.7179 84.0005 11.2872 84.0005C9.4987 84.0005 8.10769 83.4073 7.15385 82.2209C6.16027 81.0344 5.68335 79.3339 5.68335 77.1192C5.68335 75.6163 5.92181 74.3113 6.39873 73.2435C6.87565 72.1757 7.55128 71.3452 8.38589 70.7915C9.26024 70.2378 10.2538 69.961 11.3666 69.961C12.7974 69.961 13.9897 70.4355 15.023 71.3452V64.7406C15.023 64.0683 15.5794 63.5146 16.2153 63.5146C16.891 63.5146 17.4076 64.0683 17.4076 64.7406V82.735C17.4076 83.2096 17.0102 83.5655 16.573 83.5655H15.8974C15.4205 83.5655 15.0628 83.17 15.0628 82.735V82.4582H15.023ZM14.9833 73.4808C14.3871 72.9271 13.8705 72.5316 13.3538 72.3339C12.8769 72.1361 12.3205 72.0175 11.7243 72.0175C10.6115 72.0175 9.73716 72.4525 9.14101 73.283C8.54487 74.1135 8.22692 75.3 8.22692 76.8423C8.22692 80.2435 9.41922 81.944 11.8436 81.944C12.6782 81.944 13.4333 81.7463 14.0692 81.3904C14.7051 80.9949 15.023 80.5994 15.023 80.0853V73.4808H14.9833Z" fill="#393937"/>
<path d="M42.565 82.1412C41.9689 82.7345 41.2932 83.1695 40.6176 83.4463C39.942 83.7232 39.1471 83.8418 38.233 83.8418C36.8817 83.8418 35.8484 83.4859 35.0933 82.8136C34.3382 82.1412 33.9805 81.1525 33.9805 79.887C33.9805 78.3842 34.6164 77.1977 35.8881 76.4068C37.1599 75.5763 38.9484 75.1412 41.2535 75.0621C41.8099 75.0621 42.2073 75.0621 42.4458 75.1017V74.6667C42.4458 73.7175 42.2073 73.0452 41.7304 72.6497C41.2535 72.2542 40.4984 72.0565 39.465 72.0565C38.7099 72.0565 38.074 72.1356 37.4779 72.3333C37.1599 72.4124 36.842 72.5706 36.4843 72.7288C36.4843 72.7288 36.2458 72.887 36.1663 72.9266C36.0074 73.0056 35.8881 73.0452 35.6894 73.0452C35.133 73.0452 34.6958 72.6102 34.6958 72.0565C34.6958 71.7797 34.8151 71.5028 35.0138 71.3051C35.1728 71.1469 35.3715 71.0283 35.5702 70.9096C36.0869 70.6328 36.7228 70.3955 37.4779 70.2373C38.233 70.0791 38.9881 70 39.783 70C41.5714 70 42.8432 70.3955 43.6381 71.1469C44.433 71.8983 44.8304 73.1638 44.8304 74.9831V80.5593V82.8136C44.8304 83.2881 44.433 83.6441 43.9958 83.6441H43.3599C42.883 83.6441 42.5253 83.2486 42.5253 82.8136V82.1412H42.565ZM42.5253 76.8814H41.6907C39.9817 76.8814 38.6702 77.1186 37.7561 77.5932C36.842 78.0678 36.4048 78.7797 36.4048 79.7288C36.4048 80.4407 36.6035 80.9548 37.001 81.3107C37.3984 81.6667 37.9945 81.8644 38.7894 81.8644C39.4253 81.8644 40.0214 81.7458 40.5779 81.5085C41.174 81.2712 41.6112 80.9944 41.9689 80.678C42.3266 80.322 42.4855 80.0452 42.4855 79.7288V76.8814H42.5253Z" fill="#393937"/>
<path d="M0 82.7746C0 83.2492 0.397433 83.6051 0.834609 83.6051H1.66922C2.14614 83.6051 2.50383 83.2096 2.50383 82.7746V65.8481C2.50383 65.1757 1.94742 64.6221 1.27178 64.6221C0.596149 64.6221 0.0397433 65.1757 0.0397433 65.8481V65.9667L0 82.7746Z" fill="#393937"/>
<path d="M29.9266 81.2316C29.1715 81.7458 28.2177 81.9831 27.1446 81.9831C25.8331 81.9831 24.7997 81.5876 24.0844 80.7966C23.369 80.0057 22.9715 78.8588 22.9318 77.3955H31.1984C31.6356 77.3955 31.9933 77.0395 31.9933 76.6045V75.8136C31.9933 74.6667 31.7946 73.6384 31.3574 72.7684C30.9202 71.8983 30.3241 71.1864 29.4894 70.7119C28.6548 70.2373 27.701 70 26.5484 70C25.3959 70 24.3626 70.2768 23.4087 70.8305C22.4549 71.3842 21.7395 72.1751 21.2228 73.1638C20.7062 74.1921 20.428 75.4181 20.428 76.8418C20.428 79.1751 20.9844 80.9548 22.0972 82.1808C23.21 83.4068 24.7997 84 26.9061 84C28.6548 84 30.0459 83.6045 31.0394 82.8531C31.1984 82.7345 31.3574 82.5763 31.4766 82.4576C31.5561 82.3785 31.5561 82.2994 31.5561 82.2994C31.6356 82.1412 31.6753 81.9831 31.6753 81.8249C31.6753 81.2712 31.2381 80.8362 30.6817 80.8362C30.4433 80.8362 30.2446 80.9153 30.0856 81.0339C30.1253 81.0734 30.0459 81.1525 29.9266 81.2316ZM29.5689 75.2203C29.5689 75.4181 29.41 75.6158 29.1715 75.6158H22.9318C23.0113 74.5085 23.369 73.6384 23.9651 72.9661C24.601 72.3333 25.3959 71.9774 26.3895 71.9774C28.4164 71.9774 29.4497 73.0452 29.5689 75.2203Z" fill="#393937"/>
<path d="M100.034 70.8701L100.312 71.661C100.829 71.1469 101.504 70.7119 102.259 70.435C103.014 70.1582 103.849 70 104.763 70C105.916 70 106.87 70.2373 107.585 70.7514C108.3 71.2655 108.817 71.9774 109.055 72.9661C109.175 73.4802 109.254 74.3503 109.254 75.5763V82.8531C109.254 83.2881 108.896 83.6441 108.459 83.6441H107.585C107.148 83.6441 106.79 83.2881 106.79 82.8531V75.6949C106.79 74.7853 106.75 74.113 106.631 73.7571C106.472 73.2429 106.194 72.8475 105.757 72.6102C105.32 72.3729 104.723 72.2542 103.968 72.2542C103.293 72.2542 102.657 72.3333 102.14 72.5311C101.584 72.7288 101.186 72.9661 100.868 73.2825C100.55 73.5989 100.431 73.9153 100.431 74.2712V82.9322C100.431 83.3672 100.073 83.7232 99.6363 83.7232H98.7619C98.3247 83.7232 97.967 83.3672 97.967 82.9322V71.3446C97.967 70.791 98.444 70.3164 99.0004 70.3164C99.517 70.1977 99.8747 70.4746 100.034 70.8701Z" fill="#393937"/>
<path d="M71.1801 65.6898C71.498 65.9271 71.7365 66.2831 71.7365 66.6785C71.7365 67.3113 71.2198 67.8254 70.5839 67.8254C70.3455 67.8254 70.107 67.7463 69.9083 67.5881C69.7891 67.509 69.5506 67.3509 69.4314 67.3113C69.0737 67.1136 68.7557 66.9554 68.3186 66.8367C67.6429 66.5994 66.9276 66.4808 66.2519 66.4808C65.0994 66.4808 64.225 66.7181 63.6289 67.2322C63.0327 67.7463 62.7148 68.4187 62.7148 69.3283C62.7148 69.8424 62.834 70.2774 63.0725 70.6729C63.3109 71.0684 63.7083 71.4243 64.2648 71.7011C64.8212 72.0175 65.6955 72.3735 66.8878 72.7294C68.5968 73.2831 69.8686 73.9949 70.6634 74.9045C71.4583 75.8141 71.8557 76.9215 71.8557 78.2661C71.8557 80.0458 71.2993 81.4695 70.1468 82.4978C68.9942 83.526 67.4442 84.0401 65.4571 84.0401C64.4237 84.0401 63.4301 83.9215 62.5558 83.6842C61.6417 83.4469 60.9661 83.1701 60.4494 82.7746C60.2507 82.656 59.9327 82.3791 59.8533 82.2209C59.734 82.0232 59.6545 81.8254 59.6545 81.5486C59.6545 80.9158 60.1712 80.4017 60.8071 80.4017C61.0456 80.4017 61.2443 80.4808 61.4032 80.5599C61.4032 80.5599 61.602 80.6785 61.7609 80.7972C62.1584 81.0345 62.5558 81.1927 62.9532 81.3509C63.7878 81.6672 64.6622 81.8254 65.4968 81.8254C66.7288 81.8254 67.7224 81.5486 68.3583 80.9554C69.0339 80.3622 69.3519 79.5712 69.3519 78.5825C69.3519 77.9497 69.2327 77.4356 68.9942 76.961C68.7557 76.526 68.3981 76.1305 67.8814 75.7746C67.3647 75.4582 66.6096 75.1023 65.5763 74.7859C64.1455 74.3904 63.0725 73.9158 62.3571 73.4808C61.6417 73.0062 61.0853 72.4526 60.7276 71.7802C60.3699 71.1079 60.1712 70.3565 60.1712 69.4469C60.1712 68.3396 60.4097 67.43 60.9263 66.639C61.443 65.848 62.1584 65.2548 63.0725 64.8593C63.9866 64.4639 65.0596 64.2266 66.2519 64.2266C67.007 64.2266 67.8019 64.3057 68.5968 64.5034C69.9878 64.9384 70.9814 65.5712 71.1801 65.6898Z" fill="#393937"/>
<path d="M121.654 82.4582C120.621 83.4864 119.349 84.0005 117.918 84.0005C116.13 84.0005 114.739 83.4073 113.785 82.2209C112.791 81.0344 112.314 79.3339 112.314 77.1192C112.314 75.6163 112.553 74.3113 113.03 73.2435C113.507 72.1757 114.182 71.3452 115.017 70.7915C115.891 70.2378 116.885 69.961 117.998 69.961C119.428 69.961 120.621 70.4355 121.654 71.3452V64.7406C121.654 64.0683 122.211 63.5146 122.846 63.5146C123.522 63.5146 124.039 64.0683 124.039 64.7406V82.735C124.039 83.2096 123.641 83.5655 123.204 83.5655H122.528C122.052 83.5655 121.694 83.17 121.694 82.735V82.4582H121.654ZM121.614 73.4808C121.018 72.9271 120.502 72.5316 119.985 72.3339C119.508 72.1361 118.952 72.0175 118.355 72.0175C117.243 72.0175 116.368 72.4525 115.772 73.283C115.176 74.1135 114.858 75.3 114.858 76.8423C114.858 80.2435 116.05 81.944 118.475 81.944C119.309 81.944 120.064 81.7463 120.7 81.3904C121.336 80.9949 121.654 80.5994 121.654 80.0853V73.4808H121.614Z" fill="#393937"/>
<path d="M92.244 82.1412C91.6478 82.7345 90.9722 83.1695 90.2965 83.4463C89.6209 83.7232 88.826 83.8418 87.912 83.8418C86.5607 83.8418 85.5274 83.4859 84.7722 82.8136C84.0171 82.1412 83.6594 81.1525 83.6594 79.887C83.6594 78.3842 84.2953 77.1977 85.5671 76.4068C86.8389 75.5763 88.6273 75.1412 90.9324 75.0621C91.4888 75.0621 91.8863 75.0621 92.1247 75.1017V74.6667C92.1247 73.7175 91.8863 73.0452 91.4094 72.6497C90.9324 72.2542 90.1773 72.0565 89.144 72.0565C88.3889 72.0565 87.753 72.1356 87.1568 72.3333C86.8389 72.4124 86.5209 72.5706 86.1633 72.7288C86.1633 72.7288 85.9248 72.887 85.8453 72.9266C85.6863 73.0056 85.5671 73.0452 85.3684 73.0452C84.812 73.0452 84.3748 72.6102 84.3748 72.0565C84.3748 71.7797 84.494 71.5028 84.6928 71.3051C84.8517 71.1469 85.0504 71.0283 85.2492 70.9096C85.7658 70.6328 86.4017 70.3955 87.1568 70.2373C87.912 70.0791 88.6671 70 89.4619 70C91.2504 70 92.5222 70.3955 93.317 71.1469C94.1119 71.8983 94.5093 73.1638 94.5093 74.9831V80.5593V82.8136C94.5093 83.2881 94.1119 83.6441 93.6747 83.6441H93.0388C92.5619 83.6441 92.2042 83.2486 92.2042 82.8136V82.1412H92.244ZM92.2042 76.8814H91.3696C89.6607 76.8814 88.3491 77.1186 87.435 77.5932C86.5209 78.0678 86.0838 78.7797 86.0838 79.7288C86.0838 80.4407 86.2825 80.9548 86.6799 81.3107C87.0773 81.6667 87.6735 81.8644 88.4684 81.8644C89.1043 81.8644 89.7004 81.7458 90.2568 81.5085C90.853 81.2712 91.2901 80.9944 91.6478 80.678C92.0055 80.322 92.1645 80.0452 92.1645 79.7288V76.8814H92.2042Z" fill="#393937"/>
<path d="M135.485 82.1412C134.889 82.7345 134.213 83.1695 133.537 83.4463C132.862 83.7232 132.067 83.8418 131.153 83.8418C129.801 83.8418 128.768 83.4859 128.013 82.8136C127.258 82.1412 126.9 81.1525 126.9 79.887C126.9 78.3842 127.536 77.1977 128.808 76.4068C130.08 75.5763 131.868 75.1412 134.173 75.0621C134.73 75.0621 135.127 75.0621 135.365 75.1017V74.6667C135.365 73.7175 135.127 73.0452 134.65 72.6497C134.173 72.2542 133.418 72.0565 132.385 72.0565C131.63 72.0565 130.994 72.1356 130.398 72.3333C130.08 72.4124 129.762 72.5706 129.404 72.7288C129.404 72.7288 129.166 72.887 129.086 72.9266C128.927 73.0056 128.808 73.0452 128.609 73.0452C128.053 73.0452 127.616 72.6102 127.616 72.0565C127.616 71.7797 127.735 71.5028 127.933 71.3051C128.092 71.1469 128.291 71.0283 128.49 70.9096C129.007 70.6328 129.642 70.3955 130.398 70.2373C131.153 70.0791 131.908 70 132.703 70C134.491 70 135.763 70.3955 136.558 71.1469C137.353 71.8983 137.75 73.1638 137.75 74.9831V80.5593V82.8136C137.75 83.2881 137.353 83.6441 136.915 83.6441H136.319C135.842 83.6441 135.485 83.2486 135.485 82.8136V82.1412ZM135.405 76.8814H134.571C132.862 76.8814 131.55 77.1186 130.636 77.5932C129.722 78.0678 129.285 78.7797 129.285 79.7288C129.285 80.4407 129.483 80.9548 129.881 81.3107C130.278 81.6667 130.874 81.8644 131.669 81.8644C132.305 81.8644 132.901 81.7458 133.458 81.5085C134.054 81.2712 134.491 80.9944 134.849 80.678C135.206 80.322 135.365 80.0452 135.365 79.7288V76.8814H135.405Z" fill="#393937"/>
<path d="M158.655 82.4582C157.622 83.4864 156.35 84.0005 154.919 84.0005C153.131 84.0005 151.74 83.4073 150.786 82.2209C149.792 81.0344 149.315 79.3339 149.315 77.1192C149.315 75.6163 149.554 74.3113 150.031 73.2435C150.508 72.1757 151.183 71.3452 152.018 70.7915C152.892 70.2378 153.886 69.961 154.999 69.961C156.429 69.961 157.622 70.4355 158.655 71.3452V64.7406C158.655 64.0683 159.211 63.5146 159.847 63.5146C160.523 63.5146 161.04 64.0683 161.04 64.7406V82.735C161.04 83.2096 160.642 83.5655 160.205 83.5655H159.529C159.053 83.5655 158.695 83.17 158.695 82.735V82.4582H158.655ZM158.576 73.4808C157.979 72.9271 157.463 72.5316 156.946 72.3339C156.469 72.1361 155.913 72.0175 155.317 72.0175C154.204 72.0175 153.329 72.4525 152.733 73.283C152.137 74.1135 151.819 75.3 151.819 76.8423C151.819 80.2435 153.012 81.944 155.436 81.944C156.27 81.944 157.026 81.7463 157.662 81.3904C158.297 80.9949 158.615 80.5994 158.615 80.0853V73.4808H158.576Z" fill="#393937"/>
<path d="M81.9506 82.8929C82.1493 82.6951 82.2686 82.4578 82.2686 82.1415C82.2686 81.7855 82.0699 81.4691 81.7917 81.311C81.6327 81.2319 81.434 81.1528 81.2352 81.1528C80.9968 81.1528 80.8378 81.2319 80.6391 81.3505C80.4404 81.4691 80.2019 81.6273 79.9237 81.746C79.6058 81.9042 79.2878 81.9437 78.9699 81.9437C77.7378 81.9437 77.1417 81.1528 77.1417 79.6104V72.3336H80.5199C80.9968 72.3336 81.3545 71.9381 81.3545 71.503V71.1471C81.3545 70.6725 80.957 70.3166 80.5199 70.3166H77.1417V67.4296C77.1417 66.7573 76.5853 66.2432 75.9494 66.2432C75.2737 66.2432 74.7571 66.7968 74.7571 67.4296V79.4917C74.7571 80.5991 74.8366 81.3901 75.0353 81.9042C75.5519 83.3279 76.7442 84.0398 78.6519 84.0398C79.2481 84.0398 79.8045 83.9607 80.3609 83.8025C81.1558 83.5652 81.6724 83.1697 81.9506 82.8929Z" fill="#393937"/>
<path d="M147.169 72.492C147.288 72.5316 147.447 72.5711 147.606 72.5711C148.282 72.5711 148.799 72.0174 148.799 71.3847C148.799 70.9496 148.56 70.5937 148.242 70.3564C148.004 70.1982 147.686 70.1191 147.328 70.0796C147.13 70.04 146.891 70.04 146.613 70.04C146.017 70.04 145.421 70.1982 144.864 70.4751C144.308 70.7914 143.831 71.1474 143.513 71.6615L143.235 70.8705C143.076 70.4751 142.718 70.1982 142.241 70.1982C141.685 70.1982 141.208 70.6728 141.208 71.2265V82.8536C141.208 83.2886 141.565 83.6446 142.003 83.6446H142.877C143.314 83.6446 143.672 83.2886 143.672 82.8536V74.2321C143.672 73.7575 143.91 73.3225 144.427 72.927C144.904 72.5316 145.5 72.3338 146.136 72.3338C146.533 72.2943 146.812 72.4129 147.169 72.492Z" fill="#393937"/>
<path d="M50.911 81.5095C50.6726 81.2722 50.5931 81.0349 50.5931 80.4417V66.8767V64.7411C50.5931 64.0688 50.0367 63.5547 49.4008 63.5547C48.7252 63.5547 48.2085 64.1084 48.2085 64.7411V66.8767V80.5208C48.2085 81.1931 48.288 81.7863 48.447 82.2214C48.6059 82.6564 48.8444 83.0123 49.1623 83.2496C49.4803 83.4869 49.838 83.6451 50.3149 83.7637C50.7521 83.8428 51.3085 83.8428 51.8649 83.8033C52.4213 83.8033 52.8585 83.4474 52.8585 82.8937C52.8585 82.34 52.5008 82.0236 52.0239 81.9445C51.6662 81.7863 51.1098 81.6677 50.911 81.5095Z" fill="#393937"/>
<path d="M93.357 0C80.9571 0 67.6829 9.41243 67.6829 25.548C67.6829 29.9379 68.8752 34.209 70.9816 38.0056C71.0213 38.0847 71.1008 38.2034 71.22 38.4011C71.8956 39.4294 73.2469 39.7853 74.3597 39.1525C75.4328 38.5593 75.8302 37.2542 75.3533 36.1469C75.3136 36.0678 75.2341 35.9096 75.2341 35.8701C73.4059 32.7062 72.3328 29.1864 72.3328 25.5085C72.3328 13.4068 81.593 4.38983 93.3173 4.38983C104.803 4.38983 114.302 13.2486 114.302 25.5085C114.302 37.3333 105.399 46.5876 93.3173 46.5876C93.2775 46.5876 93.1583 46.5876 93.1583 46.5876C91.9263 46.5876 90.9327 47.5763 90.9327 48.8023C90.9327 50.0282 91.9263 51.0169 93.1583 51.0169C93.198 51.0169 93.2775 51.0169 93.3173 51.0169C106.83 51.0169 118.991 40.339 118.991 25.4689C119.031 9.37288 105.717 0 93.357 0Z" fill="#393937"/>
<path d="M90.1377 13.0508C90.098 12.9718 89.9788 12.774 89.8595 12.6158C89.4621 11.9435 88.707 11.4689 87.8326 11.4689C86.5211 11.4689 85.4878 12.5367 85.4878 13.8023C85.4878 14.2373 85.607 14.6328 85.8057 14.9492C85.8455 14.9887 85.8852 15.0678 85.925 15.1469C87.7531 18.3107 88.7865 21.8701 88.7865 25.548C88.7865 37.6102 79.9237 46.6667 67.7623 46.6667C55.9585 46.6667 46.7778 37.2542 46.7778 25.548C46.7778 13.7232 55.9983 4.54802 67.7623 4.54802C67.8418 4.54802 67.8815 4.54802 67.9213 4.54802C69.193 4.54802 70.1866 3.51977 70.1866 2.29379C70.1866 1.0678 69.193 0 67.9213 0C67.8815 0 67.802 0 67.7623 0C54.2496 0 42.0881 10.678 42.0881 25.548C42.0881 41.7232 55.6803 51.096 67.7623 51.096C80.1622 51.096 93.4364 41.6836 93.4364 25.548C93.4364 21.1582 92.2839 16.8475 90.1377 13.0508Z" fill="#393937"/>
</svg>
