<svg width="90" height="47" viewBox="0 0 90 47" fill="none" xmlns="http://www.w3.org/2000/svg">
<path d="M29.0883 5.40599H23.1475C18.392 5.45161 13.848 7.38043 10.5084 10.7709C7.16876 14.1614 5.30521 18.7378 5.32497 23.5C5.32497 32.3619 12.7202 41.594 21.9889 41.594H23.7145V26.5362H14.5197V21.1056H29.113V46.9013H23.1228C16.9638 46.8491 11.0754 44.3591 6.74332 39.9747C2.4112 35.5903 -0.0128382 29.6678 0.000403649 23.5C-0.045578 17.3217 2.35801 11.3774 6.6837 6.9717C11.0094 2.56598 16.9038 0.0586713 23.0735 0L29.0883 0V5.40599Z" fill="#1D1D1B"/>
<path d="M70.2054 5.43033C64.5357 5.43033 65.645 10.5648 67.3706 13.5517C68.8003 16.0201 70.1808 18.2418 71.8077 20.9571C75.2342 26.8568 77.1569 32.3615 74.5933 37.9403C71.4873 44.6299 66.5571 46.3578 60.493 46.9009V41.5937C62.4397 41.5868 64.343 41.017 65.9742 39.9529C67.6053 38.8888 68.8948 37.3756 69.6877 35.5952C73.2375 27.8195 61.4544 18.3158 60.5177 10.9104C60.3171 9.54202 60.4163 8.14634 60.8086 6.82028C61.2008 5.49421 61.8766 4.26954 62.7891 3.23134C63.7015 2.19314 64.8287 1.36629 66.0924 0.808219C67.3561 0.25015 68.7259 -0.025759 70.1068 -0.00034397H72.8184V5.43033H70.2054Z" fill="#1D1D1B"/>
<path d="M31.356 0H45.0125L45.0371 5.40599H36.8038V8.88655H41.3395V14.3172H36.8038V41.594H45.0125V47H31.356V0Z" fill="#1D1D1B"/>
<path d="M82.6788 0H77.3049V47H82.6788V0Z" fill="#1D1D1B"/>
<path d="M56.6969 5.43071C51.0026 5.43071 52.1365 10.5652 53.8621 13.552C55.2672 16.0205 56.6723 18.2422 58.2992 20.9575C61.701 26.8572 63.6484 32.3619 61.0848 37.9407C57.9295 44.6303 52.8514 46.3582 46.8366 46.9013V41.5941C48.7826 41.5841 50.6846 41.0131 52.3152 39.9494C53.9458 38.8856 55.2359 37.3742 56.0313 35.5956C59.5811 27.8199 47.798 18.3162 46.8613 10.9108C46.6591 9.53399 46.7605 8.12958 47.1584 6.79627C47.5563 5.46296 48.241 4.2331 49.1644 3.19316C50.0877 2.15321 51.2274 1.32842 52.5032 0.776771C53.779 0.22512 55.1599 -0.0400031 56.549 3.97479e-05H59.162V5.43071H56.6969Z" fill="#1D1D1B"/>
<path d="M86.475 2.73948V1.57929H87.2146C87.6336 1.57929 88.028 1.57929 88.028 2.14704C88.028 2.7148 87.5104 2.73948 87.0173 2.73948H86.475ZM86.475 3.08507H87.1652L88.102 4.56616H88.595L87.5843 3.08507C87.7009 3.07876 87.8151 3.04948 87.9204 2.99889C88.0257 2.9483 88.1199 2.8774 88.1978 2.79026C88.2757 2.70312 88.3356 2.60144 88.3741 2.49107C88.4127 2.38069 88.4291 2.26378 88.4224 2.14704C88.4224 1.55461 88.102 1.2337 87.3378 1.2337H86.056V4.56616H86.475V3.08507ZM87.1159 0.419103C87.7697 0.419103 88.3967 0.679175 88.859 1.14211C89.3213 1.60504 89.581 2.23291 89.581 2.88759C89.581 3.54227 89.3213 4.17014 88.859 4.63307C88.3967 5.09601 87.7697 5.35608 87.1159 5.35608C86.4622 5.35608 85.8352 5.09601 85.3729 4.63307C84.9106 4.17014 84.6509 3.54227 84.6509 2.88759C84.6509 2.23291 84.9106 1.60504 85.3729 1.14211C85.8352 0.679175 86.4622 0.419103 87.1159 0.419103ZM87.1159 -0.00053956C86.7342 -0.00714582 86.355 0.0628617 86.0008 0.205354C85.6465 0.347846 85.3243 0.559937 85.0532 0.829119C84.7821 1.0983 84.5676 1.41912 84.4222 1.77266C84.2769 2.1262 84.2038 2.50529 84.2071 2.88759C84.1699 3.29097 84.2172 3.69769 84.3458 4.08176C84.4745 4.46583 84.6817 4.81881 84.9543 5.11814C85.2269 5.41747 85.5588 5.65657 85.9289 5.82017C86.299 5.98377 86.6991 6.06827 87.1036 6.06827C87.5082 6.06827 87.9083 5.98377 88.2783 5.82017C88.6484 5.65657 88.9804 5.41747 89.2529 5.11814C89.5255 4.81881 89.7328 4.46583 89.8614 4.08176C89.9901 3.69769 90.0373 3.29097 90.0001 2.88759C90.0068 2.50647 89.9367 2.12791 89.7942 1.77449C89.6516 1.42106 89.4394 1.10001 89.1702 0.830477C88.9011 0.560946 88.5804 0.348456 88.2275 0.205682C87.8746 0.0629073 87.4965 -0.00722737 87.1159 -0.00053956Z" fill="#1D1D1B"/>
</svg>
