<svg width="94" height="45" viewBox="0 0 94 45" fill="none" xmlns="http://www.w3.org/2000/svg">
<path d="M20.1235 21.6862H42.3458V23.1171C42.3928 26.0274 42.0101 28.9287 41.21 31.7273C40.407 34.1251 39.1213 36.3332 37.4322 38.2158C35.531 40.4014 33.1717 42.1421 30.5218 43.3146C27.8719 44.4871 24.9963 45.0626 22.0989 45.0004C19.1975 45.033 16.3207 44.467 13.6483 43.3378C10.9759 42.2086 8.56556 40.5405 6.56799 38.4379C4.46474 36.3893 2.79848 33.9363 1.66968 31.2269C0.54089 28.5175 -0.0270571 25.6077 8.67911e-05 22.6731C-0.0551994 19.7029 0.501528 16.7532 1.63566 14.0072C2.7698 11.2612 4.4571 8.77764 6.59268 6.71089C8.66968 4.58319 11.1609 2.9032 13.9127 1.77453C16.6645 0.645859 19.6186 0.0924342 22.5927 0.148388C25.8738 0.121331 29.1203 0.820639 32.0989 2.19609C35.2614 3.87127 38.0635 6.15135 40.3458 8.90661L35.7038 13.3474C34.28 11.1994 32.3525 9.43145 30.089 8.19743C27.8254 6.96341 25.2945 6.30065 22.7161 6.26681C20.5707 6.21611 18.4381 6.61093 16.4533 7.4263C14.4684 8.24166 12.6746 9.45981 11.1853 11.0037C9.65813 12.5261 8.45859 14.3444 7.66033 16.3469C6.86207 18.3494 6.48194 20.4938 6.5433 22.6484C6.47938 24.8895 6.91092 27.1171 7.80717 29.1725C8.70342 31.228 10.0423 33.0606 11.7285 34.5398C14.5492 37.2606 18.302 38.8046 22.2223 38.8573C25.401 38.8687 28.4743 37.7193 30.8643 35.6254C32.0592 34.6694 33.0522 33.4858 33.7855 32.1433C34.5188 30.8007 34.9778 29.3259 35.1359 27.8046H20.1235V21.6862Z" fill="#1D1D1B"/>
<path d="M47.2345 34.5388C50.0622 37.0117 53.6121 38.5083 57.358 38.8069C58.298 38.8373 59.2339 38.6708 60.1057 38.3181C60.9774 37.9655 61.7657 37.4344 62.4197 36.7592C63.3244 35.781 63.954 34.581 64.2445 33.2812C64.535 31.9813 64.4762 30.6277 64.074 29.3579C63.8393 28.6525 63.4704 27.9991 62.9876 27.4335C62.434 26.7968 61.7941 26.2404 61.0864 25.7806C60.1859 25.2257 59.245 24.7391 58.2716 24.325L54.0987 22.598C48.1728 20.1309 45.2345 16.4302 45.2345 11.6194C45.225 10.0789 45.5514 8.55483 46.191 7.15312C46.8306 5.75142 47.7681 4.50571 48.9382 3.50261C54.8148 -1.97436 64.4938 -0.444753 69.1358 4.1934L65.4321 8.63419C62.2716 5.27893 55.8271 4.66215 53.2098 7.62268C52.2574 8.72959 51.7707 10.1619 51.8518 11.6194C51.8518 13.7164 53.4321 15.4187 56.5679 16.7016L60.8889 18.4779C63.8571 19.5321 66.5082 21.3235 68.5926 23.6835C70.2465 25.7916 71.1189 28.4068 71.0617 31.0849C71.119 32.9151 70.7953 34.7374 70.111 36.4361C69.4267 38.1348 68.3967 39.673 67.0864 40.9533C65.7878 42.2359 64.2442 43.2442 62.5473 43.9181C60.8505 44.5921 59.0353 44.9178 57.2098 44.876C52.3521 44.6594 47.7083 42.8173 44.0247 39.6457L47.2345 34.5388Z" fill="#1D1D1B"/>
<path d="M83.1357 2.56543H76.6172V44.9503H83.1357V2.56543Z" fill="#1D1D1B"/>
<path d="M87.6298 4.93329C87.6347 4.30491 87.8256 3.69203 88.1785 3.17192C88.5315 2.65181 89.0306 2.24773 89.6131 2.01063C90.1955 1.77353 90.8351 1.71401 91.4514 1.83958C92.0676 1.96515 92.6328 2.27019 93.0758 2.71625C93.5188 3.16231 93.8197 3.72941 93.9406 4.34609C94.0615 4.96276 93.997 5.6014 93.7553 6.1815C93.5135 6.7616 93.1052 7.2572 92.582 7.60583C92.0587 7.95446 91.4439 8.1405 90.815 8.14052C90.3937 8.14386 89.9759 8.063 89.5864 7.9027C89.1968 7.74239 88.8432 7.50588 88.5465 7.20706C88.2497 6.90824 88.0157 6.55315 87.8583 6.16267C87.7009 5.77219 87.6232 5.35421 87.6298 4.93329ZM88.1483 4.93329C88.1385 5.46226 88.2865 5.98218 88.5735 6.42679C88.8605 6.8714 89.2735 7.22058 89.7598 7.42984C90.2461 7.63909 90.7838 7.69895 91.3043 7.60178C91.8248 7.50461 92.3045 7.25481 92.6824 6.88422C93.0603 6.51363 93.3192 6.03902 93.4262 5.52086C93.5332 5.0027 93.4833 4.46445 93.283 3.9747C93.0827 3.48495 92.741 3.06587 92.3015 2.77086C91.862 2.47584 91.3445 2.31825 90.815 2.31816C90.1162 2.31804 89.4453 2.59197 88.9466 3.08104C88.4479 3.5701 88.1612 4.23521 88.1483 4.93329ZM92.2718 6.75894H91.6792L90.7656 5.10598H90.1236V6.75894H89.6051V3.20631H91.0866C91.7285 3.20631 92.3211 3.40368 92.3211 4.14381C92.332 4.27403 92.3147 4.40505 92.2705 4.52801C92.2262 4.65098 92.1561 4.76303 92.0648 4.85658C91.9735 4.95014 91.8632 5.02302 91.7413 5.0703C91.6194 5.11758 91.4887 5.13817 91.3582 5.13065L92.2718 6.75894ZM90.1236 3.72441V4.61256H90.6668C91.136 4.61256 91.8026 4.61256 91.8026 4.21783C91.8026 3.82309 91.4322 3.72441 90.9878 3.72441H90.1236Z" fill="#1D1D1B"/>
</svg>
