<svg width="139" height="52" viewBox="0 0 139 52" fill="none" xmlns="http://www.w3.org/2000/svg">
<path d="M57.0588 14.7186C72.6632 14.7186 88.9125 12.0199 88.9125 27.6624C88.6837 29.8989 87.9241 32.0472 86.6979 33.926C85.4716 35.8048 83.8147 37.3589 81.867 38.4572L89.9792 52.0007H79.6591L71.5964 39.0069H67.1558V52.0257H57.0588V14.7186ZM67.1309 23.1146V31.1357C67.1309 31.1357 78.8652 32.7849 78.7163 27.1376C78.5675 21.4904 67.1309 23.1146 67.1309 23.1146Z" fill="#706F6F"/>
<path d="M0 19.5167C33.0444 0.17604 85.6377 -11.5683 138.256 17.4927C138.256 17.4927 55.5206 -7.49527 15.6787 30.5614L29.6209 52.0011H18.3084L10.221 41.1563V51.9761H0V19.5167Z" fill="#706F6F"/>
<path d="M30.3403 21.4404H53.9329V28.1372H40.7101V33.6346H53.9329V40.2314H40.7101V45.7288H53.9329V51.9758H30.3403V21.4404Z" fill="#706F6F"/>
<path d="M92.0381 21.3154H101.961L108.883 32.535L115.829 21.3154H125.728V51.9757H115.829V38.1573L108.982 47.7777L101.961 38.5571V51.9757H92.0381V21.3154Z" fill="#706F6F"/>
<path d="M139 21.3652H129.275V52.0005H139V21.3652Z" fill="#706F6F"/>
</svg>
