<svg width="213" height="106" viewBox="0 0 213 106" fill="none" xmlns="http://www.w3.org/2000/svg">
<path d="M140.353 36.9071L140.139 36.0488C129.193 37.98 117.82 39.0529 106.446 39.0529C94.8565 39.0529 83.6969 37.98 72.752 36.0488L72.5374 36.9071C83.4823 39.2675 94.8565 40.5549 106.446 40.5549C118.034 40.5549 129.409 39.2675 140.353 36.9071Z" fill="#023E84"/>
<path d="M154.517 41.4139L154.303 40.5557C138.637 43.5597 122.755 45.0617 106.231 45.0617C89.9206 45.0617 73.825 43.5597 58.1586 40.5557L57.9441 41.4139C73.3957 44.8471 89.4914 46.5636 106.016 46.5636C122.97 46.5636 139.065 44.6326 154.517 41.4139Z" fill="#023E84"/>
<path d="M126.833 32.8301L126.618 31.9717C119.965 32.8301 113.313 33.2592 106.445 33.2592C99.5779 33.2592 92.925 32.8301 86.2722 31.9717L86.0576 32.8301C92.7104 34.1175 99.3637 34.7612 106.445 34.7612C113.313 34.7612 120.181 33.9029 126.833 32.8301Z" fill="#023E84"/>
<path d="M104.729 2.35938C100.65 2.35938 97.4314 5.578 97.4314 10.5132V27.8938H99.5777V10.5132C99.5777 6.00714 102.153 3.6468 105.587 3.6468C108.806 3.6468 111.381 6.22178 111.381 9.65491H111.811C111.811 5.36337 108.592 2.35938 104.729 2.35938Z" fill="#023E84"/>
<path d="M104.729 1.07292C109.45 1.07292 113.313 4.50605 113.313 10.7287V28.1092H115.459V10.7287C115.459 3.86228 110.952 0 105.587 0C101.938 0 98.7196 2.14571 97.0031 5.14983L97.4316 5.36433C98.9339 2.57485 101.509 1.07292 104.729 1.07292Z" fill="#023E84"/>
<path d="M112.025 96.1289H111.167L106.231 102.352V102.995H110.523V105.785H112.025V102.995H113.527V101.922H112.025V96.1289ZM110.523 102.137H106.875L110.308 97.631V102.137H110.523Z" fill="#023E84"/>
<path d="M122.755 100.42C123.828 99.9912 124.902 99.3475 124.902 98.2746C124.902 96.9872 123.185 96.1289 121.897 96.1289C120.181 96.1289 118.463 96.9872 118.463 98.4893C118.463 99.7767 119.322 100.42 120.395 100.849C119.322 101.493 118.249 102.137 118.249 103.424C118.249 105.141 119.751 105.785 121.253 105.785C123.4 105.785 125.116 104.927 125.116 102.995C125.33 101.708 124.258 100.849 122.755 100.42ZM119.965 98.2746C119.965 97.2018 120.825 96.7727 121.897 96.7727C122.97 96.7727 123.828 97.4163 123.828 98.2746C123.828 99.1329 123.4 99.7767 122.541 100.42C121.683 99.7767 119.965 99.3475 119.965 98.2746ZM121.683 105.571C120.395 105.571 119.537 104.712 119.537 103.639C119.537 102.566 119.965 101.708 120.825 101.064C122.111 101.708 123.828 102.137 123.828 103.639C123.828 104.712 122.97 105.571 121.683 105.571Z" fill="#023E84"/>
<path d="M89.9208 104.927V96.3438H89.7061C89.277 96.7729 88.4186 97.4165 86.9163 97.8457V98.0603C87.7747 98.0603 88.2039 98.0603 88.4186 98.2748C88.4186 98.4895 88.6331 98.704 88.6331 99.1331V104.712C88.6331 105.356 88.2039 105.356 87.56 105.356V105.57H91.2084C90.1354 105.57 89.9208 105.356 89.9208 104.927Z" fill="#023E84"/>
<path d="M97.6471 96.3442C97.2174 96.3442 97.2174 96.3442 97.2174 95.915H97.0031L95.9297 98.4899H96.3591L96.5733 98.0607C96.7876 97.8462 96.7876 97.6316 97.2174 97.6316H101.295L98.2899 103.855C97.6471 104.927 97.2174 105.786 97.2174 105.786C97.2174 106 97.6471 106 97.8614 106C98.5054 106 98.7197 105.786 98.9339 105.356L102.368 96.7733V96.3442H98.9339C98.2899 96.3442 98.0756 96.3442 97.6471 96.3442Z" fill="#023E84"/>
<path d="M93.9978 86.2578H2.14575V87.1161H93.9978V86.2578Z" fill="#023E84"/>
<path d="M212.89 86.2578H104.085V87.1161H212.89V86.2578Z" fill="#023E84"/>
<path d="M78.9756 74.2433C78.9756 78.3203 81.9801 81.1096 86.0576 81.1096C89.9205 81.1096 93.1397 78.1056 93.1397 74.2433C93.1397 70.1663 90.3498 67.377 86.0576 67.377C81.7655 67.377 78.9756 70.3809 78.9756 74.2433ZM90.1352 74.2433C90.1352 77.6765 88.6329 80.466 86.0576 80.466C83.2678 80.466 81.9801 77.6765 81.9801 74.2433C81.9801 70.8101 83.4823 68.0206 86.0576 68.0206C88.8475 68.2352 90.1352 70.8101 90.1352 74.2433Z" fill="#023E84"/>
<path d="M142.5 60.0808V60.7246C143.786 60.9391 144.86 60.7246 144.86 62.2265V78.9633C144.86 80.2507 143.572 80.2507 142.5 80.2507V80.8945C145.074 80.8945 147.649 81.1091 150.225 81.1091C152.372 81.1091 154.947 80.8945 156.877 80.0362C159.239 78.7488 160.098 77.2467 160.098 75.3155C160.098 72.3115 157.951 70.1658 154.732 69.7367C157.307 69.0929 158.81 67.3763 158.81 65.016C158.81 63.5139 157.951 61.7974 156.235 60.9391C154.303 60.0808 152.156 60.0808 150.01 60.0808C147.435 59.8663 145.074 59.8663 142.5 60.0808ZM156.663 75.3155C156.663 78.5342 154.732 80.0362 151.084 80.0362C149.367 80.0362 148.293 79.8216 148.293 78.105V70.3803H149.796C153.444 70.595 156.663 70.8095 156.663 75.3155ZM155.591 65.016C155.591 68.2346 153.015 69.522 150.01 69.522H148.509V60.7246C148.723 60.7246 149.367 60.7246 149.581 60.7246C154.303 60.7246 155.591 62.6557 155.591 65.016Z" fill="#023E84"/>
<path d="M171.042 81.1096C174.905 81.1096 178.124 78.1056 178.124 74.2433C178.124 70.1663 175.334 67.377 171.042 67.377C166.75 67.377 163.961 70.1663 163.961 74.2433C163.961 78.3203 166.965 81.1096 171.042 81.1096ZM171.042 68.2352C174.047 68.2352 175.12 71.0247 175.12 74.4579C175.12 77.891 173.617 80.6805 171.042 80.6805C168.252 80.6805 166.965 77.891 166.965 74.4579C166.965 71.0247 168.468 68.2352 171.042 68.2352Z" fill="#023E84"/>
<path d="M10.5158 81.3237H11.5889L18.0271 64.5869C18.8855 62.6557 19.5293 60.7245 21.89 60.7245V60.0808H14.808V60.7245C15.4518 60.7245 16.5248 60.7245 17.1687 61.5828C17.3832 62.2265 17.3832 63.2995 16.5248 65.4452L12.2326 76.8176L7.08204 63.7286C7.08204 63.514 6.6529 62.4412 6.86754 61.7974C7.08204 60.9391 8.15509 60.51 9.22813 60.51V59.8662H0V60.51C0.643903 60.51 1.50231 60.7245 2.14609 61.3683C2.78999 62.012 3.21913 63.0848 3.86304 64.8014L10.5158 81.3237Z" fill="#023E84"/>
<path d="M38.2001 80.2506C36.6977 80.2506 36.2685 80.2506 36.2685 78.534V59.6514C34.7663 60.0805 33.0495 60.7243 31.3325 60.9389V61.3681C31.9764 61.3681 32.4056 61.5826 32.8348 61.7972C33.264 62.2264 33.264 62.87 33.264 63.7283V78.534C33.264 80.0359 32.8348 80.0359 31.3325 80.2506V80.8942H38.2001V80.2506Z" fill="#023E84"/>
<path d="M47.8574 80.2506C46.3551 80.2506 45.9259 80.2506 45.9259 78.534V59.6514C44.4236 60.0805 42.7068 60.7243 40.99 60.9389V61.3681C41.6338 61.3681 42.0629 61.5826 42.4922 61.7972C42.9214 62.2264 42.9214 62.87 42.9214 63.7283V78.534C42.9214 80.0359 42.4922 80.0359 40.99 80.2506V80.8942H47.6428V80.2506H47.8574Z" fill="#023E84"/>
<path d="M73.6103 68.8789C74.4687 68.8789 74.8978 70.1663 75.7562 70.1663C76.4001 70.1663 77.0439 69.7372 77.0439 68.8789C77.0439 67.8061 75.9708 67.377 75.1124 67.377C72.9663 67.377 71.6787 69.0935 71.2495 70.1663V67.5915C69.9618 68.0206 68.245 68.6644 66.9573 69.0935C68.0304 69.5227 68.4595 69.7372 68.4595 70.8101V78.5348C68.4595 80.0368 68.0304 80.0368 66.5281 80.2513V80.8951H73.3956V80.2513C71.6787 80.2513 71.2495 80.2513 71.2495 78.5348V72.7413C71.4642 70.3809 72.5372 68.8789 73.6103 68.8789Z" fill="#023E84"/>
<path d="M188.64 81.1096C191.429 81.1096 193.361 79.6077 194.434 77.2473L194.006 77.0327C193.147 78.5348 191.645 79.8222 189.713 79.8222C186.064 79.8222 185.206 76.8182 185.206 74.0287C185.206 71.6684 185.85 68.0206 189.069 68.0206C190.357 68.0206 191.645 68.8789 191.645 70.1663C191.645 71.0247 192.073 71.6684 192.932 71.6684C193.576 71.6684 194.22 71.2392 194.22 70.3809C194.22 68.4497 191.645 67.377 189.069 67.377C184.777 67.377 182.201 70.381 182.201 74.4579C181.987 78.1056 184.562 81.1096 188.64 81.1096Z" fill="#023E84"/>
<path d="M203.234 80.2506C201.946 80.2506 201.302 80.2506 201.302 78.534V70.5947C202.16 69.7364 202.804 68.6635 204.736 68.6635C206.667 68.6635 207.525 70.1655 207.525 72.0967V78.534C207.525 80.0359 207.097 80.0359 205.809 80.2506V80.8942H212.462V80.2506C210.96 80.2506 210.53 80.2506 210.53 78.534V72.5259C210.53 68.2343 207.525 67.376 205.809 67.376C203.662 67.376 202.59 68.2343 201.302 69.5219V59.6514C199.799 60.0805 198.083 60.7243 196.58 61.1534V61.3681C197.439 61.5826 198.297 61.7972 198.297 62.6555V78.3194C198.297 79.8214 197.869 79.8214 196.366 80.0359V80.6797H203.018V80.2506H203.234Z" fill="#023E84"/>
<path d="M26.6112 67.377C25.1089 67.8061 23.1774 68.4497 21.8899 68.8789V69.0935C22.319 69.0935 22.7483 69.0935 23.1774 69.308C23.8213 69.7372 23.8213 70.5955 23.8213 71.2392V78.5348C23.8213 80.0368 23.3921 80.0368 21.8899 80.2513V80.8951H28.5427V80.2513C27.255 80.2513 26.6112 80.2513 26.6112 78.5348V67.377Z" fill="#023E84"/>
<path d="M24.8943 65.0153C25.7527 65.0153 26.6111 64.157 26.6111 63.2987C26.6111 62.4403 25.7527 61.582 24.8943 61.582C24.0359 61.582 23.1775 62.4403 23.1775 63.2987C23.1775 64.3715 24.0359 65.0153 24.8943 65.0153Z" fill="#023E84"/>
<path d="M57.9441 81.1096C61.1632 81.1096 63.0947 78.9639 63.7385 77.2473L63.0947 77.0327C62.2363 78.7494 60.3048 79.8222 58.8025 79.8222C55.3687 79.8222 54.0812 77.0327 54.0812 74.0287C54.0812 73.3849 54.0812 72.9558 54.2957 72.5267H63.5238C63.3093 69.0935 60.734 67.377 57.7295 67.377C53.6519 67.377 50.8621 70.381 50.8621 74.4579C51.0767 78.5348 54.0812 81.1096 57.9441 81.1096ZM57.9441 68.2352C59.2318 68.2352 60.734 69.5227 60.734 71.6684H54.5103C55.1542 69.5227 56.4418 68.2352 57.9441 68.2352Z" fill="#023E84"/>
<path d="M97.0032 69.951L102.153 81.109L101.08 83.4693C100.866 84.113 100.436 84.9713 99.578 84.9713C99.1482 84.9713 98.934 84.7567 98.5055 84.7567C97.6459 84.7567 97.2174 85.1859 97.2174 86.0442C97.2174 86.6878 97.8614 87.3316 98.5055 87.3316C100.436 87.3316 101.08 85.615 101.724 84.113L107.734 70.1657C108.162 69.3074 108.592 68.2345 110.094 68.2345V67.5908H104.729V68.2345C105.372 68.2345 106.231 68.2345 106.66 68.8782C106.874 69.3074 106.66 70.1657 106.446 70.8093L103.655 77.6757L100.436 70.1657C100.222 69.7365 100.222 69.3074 100.222 69.0928C100.436 68.4491 101.08 68.4491 101.724 68.4491V67.8053H94.8566V68.4491C96.1442 68.4491 96.5734 69.0927 97.0032 69.951Z" fill="#023E84"/>
<path d="M118.249 76.8177C118.249 78.7489 119.537 81.1093 123.185 81.1093C125.116 81.1093 126.618 80.2509 127.691 78.9635L127.906 79.1781C128.979 80.251 130.267 81.1093 131.984 81.1093C133.486 81.1093 134.988 79.6072 135.632 78.5343L135.202 78.3198C134.558 79.1781 133.7 79.6072 133.056 79.6072C131.554 79.6072 130.481 78.7489 129.409 77.676C129.193 77.4615 129.193 77.2469 128.979 77.2469C128.979 77.0324 129.193 76.8177 129.193 76.8177C129.623 76.174 130.267 74.8865 130.481 74.0283C130.911 72.7408 131.769 71.2388 133.486 71.2388V70.8096H128.55V71.2388C129.409 71.2388 130.053 71.4534 130.053 72.5263C130.053 74.0283 129.193 75.5303 128.765 76.3886C128.765 76.3886 128.55 76.6032 128.55 76.8177C127.262 75.1012 125.76 72.7408 124.688 70.8096C126.19 69.7368 127.906 68.4494 127.906 66.9474C128.121 65.2308 126.833 63.9434 124.258 63.9434C121.897 63.9434 120.395 65.4453 120.395 67.591C120.395 68.4494 120.825 69.5222 121.253 70.3805C121.467 70.5951 121.683 71.2388 122.111 71.8825C120.609 72.5263 118.249 74.2429 118.249 76.8177ZM124.472 64.3725C125.546 64.3725 126.404 65.0161 126.19 66.5182C126.19 67.591 125.76 68.4494 124.258 69.7368C124.044 69.3077 123.828 68.8786 123.614 68.6639C122.97 67.591 122.755 66.9474 122.755 66.0891C122.97 65.4453 123.614 64.3725 124.472 64.3725ZM122.755 72.0972C123.828 74.0283 125.546 76.6032 127.048 78.3198C126.19 79.1781 125.116 79.8217 124.044 79.8217C122.326 79.8217 120.825 78.5343 120.825 76.3886C120.825 74.672 121.683 73.17 122.755 72.0972Z" fill="#023E84"/>
</svg>
