<svg width="111" height="110" viewBox="0 0 111 110" fill="none" xmlns="http://www.w3.org/2000/svg">
<path d="M110.868 0.163086H0V110H110.868V0.163086Z" fill="#E61E32"/>
<path fill-rule="evenodd" clip-rule="evenodd" d="M18.3583 71.0635C8.90749 71.0635 0.601562 76.7118 0.601562 86.7462C0.601562 96.7805 8.90749 102.429 18.3583 102.429C27.8077 102.429 36.1137 96.7805 36.1137 86.7462C36.1137 76.7713 27.8077 71.0635 18.3583 71.0635ZM84.8071 72.3259H73.6722V75.6306C71.5055 73.0463 68.3764 71.4244 65.004 71.4244C55.7951 71.4244 50.7994 78.2743 50.7994 86.6867C50.7994 93.9556 55.856 101.888 64.6431 101.888C68.7359 101.888 70.3011 100.746 73.7316 98.1618V101.407H84.8666V72.3259H84.8071ZM109.123 73.8884C106.054 72.5056 102.744 71.4244 99.4334 71.4244C92.4507 71.4244 86.0101 74.4884 86.0101 81.7587C86.0101 87.0462 89.6217 89.029 92.8724 89.9305C96.1218 90.7712 99.4929 90.4117 99.4929 92.9946C99.4929 94.3165 96.9044 95.0383 95.6406 95.0383C93.0522 95.0383 89.2014 93.8961 87.0333 92.3945V100.326C90.5854 102.488 93.8957 102.668 98.1088 102.668C104.97 102.668 110.267 99.4242 110.267 91.6727C110.267 86.2055 106.596 84.1024 101.72 83.1414C100.275 82.84 96.845 82.7211 96.845 80.6774C96.845 79.1758 98.7711 78.6352 99.974 78.6352C103.225 78.6352 107.499 80.8572 109.123 81.7601V73.8884ZM84.8666 59.2261C84.8666 59.2261 84.8071 59.1058 84.5665 58.9855C66.6895 56.6418 51.3414 63.4918 37.2572 72.0245V101.526H48.3921V88.0666C48.3921 84.2808 48.8138 80.8558 51.04 77.0713C54.2299 71.723 62.5372 67.2762 72.3475 66.6167C73.4316 66.7964 73.6113 67.9386 73.6722 68.8387H84.8071V59.2261H84.8666ZM18.3583 80.1354C22.6309 80.1354 25.099 83.1995 25.099 86.8042C25.099 90.5306 22.6309 93.4136 18.3583 93.4136C14.0844 93.4136 11.6162 90.5306 11.6162 86.8042C11.6162 83.1995 14.0844 80.1354 18.3583 80.1354ZM68.5561 80.4355C71.9853 80.4355 74.6954 83.1401 74.6954 86.8042C74.6954 90.5306 71.9853 93.4136 68.5561 93.4136C64.8837 93.4136 61.8141 90.5306 61.8141 86.8042C61.8141 83.1995 64.8837 80.4355 68.5561 80.4355Z" fill="white"/>
</svg>
