<svg width="192" height="71" viewBox="0 0 192 71" fill="none" xmlns="http://www.w3.org/2000/svg">
<path d="M6.04126 62.6112V52.7387C6.04126 50.7949 5.17823 49.7207 3.04602 49.7207C0.86305 49.7207 0.0507812 50.7949 0.0507812 52.7387V64.7596C0.0507812 66.0384 0.0507812 66.908 1.01535 67.7776C1.92915 68.6472 2.58912 68.6472 3.65522 68.6472H26.8556C28.4294 68.6472 29.8509 67.7776 29.8509 65.6292C29.8509 63.4296 28.3786 62.6112 26.8556 62.6112H6.04126Z" fill="#393937"/>
<path d="M185.959 6.08717V15.9597C185.959 17.9035 186.822 18.9777 188.954 18.9777C191.137 18.9777 191.949 17.9035 191.949 15.9597V3.88761C191.949 2.60879 191.949 1.73919 190.985 0.869596C190.122 0 189.462 0 188.345 0H165.144C163.571 0 162.149 0.869597 162.149 3.01801C162.149 5.21758 163.621 6.03602 165.144 6.03602H185.959V6.08717Z" fill="#393937"/>
<path d="M39.5982 16.6758V31.1009H23.1497V16.6758H16.4993V52.0223H23.1497V36.7788H39.5982V52.0223H46.2486V16.6758H39.5982Z" fill="#393937"/>
<path d="M74.9826 40.3085C74.9826 43.0708 74.5257 44.81 73.6627 45.5261C72.7489 46.2422 70.5659 46.6003 67.063 46.6003C63.6616 46.6003 61.4787 46.2422 60.5649 45.5772C59.6511 44.8611 59.1942 43.2242 59.1942 40.6154V24.5023H52.5437V40.6154C52.5437 45.4749 53.5083 48.6464 55.3866 50.1298C57.265 51.6133 61.2756 52.3806 67.3676 52.3806C73.155 52.3806 76.9625 51.5621 78.8409 49.9764C80.7193 48.3906 81.6331 45.1169 81.6331 40.2062V24.4512H74.9319L74.9826 40.3085Z" fill="#393937"/>
<path d="M87.7758 52.0223V16.6758H101.889H103.615C108.336 16.6758 111.535 17.4942 113.21 19.1823C114.885 20.8703 115.697 24.0418 115.697 28.799C115.697 33.505 114.885 36.6765 113.311 38.2111C111.738 39.7457 108.539 40.5641 103.767 40.5641L102.244 40.6153H94.4262V52.0735H87.7758V52.0223ZM94.4262 34.8862H101.99C105.036 34.8862 106.915 34.5281 107.727 33.8631C108.539 33.147 108.946 31.5101 108.946 28.9524C108.946 25.9856 108.59 24.1441 107.93 23.4279C107.27 22.7118 105.493 22.3537 102.65 22.3537H94.4262V34.8862Z" fill="#393937"/>
<path d="M119.962 52.0223V16.6758H134.075H135.801C140.522 16.6758 143.721 17.4942 145.396 19.1823C147.071 20.8703 147.884 24.0418 147.884 28.799C147.884 33.505 147.071 36.6765 145.498 38.2111C143.924 39.7457 140.726 40.5641 135.953 40.5641L134.43 40.6153H126.612V52.0735H119.962V52.0223ZM126.612 34.8862H134.177C137.223 34.8862 139.101 34.5281 139.913 33.8631C140.726 33.147 141.132 31.5101 141.132 28.9524C141.132 25.9856 140.776 24.1441 140.116 23.4279C139.456 22.7118 137.68 22.3537 134.837 22.3537H126.612V34.8862Z" fill="#393937"/>
<path d="M175.501 22.3537V16.6758H151.539V52.0223H175.653V46.3444H158.189V36.4207H174.638V31.4078H158.189V22.3537H175.501Z" fill="#393937"/>
<path d="M59.1941 16.6758H52.4929V22.3537H59.1941V16.6758Z" fill="#393937"/>
<path d="M81.633 16.6758H74.9318V22.3537H81.633V16.6758Z" fill="#393937"/>
<path d="M39.5981 70.6927V69.0558C40.3596 69.3627 40.9181 69.5673 41.2734 69.6185C41.6288 69.6696 41.9842 69.7208 42.2888 69.7208C42.8472 69.7208 43.2533 69.6185 43.5579 69.3627C43.8118 69.1069 43.9641 68.8 43.9641 68.4419C43.9641 68.1862 43.8625 67.9304 43.7102 67.7258C43.5579 67.5212 43.2026 67.2143 42.5934 66.9074L41.9334 66.5493C41.0196 66.0378 40.4104 65.5774 40.055 65.117C39.7504 64.6566 39.5474 64.1963 39.5474 63.5824C39.5474 62.8663 39.8012 62.2525 40.3596 61.7409C40.9181 61.2294 41.6796 60.9736 42.7457 60.9736C43.5072 60.9736 44.3702 61.0759 45.3348 61.2806V62.8151C44.3702 62.4571 43.5579 62.2525 42.9995 62.2525C42.5426 62.2525 42.1365 62.3548 41.8826 62.5594C41.6288 62.764 41.5273 63.0197 41.5273 63.3267C41.5273 63.5313 41.6288 63.787 41.7811 63.9405C41.9334 64.1451 42.2888 64.4009 42.898 64.7589L43.6087 65.1682C44.6748 65.782 45.3348 66.2935 45.6394 66.7027C45.944 67.1631 46.0455 67.6235 46.0455 68.1862C46.0455 68.9535 45.7409 69.6696 45.1317 70.1811C44.5225 70.7438 43.6087 70.9996 42.2888 70.9996C41.5273 70.9996 40.6135 70.8973 39.5981 70.6927Z" fill="#393937"/>
<path d="M48.0762 70.7964V61.1797H50.0561V65.0673H54.0159V61.1797H55.9958V70.7964H54.0159V66.3973H50.0561V70.7964H48.0762Z" fill="#393937"/>
<path d="M62.6463 71.0003C61.631 71.0003 60.768 70.7957 60.0572 70.3865C59.3465 69.9773 58.7881 69.3634 58.3819 68.5961C57.9758 67.8288 57.8235 66.9592 57.8235 65.9362C57.8235 64.9643 58.0266 64.0947 58.3819 63.2762C58.7881 62.509 59.3465 61.8951 60.0572 61.4859C60.8187 61.0767 61.6818 60.8721 62.6463 60.8721C63.6109 60.8721 64.4739 61.0767 65.2354 61.4859C65.9969 61.8951 66.5554 62.509 66.9107 63.2762C67.3169 64.0435 67.4692 64.9131 67.4692 65.9362C67.4692 66.9081 67.2661 67.7777 66.9107 68.5961C66.5046 69.3634 65.9462 69.9773 65.2354 70.3865C64.5247 70.7957 63.6617 71.0003 62.6463 71.0003ZM62.6463 69.7215C63.5601 69.7215 64.2709 69.3634 64.677 68.5961C65.1339 67.8288 65.337 66.9592 65.337 65.9873C65.337 65.0154 65.1339 64.1458 64.677 63.3786C64.2201 62.6113 63.5601 62.2532 62.6463 62.2532C61.7325 62.2532 61.0218 62.6113 60.6157 63.3786C60.1588 64.1458 59.9557 65.0154 59.9557 65.9873C59.9557 66.9592 60.1588 67.8288 60.6157 68.5961C61.0726 69.3123 61.7325 69.7215 62.6463 69.7215Z" fill="#393937"/>
<path d="M70.8705 70.7964L68.4845 61.1797H70.3629L72.0889 68.1876L73.7135 61.1797H75.3888L76.9626 68.1876L78.7902 61.1797H80.1609L77.6733 70.7964H75.7949L74.3227 64.1977L72.7997 70.7964H70.8705Z" fill="#393937"/>
<path d="M81.8361 70.7964V61.1797H87.9281V62.5097H83.816V65.1696H87.2173V66.4996H83.816V69.4153H88.2327V70.7964H81.8361Z" fill="#393937"/>
<path d="M90.162 70.7964V61.1797H93.7157C94.4264 61.1797 94.9848 61.282 95.391 61.4355C95.7971 61.6401 96.0509 61.8958 96.3048 62.2539C96.5078 62.612 96.6601 63.0723 96.6601 63.5327C96.6601 64.0954 96.5078 64.6069 96.1525 65.1184C95.8479 65.63 95.391 65.988 94.7818 66.2438L97.9293 70.7452H95.4925L93.1065 66.8065H92.0404V70.7452H90.162V70.7964ZM92.0404 65.5277H92.4973C93.3095 65.5277 93.868 65.3231 94.1726 64.965C94.4772 64.6069 94.6295 64.1977 94.6295 63.7373C94.6295 63.3281 94.4772 63.0212 94.2233 62.8166C93.9695 62.5608 93.4618 62.4585 92.6496 62.4585H91.9388V65.5277H92.0404Z" fill="#393937"/>
<path d="M103.209 70.7964L106.915 61.1797H108.895L112.601 70.7964H110.57L109.555 68.2388H105.595L104.58 70.7964H103.209ZM106.153 66.9599H109.098L107.626 63.1235L106.153 66.9599Z" fill="#393937"/>
<path d="M114.378 70.7964V61.1797H116.104L120.52 67.7272V61.1797H122.094V70.7964H120.317L115.951 64.2488V70.7964H114.378Z" fill="#393937"/>
<path d="M124.886 70.7964V61.1797H128.999C130.115 61.1797 130.978 61.3331 131.588 61.6912C132.197 62.0493 132.705 62.5608 133.06 63.2769C133.415 63.9931 133.618 64.8115 133.618 65.7834C133.618 66.7553 133.466 67.5738 133.111 68.3411C132.755 69.1084 132.248 69.671 131.588 70.1314C130.928 70.5918 130.014 70.7964 128.846 70.7964H124.886ZM126.866 69.4153H128.339C129.1 69.4153 129.709 69.313 130.115 69.0572C130.522 68.8014 130.826 68.3922 131.08 67.8295C131.334 67.2669 131.435 66.6019 131.435 65.8857C131.435 65.2208 131.334 64.6069 131.08 64.0954C130.826 63.5839 130.522 63.1746 130.115 62.9189C129.709 62.6631 128.999 62.5097 128.034 62.5097H126.816V69.4153H126.866Z" fill="#393937"/>
<path d="M139.812 70.694V69.0571C140.573 69.364 141.132 69.5687 141.487 69.6198C141.842 69.671 142.198 69.7221 142.502 69.7221C143.061 69.7221 143.467 69.6198 143.772 69.364C144.025 69.1083 144.178 68.8014 144.178 68.4433C144.178 68.1875 144.076 67.9318 143.924 67.7271C143.772 67.5225 143.416 67.2156 142.807 66.9087L142.147 66.4995C141.233 65.988 140.624 65.5276 140.269 65.0672C139.913 64.6068 139.761 64.1465 139.761 63.5326C139.761 62.8165 140.015 62.2026 140.573 61.6911C141.132 61.1796 141.893 60.9238 142.959 60.9238C143.721 60.9238 144.584 61.0261 145.548 61.2307V62.7653C144.584 62.4073 143.772 62.2026 143.213 62.2026C142.756 62.2026 142.35 62.305 142.096 62.5096C141.842 62.7142 141.741 62.9699 141.741 63.2769C141.741 63.4815 141.842 63.7372 141.995 63.8907C142.147 64.0953 142.502 64.3511 143.112 64.7091L143.822 65.1184C144.888 65.7322 145.548 66.2437 145.853 66.6529C146.158 67.1133 146.259 67.5737 146.259 68.1364C146.259 68.9037 145.955 69.6198 145.345 70.1313C144.736 70.694 143.822 70.9498 142.502 70.9498C141.741 71.0009 140.827 70.8986 139.812 70.694Z" fill="#393937"/>
<path d="M152.503 71.0003C151.488 71.0003 150.625 70.7957 149.914 70.3865C149.204 69.9773 148.645 69.3634 148.239 68.5961C147.833 67.8288 147.681 66.9592 147.681 65.9362C147.681 64.9643 147.884 64.0947 148.239 63.2762C148.645 62.509 149.204 61.8951 149.914 61.4859C150.676 61.0767 151.539 60.8721 152.503 60.8721C153.468 60.8721 154.331 61.0767 155.093 61.4859C155.854 61.8951 156.412 62.509 156.768 63.2762C157.174 64.0435 157.326 64.9131 157.326 65.9362C157.326 66.9081 157.123 67.7777 156.768 68.5961C156.362 69.3634 155.803 69.9773 155.093 70.3865C154.382 70.7957 153.519 71.0003 152.503 71.0003ZM152.503 69.7215C153.417 69.7215 154.128 69.3634 154.534 68.5961C154.991 67.8288 155.194 66.9592 155.194 65.9873C155.194 65.0154 154.991 64.1458 154.534 63.3786C154.077 62.6113 153.417 62.2532 152.503 62.2532C151.59 62.2532 150.879 62.6113 150.422 63.3786C149.965 64.1458 149.762 65.0154 149.762 65.9873C149.762 66.9592 149.965 67.8288 150.422 68.5961C150.879 69.3123 151.59 69.7215 152.503 69.7215Z" fill="#393937"/>
<path d="M159.306 61.1791H161.286V67.0617C161.286 68.1359 161.489 68.852 161.844 69.1589C162.2 69.517 162.657 69.6704 163.266 69.6704C163.824 69.6704 164.281 69.517 164.586 69.1589C164.941 68.8008 165.094 68.1359 165.094 67.164V61.1279H166.82V67.0105C166.82 68.1359 166.667 68.9031 166.413 69.4147C166.16 69.875 165.754 70.2843 165.195 70.54C164.687 70.7958 164.027 70.9493 163.215 70.9493C162.403 70.9493 161.743 70.7958 161.185 70.54C160.626 70.2843 160.169 69.875 159.814 69.4147C159.458 68.9031 159.306 68.0847 159.306 66.9593V61.1791Z" fill="#393937"/>
<path d="M169.46 70.7964V61.1797H171.44V69.4153H175.704V70.7964H169.46Z" fill="#393937"/>
</svg>
