<svg width="134" height="35" viewBox="0 0 134 35" fill="none" xmlns="http://www.w3.org/2000/svg">
<path d="M78.4446 26.6196C78.8745 27.3415 79.3655 28.0259 79.9125 28.6654C81.5968 30.6345 83.6984 32.2119 86.0676 33.2854C88.4369 34.3589 91.0158 34.9022 93.621 34.8767C96.6987 34.8747 99.7146 34.021 102.329 32.4119C101.15 31.4078 100.091 30.2751 99.1691 29.0351C96.7373 30.3444 93.9343 30.8129 91.2036 30.3665C88.4729 29.9201 85.9704 28.5842 84.0922 26.5703C83.7582 26.2411 83.4505 25.8868 83.1717 25.5105C81.4668 23.2071 80.5908 20.404 80.6837 17.5492C80.6576 15.5261 81.1097 13.5251 82.004 11.7061C82.8982 9.88711 84.2098 8.30073 85.8338 7.07386C88.0086 5.53537 90.6257 4.73161 93.2976 4.78161C95.4099 4.77477 97.4777 5.38334 99.2437 6.53161C100.174 5.21651 101.26 4.01663 102.478 2.95767C99.7809 1.43152 96.727 0.632652 93.621 0.640766C89.6974 0.522733 85.8487 1.72134 82.699 4.04217C79.3869 6.68324 77.1375 10.4108 76.3572 14.5515C75.577 18.6921 76.3174 22.9726 78.4446 26.6196Z" fill="#393937"/>
<path d="M24.7549 34.4579H46.0516V30.6128H28.8102V17.9931H46.2257V14.2959H28.9097V4.83112H46.2257V0.912109H24.7549V34.4579Z" fill="#393937"/>
<path d="M8.80728 15.8475L21.446 0.935547H16.5696L3.90605 15.4532V0.935547H0V34.506H3.95581V17.0306L11.3201 26.6187L17.3906 34.506H22.5655L16.7438 26.6187L8.80728 15.8475Z" fill="#393937"/>
<path d="M127.282 24.3521C126.798 25.1571 126.24 25.9162 125.616 26.6197C123.552 28.8413 120.783 30.2969 117.769 30.7453C114.755 31.1936 111.677 30.6076 109.046 29.0845C107.887 28.4275 106.837 27.596 105.936 26.6197C104.088 24.4661 102.957 21.7989 102.699 18.9837C102.44 16.1684 103.067 13.3429 104.493 10.8944C106.235 7.82897 109.131 5.5715 112.549 4.61544C115.966 3.65937 119.626 4.08248 122.73 5.79227C124.267 6.70685 125.607 7.91282 126.673 9.34115C127.739 10.7695 128.51 12.3921 128.942 14.1161C129.374 15.8401 129.459 17.6316 129.191 19.388C128.923 21.1445 128.309 22.8314 127.382 24.3521H127.282ZM131.736 8.57749C129.236 4.5543 125.244 1.66141 120.617 0.518799C115.99 -0.623815 111.095 0.0747578 106.981 2.46481C104.926 3.57513 103.116 5.08056 101.656 6.8929C100.196 8.70524 99.1153 10.788 98.4781 13.0193C97.8409 15.2505 97.6596 17.5853 97.9448 19.8868C98.23 22.1883 98.976 24.4103 100.139 26.4226L100.288 26.6937C102.843 30.5942 106.801 33.3845 111.358 34.4971C115.915 35.6097 120.728 34.9611 124.819 32.6831C126.874 31.5631 128.684 30.0494 130.143 28.2302C131.602 26.4109 132.681 24.3223 133.318 22.086C133.954 19.8497 134.136 17.5103 133.851 15.2039C133.567 12.8975 132.823 10.6701 131.661 8.65143" fill="#393937"/>
<path d="M73.4438 26.6204C73.0742 28.3158 72.2683 29.8877 71.1043 31.1833C69.9403 32.479 68.4579 33.4544 66.801 34.0147C63.2182 35.2131 59.3374 35.2131 55.7546 34.0147C54.0711 33.4738 52.5592 32.5072 51.3681 31.2105C50.177 29.9137 49.3478 28.3316 48.9625 26.6204C48.8108 25.9239 48.7357 25.2132 48.7386 24.5006V0.961914H53.0676V24.0816C53.0686 24.9301 53.2465 25.7692 53.5901 26.5464C53.9494 27.4261 54.4986 28.2172 55.1991 28.8644C55.8996 29.5116 56.7346 29.9991 57.6454 30.2929C58.7786 30.6586 59.9617 30.8498 61.1534 30.8598C62.4149 30.8578 63.6673 30.6496 64.8604 30.2436C65.7496 29.9458 66.5634 29.4613 67.2461 28.8232C67.9288 28.1851 68.4644 27.4085 68.8162 26.5464C69.1598 25.7692 69.3377 24.9301 69.3387 24.0816V0.961914H73.6677V24.6485C73.6706 25.361 73.5955 26.0718 73.4438 26.7682V26.6204Z" fill="#393937"/>
</svg>
