<svg width="144" height="28" viewBox="0 0 144 28" fill="none" xmlns="http://www.w3.org/2000/svg">
<path d="M0.024948 0.62793H3.34304L3.31809 22.1478H16.5405V24.8559H0L0.024948 0.62793Z" fill="#393937"/>
<path d="M71.1517 16.1029C71.1517 22.1961 67.4594 25.4362 61.1725 25.412C54.8856 25.3879 50.8191 22.5347 50.8191 16.0787V0.62793H54.1621V16.1029C54.0774 17.0072 54.2022 17.9184 54.5275 18.7699C54.8529 19.6214 55.3704 20.3917 56.0424 21.0244C56.7144 21.6572 57.5237 22.1363 58.4113 22.4269C59.2989 22.7175 60.2423 22.8121 61.1725 22.7039C62.0794 22.7866 62.9939 22.671 63.8486 22.3656C64.7032 22.0602 65.4763 21.5728 66.1107 20.9394C66.7452 20.3059 67.2249 19.5425 67.5144 18.7054C67.804 17.8684 67.896 16.979 67.7837 16.1029V0.62793H71.1268L71.1517 16.1029Z" fill="#393937"/>
<path d="M78.4614 0.677734H94.8772V3.38585H81.7795V11.075H93.2556V13.8073L81.7795 13.7831V24.8815H78.4614V0.677734Z" fill="#393937"/>
<path d="M100.715 0.677734H117.979L117.954 3.38585H104.033V11.0992H117.031L117.006 13.8073H104.033V22.1734H118.054V24.9057L100.715 24.8815V0.677734Z" fill="#393937"/>
<path d="M124.092 0.677734H127.634L140.782 20.3358H140.857V0.677734H144V24.9057H140.358L127.31 5.4653H127.235V24.9057H124.092V0.677734Z" fill="#393937"/>
<path d="M33.106 18.1346V27.9998L36.2744 24.8807V14.9912L33.106 18.1346Z" fill="#393937"/>
<path d="M30.736 22.0518H24.8981L34.6778 5.65803L44.4574 22.0518H38.6944L38.6695 24.8808H49.4969L34.6778 0L19.8586 24.8566H30.736V22.0518Z" fill="#393937"/>
</svg>
