<svg width="195" height="34" viewBox="0 0 195 34" fill="none" xmlns="http://www.w3.org/2000/svg">
<path d="M86.6401 1.00879H88.51V19.5455C88.51 20.3139 88.51 21.0342 88.4621 21.7546C88.4141 22.4749 88.3662 23.1472 88.2223 23.8195C88.1264 24.4918 87.8867 25.1642 87.647 25.7885C87.3593 26.4127 86.9757 27.037 86.4962 27.6613C85.4893 28.8139 84.2907 29.6783 82.8523 30.2546C81.4139 30.8308 79.9275 31.119 78.4412 31.119C76.9548 31.119 75.4684 30.8308 74.03 30.2546C72.5916 29.6783 71.345 28.8139 70.3861 27.6613C69.9066 27.037 69.523 26.4127 69.2354 25.7885C68.9477 25.1642 68.7559 24.4918 68.66 23.8195C68.5641 23.1472 68.4682 22.4749 68.4203 21.7546C68.3723 21.0342 68.3723 20.3139 68.3723 19.5455V1.00879H70.2422V19.0173C70.2422 19.6896 70.2422 20.3619 70.2422 21.0342C70.2422 21.7065 70.2902 22.3788 70.434 23.0031C70.5299 23.6274 70.6738 24.2517 70.8656 24.876C71.0573 25.4523 71.345 26.0286 71.7765 26.5088C72.1601 26.989 72.5916 27.4212 73.1191 27.7574C73.6465 28.0935 74.2218 28.4297 74.7972 28.6698C75.3726 28.9099 75.9959 29.102 76.6192 29.2461C77.2425 29.3421 77.8658 29.4382 78.4412 29.4382C79.0165 29.4382 79.6398 29.3901 80.2631 29.2461C80.8864 29.15 81.5098 28.9579 82.0851 28.6698C82.6605 28.4297 83.2358 28.0935 83.7633 27.7574C84.2907 27.4212 84.7222 26.989 85.1058 26.5088C85.4894 26.0286 85.777 25.4523 85.9688 24.876C86.1606 24.2998 86.3044 23.6755 86.4003 23.0031C86.4962 22.3788 86.5442 21.7065 86.5921 21.0342C86.5921 20.3619 86.5921 19.6896 86.5921 19.0173V1.00879H86.6401Z" fill="black"/>
<path d="M123.367 30.7828H121.497V2.78563H113.826V1.00879H131.087V2.78563H123.415V30.7828H123.367Z" fill="black"/>
<path d="M148.108 0.576172C150.17 0.576172 152.183 0.960353 154.053 1.77674C155.923 2.59312 157.554 3.69764 158.944 5.0903C160.334 6.48295 161.437 8.11572 162.252 9.9886C163.067 11.8615 163.499 13.8304 163.499 15.8954C163.499 18.0084 163.067 19.9773 162.252 21.8022C161.437 23.627 160.334 25.2598 158.944 26.6524C157.554 28.0451 155.923 29.1496 154.053 29.966C152.183 30.7824 150.218 31.1666 148.108 31.1666C145.998 31.1666 144.033 30.7824 142.163 29.966C140.293 29.1496 138.662 28.0451 137.272 26.6524C135.882 25.2598 134.779 23.627 133.964 21.8022C133.149 19.9773 132.717 18.0084 132.717 15.8954C132.717 13.8304 133.101 11.8615 133.916 9.9886C134.731 8.11572 135.834 6.53097 137.224 5.0903C138.615 3.69764 140.245 2.59312 142.115 1.77674C144.033 1.00838 146.046 0.576172 148.108 0.576172ZM148.108 2.35301C146.238 2.35301 144.512 2.73719 142.882 3.45753C141.252 4.17787 139.813 5.13832 138.567 6.38691C137.32 7.58747 136.361 9.02815 135.642 10.6609C134.923 12.2937 134.587 14.0225 134.587 15.8954C134.587 17.7202 134.923 19.4971 135.642 21.1298C136.361 22.7626 137.32 24.2033 138.567 25.4039C139.813 26.6044 141.252 27.6129 142.882 28.3332C144.512 29.0536 146.238 29.4378 148.108 29.4378C149.93 29.4378 151.704 29.0536 153.334 28.3332C154.964 27.6129 156.403 26.6524 157.649 25.4039C158.848 24.2033 159.855 22.7626 160.574 21.0818C161.293 19.4491 161.677 17.7202 161.677 15.8954C161.677 14.0705 161.293 12.2937 160.574 10.6609C159.855 9.02815 158.896 7.58747 157.649 6.38691C156.451 5.18634 155.012 4.17787 153.334 3.45753C151.704 2.73719 149.978 2.35301 148.108 2.35301Z" fill="black"/>
<path d="M195 31.7428L170.02 5.18634V30.7824H168.15V0.576172L193.13 26.9406V1.00838H195V31.7428Z" fill="black"/>
<path d="M0 30.7824H2.63708L12.2265 20.5536H23.0625V18.7767H13.9046L26.6585 5.18634V30.7824H28.5284V0.576172L0 30.7824Z" fill="black"/>
<path d="M116.511 30.7825L104.093 0L91.6265 30.7825H93.5443L104.093 4.80226L109.702 18.7768H102.031L101.312 20.5537H110.422L114.593 30.7825H116.511Z" fill="black"/>
<path d="M55.7143 28.0931L55.2828 27.5169C54.8033 27.805 54.3238 28.0451 53.7964 28.2852C52.1662 29.0056 50.3922 29.3897 48.5702 29.3897C46.7003 29.3897 44.9742 29.0056 43.344 28.2852C41.7138 27.5649 40.2754 26.6044 39.0288 25.3558C37.7822 24.1553 36.8232 22.7146 36.104 21.0818C35.3848 19.4491 35.0492 17.7202 35.0492 15.8474C35.0492 14.0225 35.3848 12.2457 36.104 10.6129C36.8232 8.98013 37.7822 7.53945 39.0288 6.33888C40.2754 5.13832 41.7138 4.12984 43.344 3.40951C44.9742 2.68917 46.7003 2.30499 48.5702 2.30499C50.3922 2.30499 52.1662 2.68917 53.7964 3.40951C55.4266 4.12984 56.865 5.0903 58.1116 6.33888C59.3103 7.53945 60.3172 8.98013 61.0364 10.6129C61.7556 12.2457 62.1392 13.9745 62.1392 15.8474C62.1392 17.6722 61.7556 19.401 61.0364 21.0338C60.6049 22.0423 60.0774 22.9067 59.4541 23.7711C59.6939 24.0592 59.9336 24.3474 60.1254 24.6835L60.6049 25.3078C61.4679 24.2513 62.1871 23.0508 62.7625 21.8022C63.5776 19.9773 64.0091 18.0084 64.0091 15.8954C64.0091 13.8304 63.5776 11.8615 62.7625 9.9886C61.9474 8.11572 60.8446 6.53097 59.4541 5.0903C58.0637 3.69764 56.4335 2.59312 54.5636 1.77674C52.6936 0.960353 50.7278 0.576172 48.6181 0.576172C46.5085 0.576172 44.5427 0.960353 42.6727 1.77674C40.8028 2.59312 39.1726 3.69764 37.7822 5.0903C36.3917 6.48295 35.241 8.11572 34.4738 9.9886C33.6587 11.8615 33.2751 13.8304 33.2751 15.8954C33.2751 18.0084 33.7067 19.9773 34.5218 21.8022C35.3369 23.627 36.4396 25.2598 37.8301 26.6524C39.2206 28.0451 40.8508 29.1496 42.7207 29.966C44.5906 30.7824 46.5564 31.1666 48.6661 31.1666C50.7278 31.1666 52.7416 30.7824 54.6115 29.966C55.2828 29.6779 55.9061 29.3417 56.5294 29.0056C56.1938 28.6694 55.954 28.3813 55.7143 28.0931Z" fill="black"/>
<path d="M67.8927 32.7029C63.9131 32.7029 61.6117 29.6294 59.4061 26.7C59.1664 26.4119 58.9266 26.0758 58.6869 25.7876C56.1457 22.4741 53.5086 19.0645 48.5701 19.0645H48.4263V20.3611H48.5701C52.1661 20.3611 54.3237 23.2424 56.4334 26.0758C56.6731 26.4119 56.9129 26.7 57.1526 27.0362C59.7897 30.4938 62.5227 34.0955 67.9406 34.0955H68.0845V32.7989H67.8927V32.7029Z" fill="#393937"/>
</svg>
