<svg width="120" height="33" viewBox="0 0 120 33" fill="none" xmlns="http://www.w3.org/2000/svg">
<path d="M40.9 19.6998C40.9 11.9998 45 7.2998 52 7.2998C59 7.2998 63.2 12.0998 63.2 19.6998C63.2 27.3998 59 32.1998 52 32.1998C45 32.1998 40.9 27.3998 40.9 19.6998ZM56.2 22.1998V17.2998C56.2 14.2998 54.7 12.5998 52 12.5998C49.4 12.5998 47.8 14.2998 47.8 17.2998V22.1998C47.8 25.1998 49.3 26.8998 52 26.8998C54.7 26.8998 56.2 25.1998 56.2 22.1998Z" fill="#322C2A"/>
<path d="M35 0L32 15.2L30.3 24H30.2L28.2 15.2L25 1.6C24.7 0.2 23.6 0 23.3 0H17.1L13.6 15.2L11.6 24H11.5L9.8 15.2L7.1 1.6C6.7 0.1 5.5 0.1 5.5 0.1H0L7.2 31.8H15.1L19.1 14.7L20.7 7.8H20.8L22.3 14.7L26.3 31.8H34.2L41.6 0H35Z" fill="#322C2A"/>
<path d="M75.3 31.7004C70.7 31.7004 68.2 29.3004 68.2 24.8004V13.0004H64.8V7.80039H66.5C68.3 7.80039 68.9 6.90039 68.9 5.30039V1.40039H74.9V7.80039H79.6V13.0004H74.9V26.4004H79.3V31.6004H75.3V31.7004Z" fill="#322C2A"/>
<path d="M90 31.7004C85.4 31.7004 82.9 29.3004 82.9 24.8004V13.0004H79.5V7.80039H81.2C83 7.80039 83.6 6.90039 83.6 5.30039V1.40039H89.6V7.80039H94.3V13.0004H89.6V26.4004H94V31.6004H90V31.7004Z" fill="#322C2A"/>
<path d="M97 19.6998C97 12.1998 101 7.2998 108.2 7.2998C116.1 7.2998 119.3 12.9998 119.3 19.4998V21.4998H104V21.8998C104 24.9998 105.7 26.9998 109.3 26.9998C112.1 26.9998 113.7 25.6998 115.2 24.0998L118.6 28.2998C116.5 30.7998 113 32.2998 108.6 32.2998C101.1 32.1998 97 27.2998 97 19.6998ZM103.9 17.0998V17.4998H112.3V17.0998C112.3 14.1998 111 12.1998 108.3 12.1998C105.6 12.1998 103.9 14.1998 103.9 17.0998Z" fill="#322C2A"/>
<path d="M115 0H101.6H100L100.2 1.6L100.4 3.2L100.5 3.7C100.6 4.5 101.3 5.1 102.1 5.1H114.3C115.1 5.1 115.8 4.5 115.9 3.7L116 3.1L116.2 1.6L116.4 0H115V0Z" fill="#322C2A"/>
</svg>
