<svg width="118" height="56" viewBox="0 0 118 56" fill="none" xmlns="http://www.w3.org/2000/svg">
<path d="M5.32648 28.0248V31.9179C5.31382 33.1252 5.7361 34.2963 6.51506 35.214C7.29403 36.1318 8.37686 36.7339 9.56288 36.909C10.7212 37.1874 11.9322 37.1516 13.0724 36.8053C14.2126 36.459 15.2413 35.8145 16.0537 34.9375C17.5154 33.3403 17.4659 29.4722 17.4659 27.95V1.89648H22.7924V32.2173C22.6723 33.8428 22.134 35.4087 21.2304 36.7609C20.3268 38.113 19.0891 39.2048 17.6393 39.9286C15.2706 41.1986 12.5771 41.7204 9.90972 41.4259C1.80852 40.7022 0 34.638 0 32.0676V28.0248H5.32648Z" fill="#393937"/>
<path d="M36.3687 1.89648H31.4386V40.228H36.3687V1.89648Z" fill="#393937"/>
<path d="M100.955 40.2282H118L94.8855 0L73.976 36.959L59.8547 17.5686L75.9828 1.89661H69.3928L49.9945 20.8627V1.89661H44.9406V40.2282H49.9945V27.1765L56.4111 20.9127L70.3094 40.2282H75.8093H88.7663V35.9608H79.798L94.9103 8.85918L110.345 35.9608H100.955V40.2282Z" fill="#393937"/>
<path d="M97.5612 40.0531V24.0566L92.532 29.3222V45.3187L97.5612 40.0531Z" fill="#393937"/>
<path d="M6.86251 55.7C6.31951 55.9182 5.73735 56.0202 5.15308 55.9994C4.71685 56.026 4.28004 55.9578 3.87231 55.7993C3.46457 55.6409 3.09544 55.3959 2.78995 55.0811C2.48447 54.7663 2.24979 54.389 2.10183 53.9747C1.95387 53.5605 1.89609 53.1191 1.93242 52.6804C1.9037 52.2227 1.97161 51.7642 2.13168 51.3349C2.29174 50.9056 2.54033 50.5154 2.86105 50.19C3.18176 49.8646 3.56732 49.6114 3.99229 49.447C4.41726 49.2826 4.87199 49.2109 5.3265 49.2365C5.8599 49.2199 6.39104 49.3133 6.88728 49.511L6.66431 50.2098C6.26209 50.0154 5.82215 49.9131 5.37605 49.9103C5.03107 49.9089 4.68959 49.9801 4.3735 50.1193C4.05741 50.2585 3.77366 50.4627 3.54044 50.7188C3.30722 50.9748 3.12966 51.2771 3.01914 51.6063C2.90862 51.9355 2.86757 52.2843 2.89862 52.6304C2.89862 53.2923 3.15963 53.9271 3.62424 54.3951C4.08885 54.8631 4.71899 55.126 5.37605 55.126C5.82472 55.1479 6.27276 55.0713 6.68909 54.9014L6.86251 55.7Z" fill="#393937"/>
<path d="M7.60571 55.4005L9.71153 52.6305L10.3309 51.8818H7.85346V51.208H11.3466V51.757L9.26559 54.4772C9.08115 54.7375 8.88266 54.9874 8.67101 55.2258H11.3962V55.8996H7.60571V55.4005Z" fill="#393937"/>
<path d="M15.2362 53.0811C15.261 52.9118 15.2495 52.7392 15.2025 52.5749C15.1555 52.4105 15.0741 52.2582 14.9638 52.1281C14.8535 51.9981 14.7168 51.8934 14.5629 51.821C14.4091 51.7486 14.2416 51.7102 14.0718 51.7085C13.7211 51.7274 13.3906 51.8796 13.1469 52.1343C12.9032 52.389 12.7645 52.7274 12.7588 53.0811H15.2362ZM12.7588 53.705C12.7403 53.9205 12.7685 54.1375 12.8413 54.3411C12.9141 54.5446 13.0298 54.7298 13.1805 54.884C13.3312 55.0381 13.5133 55.1576 13.7142 55.2341C13.9151 55.3106 14.1301 55.3423 14.3443 55.3271C14.7924 55.3403 15.2387 55.2639 15.6573 55.1025L15.806 55.7014C15.3147 55.9181 14.7812 56.0205 14.2452 56.0009C13.9219 56.0226 13.5978 55.9714 13.2966 55.851C12.9953 55.7307 12.7245 55.5442 12.5039 55.3052C12.2832 55.0662 12.1182 54.7806 12.0208 54.4692C11.9235 54.1579 11.8963 53.8286 11.9412 53.5053C11.9105 53.195 11.9435 52.8816 12.0383 52.5847C12.1331 52.2878 12.2875 52.0137 12.4921 51.7796C12.6966 51.5454 12.9468 51.3563 13.2271 51.2238C13.5075 51.0914 13.8118 51.0185 14.1213 51.0098C14.3994 51.0115 14.674 51.0721 14.9272 51.1877C15.1805 51.3034 15.4068 51.4714 15.5914 51.6808C15.776 51.8903 15.9147 52.1366 15.9987 52.4036C16.0826 52.6706 16.1098 52.9525 16.0785 53.2308C16.0954 53.3634 16.0954 53.4975 16.0785 53.6301L12.7588 53.705Z" fill="#393937"/>
<path d="M20.5626 55.7249C20.1355 55.9209 19.6691 56.0148 19.2 55.9994C18.8758 56.0204 18.551 55.9689 18.2489 55.8487C17.9467 55.7285 17.6746 55.5426 17.4521 55.3041C17.2296 55.0657 17.0622 54.7807 16.9617 54.4694C16.8613 54.1582 16.8304 53.8285 16.8712 53.5038C16.8712 52.842 17.1323 52.2072 17.5969 51.7392C18.0615 51.2712 18.6916 51.0083 19.3487 51.0083C19.7506 51.0006 20.149 51.086 20.5131 51.2578L20.3396 51.9067C20.0264 51.7723 19.6891 51.7043 19.3487 51.707C18.8822 51.707 18.4348 51.8937 18.1049 52.226C17.775 52.5583 17.5897 53.009 17.5897 53.4789C17.5897 53.9488 17.775 54.3995 18.1049 54.7318C18.4348 55.064 18.8822 55.2507 19.3487 55.2507C19.7072 55.2489 20.0614 55.1724 20.3892 55.0261L20.5626 55.7249Z" fill="#393937"/>
<path d="M21.5537 48.9873H22.2969V51.932C22.4289 51.6753 22.6366 51.466 22.8915 51.3331C23.1632 51.1755 23.47 51.0896 23.7834 51.0836C24.4028 51.0836 25.4185 51.4829 25.4185 53.105V55.9H24.7744V53.2048C24.7744 52.4312 24.5019 51.8073 23.6843 51.8073C23.431 51.8143 23.1859 51.8994 22.9821 52.0511C22.7784 52.2029 22.6257 52.4139 22.5447 52.6558C22.5187 52.7876 22.5187 52.9232 22.5447 53.055V55.9H21.5537V48.9873Z" fill="#393937"/>
<path d="M29.7292 55.2509H30.4476C31.3147 55.2509 32.1075 54.9265 32.1075 53.9782C32.1075 53.0299 31.3395 52.7054 30.4228 52.7054H29.7292V55.2509ZM29.7292 52.1315H30.4972C31.389 52.1315 31.9093 51.6324 31.9093 51.0085C31.9093 50.3846 31.3395 49.9354 30.4724 49.9354C30.2251 49.9146 29.9765 49.9146 29.7292 49.9354V52.1315ZM28.8868 49.4363C29.3914 49.3271 29.9068 49.2768 30.4228 49.2865C31.0543 49.2288 31.6857 49.3966 32.2066 49.7607C32.3863 49.8959 32.53 50.0737 32.6251 50.2783C32.7202 50.4829 32.7636 50.708 32.7516 50.9336C32.7433 51.2565 32.6332 51.5684 32.4372 51.8241C32.2412 52.0799 31.9696 52.2661 31.6616 52.3561C32.0397 52.4314 32.3801 52.637 32.6242 52.9375C32.8683 53.2381 33.0009 53.6148 32.9994 54.0031C33.0049 54.252 32.9569 54.4991 32.8585 54.7274C32.7601 54.9557 32.6138 55.1599 32.4296 55.3258C31.7896 55.805 30.9918 56.0193 30.1999 55.9247C29.7628 55.958 29.3239 55.958 28.8868 55.9247V49.4363Z" fill="#393937"/>
<path d="M36.6659 53.5044C35.7492 53.5044 34.684 53.5044 34.684 54.5526C34.6728 54.6613 34.6855 54.7712 34.721 54.8745C34.7566 54.9779 34.8141 55.0721 34.8897 55.1506C34.9653 55.2291 35.057 55.2899 35.1584 55.3289C35.2598 55.3679 35.3685 55.384 35.4767 55.3761C35.7292 55.3815 35.977 55.3075 36.1857 55.1643C36.3944 55.0212 36.5536 54.8161 36.6411 54.5775C36.6534 54.4864 36.6534 54.3941 36.6411 54.303L36.6659 53.5044ZM37.4834 54.7772C37.4564 55.151 37.4564 55.5263 37.4834 55.9002H36.7154V55.3012C36.5504 55.5266 36.3333 55.7081 36.0829 55.8299C35.8325 55.9516 35.5564 56.01 35.2785 56C35.0958 56.014 34.9123 55.9893 34.7396 55.9275C34.567 55.8657 34.4091 55.7682 34.2761 55.6413C34.1431 55.5144 34.0379 55.3608 33.9674 55.1905C33.8968 55.0202 33.8624 54.8369 33.8664 54.6524C33.8664 53.5044 34.8574 52.8806 36.6659 52.9055C36.6866 52.7597 36.6733 52.6111 36.6271 52.4714C36.5809 52.3317 36.503 52.2047 36.3997 52.1006C36.2963 51.9965 36.1703 51.918 36.0316 51.8715C35.8929 51.8249 35.7453 51.8116 35.6006 51.8324C35.1706 51.8257 34.7482 51.9473 34.3867 52.1818L34.1885 51.6078C34.6536 51.3306 35.184 51.1841 35.7245 51.1836C37.1614 51.1836 37.5082 52.1818 37.5082 53.1052L37.4834 54.7772Z" fill="#393937"/>
<path d="M39.8867 50.0596V51.1826H41.1006V51.8314H39.8867V54.327C39.8867 54.9259 40.0601 55.2503 40.5308 55.2503C40.6945 55.282 40.8627 55.282 41.0263 55.2503V55.9241C40.78 55.9617 40.5294 55.9617 40.2831 55.9241C40.1144 55.9348 39.9454 55.9092 39.7874 55.849C39.6293 55.7887 39.4858 55.6952 39.3664 55.5747C39.0986 55.2178 38.9747 54.7721 39.0196 54.327V51.8314H38.3011V51.1826H39.0196V50.3091L39.8867 50.0596Z" fill="#393937"/>
<path d="M42.1163 48.9873H42.9587V51.932C43.0927 51.6681 43.3108 51.4572 43.578 51.3331C43.8392 51.1721 44.1389 51.0858 44.4451 51.0836C45.0645 51.0836 46.0802 51.4829 46.0802 53.105V55.9H45.2131V53.2048C45.2131 52.4312 44.9406 51.8073 44.1478 51.8073C43.8926 51.8068 43.6441 51.889 43.4388 52.0418C43.2336 52.1946 43.0826 52.4099 43.0082 52.6558C42.9822 52.7876 42.9822 52.9232 43.0082 53.055V55.9H42.1163V48.9873Z" fill="#393937"/>
<path d="M47.4181 52.6552C47.4181 52.1062 47.4181 51.632 47.4181 51.1828H48.1613V52.1311C48.2357 51.8401 48.4011 51.581 48.6332 51.3922C48.8652 51.2034 49.1515 51.095 49.4496 51.083H49.6973V51.8816H49.5487C49.2622 51.8921 48.9892 52.0064 48.7798 52.2036C48.5704 52.4008 48.4387 52.6675 48.4091 52.9547C48.3967 53.0875 48.3967 53.2211 48.4091 53.354V55.8495H47.542L47.4181 52.6552Z" fill="#393937"/>
<path d="M51.1093 53.5545C51.1093 54.5777 51.7039 55.3513 52.5215 55.3513C53.339 55.3513 53.9584 54.6026 53.9584 53.5295C53.9584 52.4564 53.562 51.7327 52.5462 51.7327C51.5305 51.7327 51.1093 52.6561 51.1093 53.5545ZM54.8255 53.5545C54.8535 53.8766 54.8137 54.201 54.7086 54.5065C54.6035 54.8121 54.4355 55.0918 54.2157 55.3274C53.9958 55.563 53.729 55.7491 53.4328 55.8736C53.1366 55.9982 52.8176 56.0583 52.4967 56.05C52.1798 56.0556 51.8653 55.9929 51.5743 55.8664C51.2832 55.7398 51.0223 55.5522 50.809 55.316C50.5956 55.0799 50.4347 54.8006 50.337 54.4968C50.2393 54.1931 50.207 53.8718 50.2422 53.5545C50.2181 53.2332 50.2607 52.9104 50.3672 52.6066C50.4737 52.3029 50.6419 52.0247 50.8609 51.79C51.08 51.5552 51.3452 51.369 51.6396 51.2432C51.934 51.1173 52.2512 51.0546 52.571 51.0589C52.888 51.0534 53.2024 51.116 53.4935 51.2426C53.7845 51.3692 54.0454 51.5568 54.2587 51.7929C54.4721 52.0291 54.633 52.3084 54.7307 52.6121C54.8284 52.9159 54.8608 53.2371 54.8255 53.5545Z" fill="#393937"/>
<path d="M56.4358 53.5545C56.4358 54.5777 57.0056 55.3513 57.8479 55.3513C58.6903 55.3513 59.2601 54.6026 59.2601 53.5295C59.2601 52.4564 58.8637 51.7327 57.8479 51.7327C56.8322 51.7327 56.4358 52.6561 56.4358 53.5545ZM60.1272 53.5545C60.1552 53.8766 60.1154 54.201 60.0103 54.5065C59.9052 54.8121 59.7372 55.0918 59.5174 55.3274C59.2975 55.563 59.0307 55.7491 58.7345 55.8736C58.4383 55.9982 58.1193 56.0583 57.7984 56.05C57.4823 56.056 57.1687 55.9936 56.8787 55.8668C56.5888 55.74 56.3292 55.5519 56.1178 55.3152C55.9063 55.0785 55.7478 54.7988 55.6531 54.495C55.5584 54.1912 55.5296 53.8705 55.5687 53.5545C55.541 53.2345 55.5801 52.9122 55.6838 52.6085C55.7874 52.3047 55.9531 52.0262 56.1703 51.7911C56.3874 51.5559 56.6511 51.3692 56.9444 51.2431C57.2376 51.1169 57.5539 51.0542 57.8727 51.0589C58.1897 51.0534 58.5041 51.116 58.7952 51.2426C59.0862 51.3692 59.3471 51.5568 59.5604 51.7929C59.7738 52.0291 59.9347 52.3084 60.0324 52.6121C60.1301 52.9159 60.1625 53.2371 60.1272 53.5545Z" fill="#393937"/>
<path d="M61.2173 52.4055C61.2173 51.9064 61.2173 51.5321 61.2173 51.1328H61.9357V51.9064C62.072 51.6361 62.2818 51.4104 62.5406 51.2557C62.7994 51.1011 63.0966 51.0238 63.3974 51.033C63.6881 51.0293 63.9723 51.1193 64.2085 51.2899C64.4448 51.4606 64.6206 51.7028 64.7105 51.9813C64.8454 51.7362 65.0314 51.5234 65.2555 51.3574C65.5477 51.1363 65.9059 51.0219 66.2712 51.033C66.8906 51.033 67.8073 51.4572 67.8073 53.0793V55.8993H66.9897V53.229C66.9897 52.3306 66.6429 51.7816 65.9739 51.7816C65.7465 51.7907 65.5272 51.8697 65.3456 52.008C65.1641 52.1463 65.0288 52.3373 64.9582 52.5552C64.9443 52.6963 64.9443 52.8384 64.9582 52.9795V55.8993H64.1407V53.0793C64.1407 52.3306 63.7938 51.7816 63.1497 51.7816C62.9063 51.796 62.6739 51.8885 62.4866 52.0457C62.2993 52.203 62.167 52.4165 62.1092 52.6551C62.0831 52.7869 62.0831 52.9226 62.1092 53.0544V55.8993H61.2916L61.2173 52.4055Z" fill="#393937"/>
<path d="M69.1451 55.0269C69.4911 55.235 69.8823 55.3549 70.2847 55.3763C70.8793 55.3763 71.1766 55.0519 71.1766 54.6526C71.1766 54.2533 70.9288 54.0287 70.3095 53.8041C69.6901 53.5795 69.0708 53.0305 69.0708 52.4815C69.0798 52.2812 69.1294 52.0849 69.2164 51.9047C69.3035 51.7244 69.4261 51.5639 69.5769 51.4331C69.7277 51.3022 69.9034 51.2038 70.0932 51.1437C70.2831 51.0837 70.4832 51.0634 70.6811 51.084C71.0817 51.0712 71.4774 51.1752 71.8207 51.3834L71.6225 52.0073C71.342 51.8252 71.0148 51.7298 70.6811 51.7328C70.1608 51.7328 69.8883 52.0073 69.8883 52.3567C69.8883 52.7061 70.1608 52.9307 70.7802 53.1802C71.3996 53.4298 71.9941 53.879 71.9941 54.5777C71.9941 55.2765 71.35 56.0002 70.2599 56.0002C69.8009 56.0168 69.3463 55.9044 68.9469 55.6758L69.1451 55.0269Z" fill="#393937"/>
<path d="M75.0413 55.0268C75.38 55.231 75.7622 55.3508 76.1562 55.3761C76.7755 55.3761 77.0728 55.0517 77.0728 54.6524C77.0728 54.2531 76.8251 54.0286 76.2057 53.804C75.5864 53.5794 74.9422 53.0303 74.9422 52.4813C74.951 52.2787 75.0013 52.0801 75.0898 51.898C75.1784 51.7159 75.3033 51.5541 75.4568 51.4229C75.6104 51.2917 75.7891 51.1939 75.9819 51.1355C76.1748 51.0772 76.3775 51.0596 76.5773 51.0838C76.9774 51.0751 77.3721 51.1788 77.717 51.3833L77.494 52.0072C77.2135 51.8251 76.8862 51.7296 76.5526 51.7327C76.0571 51.7327 75.7846 52.0072 75.7846 52.3565C75.7846 52.7059 76.0571 52.9305 76.6517 53.1801C77.2462 53.4296 77.8904 53.8788 77.8904 54.5776C77.8904 55.2763 77.2462 56 76.1314 56C75.6735 56.0058 75.2217 55.8941 74.8184 55.6756L75.0413 55.0268Z" fill="#393937"/>
<path d="M78.9806 51.1832H79.8229V55.8998H78.9806V51.1832ZM79.922 49.8606C79.9259 49.9326 79.9143 50.0047 79.888 50.0717C79.8616 50.1388 79.8212 50.1994 79.7694 50.2492C79.7176 50.299 79.6557 50.3369 79.5879 50.3603C79.5202 50.3837 79.4482 50.392 79.3769 50.3847C79.239 50.3847 79.1066 50.3294 79.0091 50.2312C78.9115 50.1329 78.8567 49.9996 78.8567 49.8606C78.8566 49.7896 78.8708 49.7194 78.8985 49.6541C78.9262 49.5888 78.9668 49.5299 79.0177 49.4809C79.0687 49.4319 79.129 49.3938 79.195 49.369C79.261 49.3442 79.3313 49.3332 79.4017 49.3365C79.5397 49.3365 79.672 49.3917 79.7696 49.49C79.8672 49.5883 79.922 49.7216 79.922 49.8606Z" fill="#393937"/>
<path d="M81.2349 52.4071C81.2617 51.9833 81.2617 51.5581 81.2349 51.1343H82.0029V51.908C82.1579 51.6373 82.3822 51.4135 82.6524 51.2598C82.9226 51.1062 83.2287 51.0284 83.5389 51.0345C84.183 51.0345 85.1987 51.4338 85.1987 53.0559V55.9008H84.3316V53.1807C84.3316 52.432 84.0591 51.7832 83.2664 51.7832C83.01 51.792 82.7627 51.8808 82.5585 52.0372C82.3544 52.1937 82.2035 52.4101 82.1267 52.6566C82.1031 52.7886 82.1031 52.9239 82.1267 53.0559V55.9008H81.2844L81.2349 52.4071Z" fill="#393937"/>
<path d="M89.7077 55.7249C89.2806 55.9209 88.8143 56.0148 88.3452 55.9994C88.021 56.0204 87.6962 55.9689 87.394 55.8487C87.0918 55.7285 86.8198 55.5426 86.5973 55.3041C86.3747 55.0657 86.2073 54.7807 86.1069 54.4694C86.0065 54.1582 85.9756 53.8285 86.0164 53.5038C86.0164 52.842 86.2774 52.2072 86.742 51.7392C87.2066 51.2712 87.8368 51.0083 88.4938 51.0083C88.8958 51.0006 89.2941 51.086 89.6582 51.2578L89.4848 51.9067C89.1716 51.7723 88.8342 51.7043 88.4938 51.707C88.0273 51.707 87.5799 51.8937 87.25 52.226C86.9201 52.5583 86.7348 53.009 86.7348 53.4789C86.7348 53.9488 86.9201 54.3995 87.25 54.7318C87.5799 55.064 88.0273 55.2507 88.4938 55.2507C88.8523 55.2489 89.2066 55.1724 89.5343 55.0261L89.7077 55.7249Z" fill="#393937"/>
<path d="M93.6716 53.0811C93.6925 52.9105 93.6775 52.7373 93.6275 52.573C93.5775 52.4086 93.4936 52.2567 93.3814 52.1272C93.2692 51.9977 93.1311 51.8934 92.9762 51.8213C92.8213 51.7492 92.6531 51.7107 92.4824 51.7085C92.1318 51.7274 91.8012 51.8796 91.5576 52.1343C91.3139 52.389 91.1752 52.7274 91.1694 53.0811H93.6716ZM91.1942 53.705C91.1753 53.9228 91.2039 54.1421 91.2782 54.3476C91.3524 54.553 91.4704 54.7396 91.6239 54.8942C91.7774 55.0488 91.9626 55.1677 92.1666 55.2424C92.3705 55.3172 92.5883 55.3461 92.8045 55.3271C93.2444 55.3383 93.6822 55.262 94.0928 55.1025L94.2414 55.7014C93.7501 55.9181 93.2166 56.0205 92.6806 56.0009C92.3573 56.0226 92.0332 55.9714 91.732 55.851C91.4308 55.7307 91.16 55.5442 90.9393 55.3052C90.7186 55.0662 90.5536 54.7806 90.4563 54.4692C90.3589 54.1579 90.3317 53.8286 90.3766 53.5053C90.3495 53.1937 90.3859 52.8797 90.4835 52.5827C90.5812 52.2858 90.7381 52.012 90.9446 51.7783C91.151 51.5446 91.4028 51.3559 91.6842 51.2238C91.9657 51.0916 92.2711 51.0188 92.5815 51.0098C92.8575 51.0149 93.1293 51.0781 93.3796 51.1953C93.6299 51.3124 93.8532 51.4809 94.0351 51.69C94.217 51.8991 94.3536 52.1441 94.436 52.4095C94.5185 52.6748 94.545 52.9545 94.5139 53.2308C94.5139 53.4055 94.5139 53.5303 94.5139 53.6301L91.1942 53.705Z" fill="#393937"/>
<path d="M98.7752 49.5625L97.3878 50.3112L97.5612 50.96L98.6513 50.3611H98.6761V55.9012H99.4936V49.5625H98.7752Z" fill="#393937"/>
<path d="M102.268 51.0846C102.268 51.7334 102.739 52.0579 103.482 52.2575C103.743 52.1972 103.976 52.0521 104.146 51.8445C104.317 51.6369 104.414 51.3786 104.424 51.1095C104.432 50.9688 104.409 50.8279 104.358 50.6967C104.306 50.5656 104.227 50.4473 104.126 50.35C104.024 50.2526 103.903 50.1787 103.771 50.1332C103.638 50.0876 103.498 50.0717 103.358 50.0864C103.22 50.0724 103.08 50.0878 102.949 50.1317C102.817 50.1755 102.695 50.2468 102.593 50.341C102.49 50.4351 102.408 50.5499 102.352 50.678C102.296 50.8062 102.268 50.9447 102.268 51.0846ZM104.622 54.2539C104.622 53.5053 104.077 53.106 103.234 52.8814C102.925 52.9328 102.643 53.0898 102.436 53.3262C102.228 53.5626 102.108 53.8638 102.095 54.1791C102.091 54.3439 102.121 54.5078 102.184 54.6601C102.247 54.8123 102.342 54.9494 102.461 55.0624C102.58 55.1755 102.722 55.2619 102.876 55.3161C103.031 55.3703 103.195 55.391 103.358 55.3769C103.516 55.3943 103.675 55.3784 103.827 55.3301C103.978 55.2818 104.117 55.2023 104.236 55.0966C104.355 54.9909 104.451 54.8613 104.517 54.7162C104.584 54.5711 104.619 54.4137 104.622 54.2539ZM102.466 52.5819C102.205 52.4474 101.984 52.2444 101.827 51.994C101.67 51.7437 101.583 51.4554 101.575 51.1595C101.583 50.9153 101.642 50.6757 101.747 50.4555C101.852 50.2353 102.001 50.0394 102.185 49.88C102.369 49.7207 102.583 49.6013 102.815 49.5295C103.047 49.4576 103.291 49.4348 103.532 49.4625C103.756 49.4347 103.984 49.4542 104.201 49.5197C104.418 49.5852 104.619 49.6953 104.791 49.8431C104.963 49.9909 105.103 50.1731 105.202 50.3782C105.301 50.5833 105.356 50.8069 105.365 51.0347C105.359 51.3572 105.257 51.6706 105.071 51.9334C104.886 52.1962 104.625 52.3962 104.324 52.5071C104.683 52.6087 104.999 52.8237 105.226 53.1203C105.454 53.4169 105.581 53.7794 105.588 54.1541C105.576 54.418 105.51 54.6767 105.395 54.9138C105.28 55.151 105.117 55.3617 104.917 55.5326C104.717 55.7036 104.484 55.8312 104.233 55.9075C103.982 55.9837 103.718 56.007 103.457 55.9759C102.144 55.9759 101.352 55.2022 101.352 54.2789C101.354 53.9007 101.476 53.5331 101.698 53.2284C101.921 52.9237 102.233 52.6975 102.59 52.5819H102.466Z" fill="#393937"/>
<path d="M110.345 49.5625V50.1365L107.62 55.9012H106.728L109.453 50.3112V50.2862H106.381V49.5625H110.345Z" fill="#393937"/>
<path d="M112.203 51.0837C112.203 51.7326 112.673 52.057 113.392 52.2566C113.655 52.1973 113.892 52.0531 114.066 51.8459C114.241 51.6387 114.343 51.3799 114.358 51.1087C114.319 50.849 114.189 50.6122 113.991 50.441C113.793 50.2698 113.541 50.1757 113.28 50.1757C113.02 50.1757 112.768 50.2698 112.57 50.441C112.372 50.6122 112.242 50.849 112.203 51.1087V51.0837ZM114.532 54.278C114.532 53.5294 114.011 53.1301 113.144 52.9055C112.84 52.962 112.563 53.1213 112.361 53.3572C112.158 53.593 112.041 53.8914 112.029 54.2031C112.087 54.4914 112.242 54.7507 112.467 54.937C112.693 55.1233 112.976 55.2251 113.268 55.2251C113.56 55.2251 113.843 55.1233 114.069 54.937C114.294 54.7507 114.449 54.4914 114.507 54.2031L114.532 54.278ZM112.351 52.5311C112.068 52.4157 111.823 52.22 111.647 51.9676C111.471 51.7151 111.372 51.4168 111.36 51.1087C111.369 50.8646 111.428 50.6249 111.533 50.4047C111.638 50.1845 111.787 49.9886 111.971 49.8293C112.155 49.6699 112.369 49.5505 112.601 49.4787C112.833 49.4068 113.077 49.384 113.318 49.4117C113.542 49.3839 113.77 49.4034 113.987 49.4689C114.204 49.5344 114.405 49.6446 114.577 49.7924C114.749 49.9401 114.889 50.1223 114.988 50.3275C115.087 50.5326 115.142 50.7561 115.151 50.9839C115.142 51.3056 115.038 51.6174 114.853 51.8796C114.668 52.1418 114.409 52.3425 114.11 52.4563C114.467 52.5614 114.781 52.7774 115.008 53.0732C115.234 53.369 115.363 53.7296 115.374 54.1033C115.359 54.3684 115.29 54.6275 115.172 54.8647C115.054 55.102 114.889 55.3124 114.687 55.4831C114.485 55.6537 114.25 55.7809 113.998 55.8569C113.745 55.933 113.48 55.9561 113.218 55.9251C111.905 55.9251 111.113 55.1515 111.113 54.2281C111.121 53.8478 111.247 53.4796 111.474 53.1753C111.701 52.8709 112.016 52.6457 112.376 52.5311H112.351Z" fill="#393937"/>
</svg>
