<svg width="192" height="27" viewBox="0 0 192 27" fill="none" xmlns="http://www.w3.org/2000/svg">
<path fill-rule="evenodd" clip-rule="evenodd" d="M57.5843 25.2999C53.3936 26.3864 50.1341 26.3864 47.6506 26.3864C40.8212 26.3864 32.9053 22.9717 32.9053 13.3484C32.9053 3.72514 39.7347 0 49.0476 0C50.7549 0 54.3248 0.155214 56.8083 1.24171V6.82943C54.7905 5.58771 51.531 5.12207 49.9788 5.12207C44.3911 5.12207 39.8899 7.45029 39.8899 13.5036C39.8899 18.4705 43.4598 21.5748 48.4267 21.5748C49.358 21.5748 50.2893 21.2644 50.9101 21.1091V15.9871H46.8746V11.0202H57.4291V25.2999" fill="black"/>
<path fill-rule="evenodd" clip-rule="evenodd" d="M63.4824 0.46582H81.3321V5.27746H70.1566V10.5547H80.7112V15.3664H70.1566V21.2645H81.7977V26.0762H63.4824V0.46582Z" fill="black"/>
<path fill-rule="evenodd" clip-rule="evenodd" d="M93.7497 15.2111H95.7674C98.0957 15.2111 100.89 15.5215 100.89 18.1602C100.89 20.7988 98.2509 21.1093 95.7674 21.1093H93.7497V15.2111ZM87.0754 26.0761H97.9404C102.442 26.0761 107.874 24.8344 107.874 18.6258C107.874 15.5215 106.167 13.659 102.597 13.0381V12.8829C105.391 11.9516 107.098 10.089 107.098 6.82955C107.098 2.48355 103.528 0.310547 98.7165 0.310547H87.0754V26.0761ZM93.7497 5.2774H95.7674C98.0957 5.2774 100.269 5.43262 100.269 7.76083C100.269 9.93383 97.9404 10.5547 95.7674 10.5547H93.7497V5.2774Z" fill="black"/>
<path fill-rule="evenodd" clip-rule="evenodd" d="M112.686 0.46582H130.691V5.27746H119.515V10.5547H130.07V15.3664H119.515V21.2645H131.156V26.0762H112.686V0.46582Z" fill="black"/>
<path fill-rule="evenodd" clip-rule="evenodd" d="M143.108 5.27746H144.815C147.454 5.27746 149.937 5.74311 149.937 8.07132C149.937 11.0204 147.143 11.0204 144.815 11.0204H143.108V5.27746ZM136.123 26.0762H142.952V15.9872H144.349C146.833 15.9872 147.764 17.229 149.006 21.575L150.558 26.0762H157.543L155.059 19.2467C153.817 16.1425 153.662 14.1247 151.489 13.5038C154.904 12.7277 156.456 10.3995 156.456 6.98482C156.456 2.63882 152.886 0.46582 148.23 0.46582H135.968V26.0762H136.123Z" fill="black"/>
<path d="M168.873 0.46582H162.043V26.0762H168.873V0.46582Z" fill="black"/>
<path fill-rule="evenodd" clip-rule="evenodd" d="M178.962 5.43268H172.598V0.46582H192V5.43268H185.636V26.0762H178.962V5.43268Z" fill="black"/>
<path d="M25.6104 0.46582H0V26.0762H25.6104V0.46582Z" fill="#0072BA"/>
</svg>
