<svg width="16" height="16" viewBox="0 0 16 16" fill="none" xmlns="http://www.w3.org/2000/svg">
<path d="M11.4309 11.067L10.9154 11.8402C10.8125 11.9945 10.6764 12.1262 10.4971 12.1736C9.90962 12.3289 8.35006 12.399 5.97566 10.0246C3.60127 7.65017 3.67135 6.09058 3.82657 5.50314C3.87396 5.3238 4.00565 5.18772 4.15999 5.08483L4.93324 4.56933C5.50894 4.18553 5.66451 3.4077 5.28071 2.83199L3.8203 0.641382C3.4853 0.138885 2.83949 -0.0530966 2.2844 0.184802L1.6256 0.467143C1.12514 0.681625 0.716904 1.06655 0.473403 1.55356C0.269966 1.96043 0.112288 2.38889 0.0909242 2.84329C0.0235984 4.27527 0.337595 7.80324 4.26729 11.7329C8.19698 15.6626 11.7249 15.9766 13.1569 15.9093C13.6113 15.8879 14.0398 15.7302 14.4466 15.5268C14.9336 15.2833 15.3186 14.8751 15.5331 14.3746L15.8154 13.7158C16.0533 13.1607 15.8613 12.5149 15.3588 12.1799L13.1682 10.7195C12.5925 10.3357 11.8147 10.4913 11.4309 11.067Z" fill="black"/>
</svg>
