<svg width="39" height="39" viewBox="0 0 39 39" fill="none" xmlns="http://www.w3.org/2000/svg">
<circle cx="19.5" cy="19.5" r="19.5" fill="#EBEEEF"/>
<path d="M24.1169 22.6803L23.4983 23.6082C23.3748 23.7934 23.2115 23.9514 22.9963 24.0083C22.2914 24.1946 20.4199 24.2787 17.5706 21.4294C14.7213 18.5801 14.8054 16.7086 14.9917 16.0037C15.0486 15.7885 15.2066 15.6252 15.3918 15.5017L16.3197 14.8831C17.0105 14.4226 17.1972 13.4892 16.7367 12.7983L14.9842 10.1696C14.5822 9.56661 13.8072 9.33624 13.1411 9.62171L12.3505 9.96052C11.75 10.2179 11.2601 10.6798 10.9679 11.2642C10.7238 11.7525 10.5346 12.2666 10.5089 12.8119C10.4281 14.5303 10.8049 18.7638 15.5206 23.4795C20.2362 28.1951 24.4697 28.5719 26.1881 28.4911C26.7334 28.4654 27.2475 28.2762 27.7358 28.0321C28.3202 27.7399 28.7821 27.25 29.0395 26.6495L29.3783 25.8589C29.6638 25.1928 29.4334 24.4178 28.8304 24.0158L26.2017 22.2633C25.5108 21.8028 24.5774 21.9895 24.1169 22.6803Z" fill="black"/>
</svg>
