<svg width="10" height="10" viewBox="0 0 10 10" fill="none" xmlns="http://www.w3.org/2000/svg">
<path d="M6.80843 6.59015L6.49913 7.0541C6.43739 7.1467 6.35574 7.22572 6.24814 7.25416C5.89568 7.34729 4.95994 7.38935 3.5353 5.96471C2.11066 4.54007 2.15271 3.60432 2.24584 3.25186C2.27428 3.14426 2.35329 3.06261 2.4459 3.00087L2.90985 2.69157C3.25527 2.46129 3.34861 1.99459 3.11833 1.64917L2.24208 0.334805C2.04108 0.0333063 1.6536 -0.0818824 1.32054 0.0608568L0.925263 0.230261C0.624987 0.358951 0.380045 0.589908 0.233944 0.882109C0.111882 1.12623 0.0172751 1.38331 0.00445686 1.65595C-0.0359386 2.51514 0.152459 4.63192 2.51028 6.98974C4.86809 9.34755 6.98486 9.53594 7.84405 9.49554C8.11669 9.48272 8.37377 9.38812 8.61789 9.26606C8.91009 9.11996 9.14105 8.87501 9.26974 8.57474L9.43914 8.17946C9.58188 7.8464 9.46669 7.45891 9.1652 7.25792L7.85083 6.38167C7.50541 6.15139 7.03871 6.24473 6.80843 6.59015Z" fill="white"/>
</svg>
