<svg width="14" height="14" viewBox="0 0 14 14" fill="none" xmlns="http://www.w3.org/2000/svg">
<path d="M12.3218 5.22977C11.8262 4.7821 11.3381 4.31924 10.85 3.86398C10.3619 3.41631 9.88134 2.96104 9.39327 2.50578C8.74748 1.90635 8.1017 1.30692 7.45593 0.707486C7.2682 0.532968 7.08048 0.350864 6.87774 0.183934C6.73506 0.0625297 6.52481 0.0701174 6.39716 0.183934C6.22446 0.335688 6.22446 0.570908 6.41217 0.745424C6.6825 0.99582 6.95283 1.24621 7.22315 1.49661C7.78633 2.02016 8.34199 2.54372 8.90517 3.05968C9.47586 3.59082 10.0466 4.11438 10.6172 4.64551C10.9701 4.97179 11.3306 5.29806 11.6835 5.62434C11.9013 5.82919 12.1265 6.01889 12.3143 6.24653C13.1928 7.3088 13.4932 8.51526 13.1703 9.86587C12.9826 10.655 12.5771 11.3227 11.9764 11.8538C11.0152 12.7037 9.89635 13.03 8.63484 12.8099C7.929 12.6885 7.29824 12.385 6.7576 11.907C6.08177 11.2999 5.4285 10.6853 4.76019 10.0707C4.34719 9.68376 3.9342 9.29679 3.51369 8.90981C2.83788 8.29521 2.16958 7.6806 1.50127 7.05841C1.34359 6.91424 1.19341 6.77007 1.02821 6.63349C0.893046 6.51967 0.750374 6.51209 0.607702 6.58797C0.47254 6.66384 0.427486 6.79284 0.434996 6.9446C0.442504 7.05083 0.495067 7.12671 0.562648 7.195C0.990663 7.59714 1.41116 7.99928 1.83919 8.39385C2.25969 8.7884 2.6877 9.17539 3.11572 9.56994C3.59629 10.01 4.06936 10.4577 4.54994 10.8978C5.05304 11.3606 5.55615 11.8159 6.05174 12.2864C6.96784 13.1589 8.04914 13.599 9.38575 13.6218C9.48336 13.6142 9.66358 13.599 9.84379 13.5838C10.4595 13.5231 11.0377 13.3335 11.5784 13.03C12.5095 12.5064 13.1928 11.74 13.6208 10.7536C13.8311 10.2604 13.9512 9.74446 13.9888 9.20574C14.0338 8.52284 13.9437 7.86271 13.711 7.22535C13.4256 6.43622 12.9375 5.78367 12.3218 5.22977Z" fill="white"/>
<path d="M11.5108 8.1439C11.5559 8.31083 11.5709 8.49294 11.6009 8.65988C11.631 8.83438 11.7136 8.92544 11.8563 8.95579C12.0815 9.00132 12.2768 8.84956 12.2617 8.61435C12.2467 8.40189 12.2242 8.18943 12.1641 7.98457C11.9914 7.34719 11.661 6.80846 11.1579 6.38356C10.392 5.73102 9.51343 5.52614 8.54478 5.69308C7.81639 5.82206 7.20817 6.19386 6.7351 6.77053C6.25452 7.35478 6.01423 8.03767 6.00671 8.81921C6.01423 8.92544 6.01423 9.05443 6.02925 9.17584C6.05929 9.35795 6.09682 9.53247 6.14189 9.70697C6.50232 10.959 7.62868 11.8922 9.01033 11.9529C9.70115 11.9833 10.3394 11.8012 10.9101 11.3915C11.4508 11.0121 11.8337 10.5113 12.059 9.88908C12.089 9.80562 12.0965 9.6918 12.0665 9.60833C12.029 9.48694 11.9313 9.41106 11.7962 9.39589C11.661 9.38071 11.5559 9.44141 11.4958 9.55522C11.4357 9.66145 11.3907 9.78285 11.3306 9.89667C11.0002 10.5568 10.4821 10.9893 9.78376 11.1866C9.29567 11.3232 8.81509 11.3156 8.33452 11.1335C7.44094 10.7996 6.88528 10.1622 6.71256 9.22895C6.55488 8.37913 6.80267 7.63553 7.4034 7.01334C8.0792 6.32286 9.18304 6.06487 10.1292 6.51255C10.8425 6.85399 11.3081 7.38513 11.5108 8.1439Z" fill="white"/>
<path d="M2.22964 5.45057C2.74026 5.921 3.24336 6.39145 3.75398 6.86188C4.03181 7.11987 4.30965 7.37784 4.59498 7.63583C4.66257 7.70412 4.73765 7.74206 4.82776 7.73447C5.0305 7.76482 5.22575 7.58272 5.21072 7.35508C5.19571 7.21851 5.12812 7.13505 5.03801 7.05158C4.54242 6.58872 4.04683 6.13346 3.55122 5.6782C2.58256 4.78285 1.62142 3.88749 0.660256 2.99214C0.600183 2.93902 0.532602 2.88591 0.457511 2.84797C0.262276 2.75692 0.0445154 2.87832 0.0069692 3.09078C-0.0155573 3.23495 0.0144791 3.36395 0.127115 3.47016C0.322349 3.65227 0.510074 3.83438 0.705308 4.01649C1.20841 4.49451 1.71902 4.97253 2.22964 5.45057Z" fill="white"/>
<path d="M0.472482 0.7686C0.998113 1.26939 1.52374 1.76259 2.04938 2.26339C2.68765 2.8704 3.32591 3.47742 3.96418 4.08443C4.11436 4.2286 4.27204 4.37277 4.42974 4.50936C4.62497 4.68386 4.93284 4.57004 5.00043 4.35001C5.05299 4.18308 5.00043 4.05408 4.88028 3.94026C4.66251 3.72782 4.44476 3.52295 4.227 3.31807C3.68634 2.80211 3.14569 2.29373 2.61255 1.78535C2.16202 1.36803 1.71899 0.943118 1.26844 0.518206C1.11826 0.37404 0.975587 0.237459 0.817897 0.100881C0.705261 0.00224055 0.577609 -0.0356981 0.434937 0.0401791C0.307284 0.108469 0.239703 0.214697 0.232193 0.40439C0.247211 0.442329 0.269739 0.525794 0.314792 0.594084C0.352338 0.654785 0.412409 0.715487 0.472482 0.7686Z" fill="white"/>
<path d="M4.1596 1.31455C4.27223 1.42078 4.39238 1.52701 4.50501 1.63324C5.331 2.40719 6.15699 3.18113 6.9905 3.95508C7.13317 4.08408 7.27585 4.21307 7.42602 4.33446C7.53867 4.42552 7.67382 4.42551 7.80148 4.35722C7.92912 4.28893 7.98919 4.17513 7.98919 4.02337C7.99671 3.84885 7.86905 3.7578 7.76393 3.65157C7.24582 3.17355 6.72768 2.69553 6.21707 2.2099C5.78155 1.80776 5.35353 1.40561 4.92552 1.00346C4.79037 0.874465 4.65519 0.745473 4.51253 0.62407C4.36986 0.502667 4.16712 0.517841 4.03946 0.646833C3.90429 0.783412 3.88928 0.965517 4.00191 1.12486C4.03946 1.20074 4.09953 1.26144 4.1596 1.31455Z" fill="white"/>
<path d="M10.2868 9.40356C10.0315 9.79812 9.66357 10.0333 9.1905 10.0865C8.89015 10.1244 8.6048 10.0865 8.33447 9.95747C8.16928 9.874 7.99658 9.92711 7.89896 10.0637C7.77881 10.2382 7.85391 10.4507 8.07917 10.5417C8.18429 10.5872 8.28943 10.6252 8.40206 10.6479C8.58228 10.6935 8.77001 10.7162 8.95772 10.7162C9.4233 10.7162 9.82126 10.61 10.1817 10.3748C10.3018 10.2989 10.4145 10.2079 10.5271 10.094C10.6623 9.96505 10.7749 9.81329 10.8725 9.65395C11.0227 9.39598 10.805 9.21387 10.6172 9.21387C10.4595 9.21387 10.3694 9.28216 10.2868 9.40356Z" fill="white"/>
<path d="M5.39856 5.26012C5.59349 5.26012 5.75148 5.10046 5.75148 4.90349C5.75148 4.70654 5.59349 4.54688 5.39856 4.54688C5.20365 4.54688 5.04564 4.70654 5.04564 4.90349C5.04564 5.10046 5.20365 5.26012 5.39856 5.26012Z" fill="white"/>
</svg>
