<svg width="99" height="99" viewBox="0 0 99 99" fill="none" xmlns="http://www.w3.org/2000/svg">
<g clip-path="url(#clip0)">
<path d="M19.8522 77.7544L18.9815 77.9286C19.0686 76.9708 18.7203 75.6647 17.8496 74.7069C16.7176 73.3138 15.5857 73.1397 14.8891 73.7492C12.7994 75.4035 17.8496 79.0605 15.0633 81.3244C13.9314 82.1951 12.277 82.108 10.7097 80.1924C10.0132 79.3217 9.57779 78.2769 9.49072 77.3191L10.3614 77.0579C10.4485 78.0156 10.8839 78.9734 11.4063 79.67C12.5382 81.0631 13.6701 81.1502 14.3667 80.5407C16.4564 78.8864 11.4063 75.2294 14.1926 72.9655C15.3245 72.0948 16.9788 72.1819 18.5461 74.0974C19.5039 75.2294 20.0263 76.7096 19.8522 77.7544Z" fill="white"/>
<path d="M11.3192 72.7914C8.70703 74.0104 5.92075 73.0526 4.61468 70.3534C4.00518 69.0473 3.83104 67.7413 4.35347 66.5223L5.22418 66.7835C4.87589 67.8283 4.96297 68.8732 5.48539 69.918C6.53025 72.0077 8.88117 72.8785 10.9709 71.8336C13.0606 70.7887 13.8442 68.4378 12.7994 66.3481C12.2769 65.3903 11.5804 64.6067 10.4485 64.2584L10.7097 63.3877C11.9287 63.736 12.9735 64.6938 13.583 65.9998C14.802 68.612 13.8442 71.5724 11.3192 72.7914Z" fill="white"/>
<path d="M10.0131 54.7676L7.40093 57.641C7.48801 57.9022 7.57508 58.1634 7.57508 58.4246L8.18458 60.9497L11.2321 60.2531L11.4933 61.298L1.91545 63.3877L1.1318 59.8178C0.609377 57.3798 1.48009 55.6383 3.5698 55.203C5.05001 54.8547 6.26901 55.4642 7.05265 56.7703L9.83893 53.7228L10.0131 54.7676ZM3.74394 56.1608C2.17666 56.5091 1.56716 57.7281 2.00252 59.5566L2.52495 62.0816L7.31386 61.0368L6.79144 58.5117C6.35608 56.6832 5.22415 55.8125 3.74394 56.1608Z" fill="white"/>
<path d="M4.70182 52.591C1.82847 52.5039 -0.174168 50.153 -2.54028e-05 47.2797C0.174117 44.3192 2.3509 42.2295 5.22425 42.4037C8.0976 42.5778 10.1002 44.8417 9.9261 47.715C9.75195 50.6754 7.57517 52.7652 4.70182 52.591ZM5.13718 43.4485C2.78625 43.3615 1.04483 45.0158 0.957758 47.3667C0.870687 49.7177 2.52504 51.5462 4.78889 51.6332C7.13982 51.7203 8.88124 50.0659 8.96831 47.715C9.14246 45.3641 7.4881 43.5356 5.13718 43.4485Z" fill="white"/>
<path d="M1.30597 38.224L1.56718 37.2662L10.1002 39.7913L11.6674 34.567L12.5382 34.8282L10.6226 40.9232L1.30597 38.224Z" fill="white"/>
<path d="M4.44055 29.0816L4.87591 28.2109L12.7123 32.3032L15.2374 27.4272L16.021 27.8626L13.0606 33.6093L4.44055 29.0816Z" fill="white"/>
<path d="M12.1028 17.0659L14.9761 14.2796C17.24 12.1028 20.1133 12.1028 22.116 14.1926C24.1186 16.2823 23.9445 19.1556 21.7677 21.3324L18.8943 24.1187L12.1028 17.0659ZM21.0711 20.7229C22.8996 18.8944 22.9867 16.5435 21.4194 14.8891C19.8521 13.2348 17.4141 13.1477 15.5856 14.9762L13.4959 16.9788L18.9814 22.7255L21.0711 20.7229Z" fill="white"/>
<path d="M23.8574 12.8865C22.5514 10.3614 23.4221 7.48807 26.0342 6.09493C28.6464 4.70179 31.5197 5.5725 32.9128 8.09757C34.2189 10.6226 33.2611 13.496 30.7361 14.8891C28.1239 16.2823 25.1635 15.4116 23.8574 12.8865ZM32.0421 8.62C30.9102 6.53029 28.6464 5.83372 26.5566 6.96564C24.4669 8.09757 23.7704 10.3614 24.8152 12.4511C25.9471 14.5408 28.2981 15.2374 30.3007 14.1055C32.3904 12.9736 33.087 10.7097 32.0421 8.62Z" fill="white"/>
<path d="M47.9762 -0.00012207L46.3219 10.1872L45.277 10.3614L41.0976 2.61202L39.6174 11.3191L38.5725 11.4933L33.6965 2.43787L34.7414 2.26373L38.9208 10.1001L40.401 1.30595L41.3588 1.1318L45.6253 8.96822L47.0184 0.17402L47.9762 -0.00012207Z" fill="white"/>
<path d="M60.2533 1.6543L58.8601 11.3192L57.9894 11.2321L52.9393 2.52501L51.8074 10.3614L50.7625 10.1873L52.2427 0.435303L53.1134 0.522374L58.1636 9.2295L59.2955 1.39309L60.2533 1.6543Z" fill="white"/>
<path d="M78.19 21.3324L79.0607 21.1583C78.9736 22.1161 79.3219 23.4221 80.1926 24.3799C81.3245 25.7731 82.4565 25.9472 83.153 25.3377C85.2427 23.6834 80.1926 20.0264 82.9789 17.7625C84.1108 16.8918 85.7652 16.9789 87.3324 18.8944C88.029 19.7652 88.4644 20.81 88.5514 21.7678L87.6807 22.029C87.5937 21.0712 87.1583 20.1134 86.6359 19.4169C85.5039 18.0237 84.372 17.9367 83.6755 18.5462C81.5857 20.2005 86.6359 23.8575 83.8496 26.1214C82.7177 26.9921 81.0633 26.905 79.496 24.9894C78.6253 23.7704 78.1029 22.3773 78.19 21.3324Z" fill="white"/>
<path d="M86.7229 26.2082C89.248 24.9892 92.1213 25.947 93.4274 28.6462C94.0369 29.9523 94.2111 31.2584 93.6886 32.4774L92.8179 32.2162C93.1662 31.1713 93.0791 30.1264 92.5567 29.0816C91.5118 26.9919 89.1609 26.1212 87.0712 27.166C84.9815 28.2109 84.1979 30.5618 85.2427 32.6515C85.7651 33.6093 86.4617 34.3929 87.5936 34.7412L87.3324 35.6119C86.1134 35.2636 85.0686 34.3059 84.4591 32.9998C83.2401 30.3877 84.1979 27.5143 86.7229 26.2082Z" fill="white"/>
<path d="M88.029 44.2321L90.6411 41.3588C90.5541 41.0975 90.467 40.8363 90.467 40.5751L89.9446 38.0501L86.8971 38.7466L86.6359 37.7018L96.1266 35.6121L96.9103 39.182C97.4327 41.62 96.562 43.3614 94.4723 43.7968C92.9921 44.145 91.7731 43.5355 90.9894 42.2295L88.2031 45.277L88.029 44.2321ZM94.2981 42.839C95.8654 42.4907 96.4749 41.2717 96.0396 39.4432L95.5171 36.9181L90.7282 37.963L91.2506 40.488C91.686 42.4036 92.8179 43.1873 94.2981 42.839Z" fill="white"/>
<path d="M93.3403 46.4089C96.2137 46.4959 98.2163 48.8469 98.0422 51.7202C97.868 54.6806 95.6913 56.7704 92.8179 56.5962C89.9446 56.5091 87.9419 54.1582 88.1161 51.2849C88.2902 48.4115 90.467 46.3218 93.3403 46.4089ZM92.905 55.6384C95.2559 55.7255 96.9973 54.0711 97.0844 51.7202C97.1715 49.3693 95.5171 47.5408 93.2533 47.4537C90.9894 47.3667 89.1609 49.021 89.0739 51.3719C88.9868 53.7229 90.6411 55.5514 92.905 55.6384Z" fill="white"/>
<path d="M96.8232 60.8626L96.562 61.8204L88.029 59.2953L86.4617 64.5196L85.591 64.2584L87.4195 57.9893L96.8232 60.8626Z" fill="white"/>
<path d="M93.6016 70.005L93.1662 70.8757L85.3298 66.7834L82.8048 71.6594L82.0211 71.224L85.0686 65.4773L93.6016 70.005Z" fill="white"/>
<path d="M85.9393 81.9338L83.066 84.72C80.8021 86.8968 77.9288 86.8968 75.9261 84.8071C73.9235 82.7174 74.0976 79.844 76.2744 77.6673L79.1478 74.881L85.9393 81.9338ZM77.058 78.2768C75.2295 80.1053 75.1425 82.4562 76.7098 84.1105C78.277 85.7649 80.715 85.852 82.5435 84.0235L84.6332 82.0208L79.1478 76.2741L77.058 78.2768Z" fill="white"/>
<path d="M74.1847 86.1133C75.4907 88.6384 74.62 91.5117 72.0079 92.9049C69.3958 94.298 66.5224 93.4273 65.1293 90.9022C63.8232 88.3772 64.781 85.5038 67.3061 84.1107C70.0053 82.7175 72.8786 83.5883 74.1847 86.1133ZM66.0871 90.3798C67.219 92.4695 69.4828 93.1661 71.5725 92.0342C73.6622 90.9022 74.3588 88.6384 73.314 86.5487C72.182 84.459 69.8311 83.7624 67.8285 84.8943C65.7388 86.0262 64.9551 88.3772 66.0871 90.3798Z" fill="white"/>
<path d="M50.1531 98.9999L51.8074 88.8125L52.8523 88.6384L57.0317 96.3877L58.5119 87.6806L59.5568 87.5065L64.4328 96.5619L63.3879 96.736L59.2085 88.8996L57.7283 97.6938L56.7705 97.8679L52.504 90.0315L51.1109 98.8257L50.1531 98.9999Z" fill="white"/>
<path d="M37.7889 97.3455L39.1821 87.6805L40.0528 87.7676L45.1029 96.4747L46.2348 88.6383L47.2797 88.8125L45.8866 98.4774L45.0159 98.3903L39.9657 89.6832L38.8338 97.5196L37.7889 97.3455Z" fill="white"/>
<path d="M72.7915 13.5831C74.0899 13.5831 75.1425 12.5305 75.1425 11.2321C75.1425 9.93377 74.0899 8.88123 72.7915 8.88123C71.4932 8.88123 70.4406 9.93377 70.4406 11.2321C70.4406 12.5305 71.4932 13.5831 72.7915 13.5831Z" fill="white"/>
<path d="M49.021 57.6412C43.9709 57.6412 39.8785 53.5488 39.8785 48.4987C39.8785 43.4485 43.9709 39.3562 49.021 39.3562C54.0712 39.3562 58.1635 43.4485 58.1635 48.4987C58.1635 53.5488 54.0712 57.6412 49.021 57.6412ZM49.021 40.1398C44.4062 40.1398 40.7493 43.8839 40.7493 48.4116C40.7493 52.9393 44.4933 56.6834 49.021 56.6834C53.6358 56.6834 57.2928 52.9393 57.2928 48.4116C57.2928 43.8839 53.6358 40.1398 49.021 40.1398Z" fill="white"/>
<path d="M25.8601 91.0764C27.1585 91.0764 28.211 90.0238 28.211 88.7254C28.211 87.4271 27.1585 86.3745 25.8601 86.3745C24.5617 86.3745 23.5092 87.4271 23.5092 88.7254C23.5092 90.0238 24.5617 91.0764 25.8601 91.0764Z" fill="white"/>
</g>
<defs>
<clipPath id="clip0">
<rect width="98.0422" height="99" fill="white"/>
</clipPath>
</defs>
</svg>
