<svg width="99" height="99" viewBox="0 0 99 99" fill="none" xmlns="http://www.w3.org/2000/svg">
<g clip-path="url(#clip0)">
<path d="M19.8522 77.7546L18.9815 77.9287C19.0686 76.9709 18.7203 75.6648 17.8496 74.7071C16.7177 73.3139 15.5857 73.1398 14.8892 73.7493C12.7994 75.4036 17.8496 79.0606 15.0633 81.3245C13.9314 82.1952 12.277 82.1081 10.7097 80.1925C10.0132 79.3218 9.57781 78.277 9.49074 77.3192L10.3615 77.058C10.4485 78.0158 10.8839 78.9736 11.4063 79.6701C12.5382 81.0633 13.6702 81.1503 14.3667 80.5408C16.4564 78.8865 11.4063 75.2295 14.1926 72.9656C15.3245 72.0949 16.9789 72.182 18.5461 74.0976C19.5039 75.2295 20.0264 76.7097 19.8522 77.7546Z" fill="black"/>
<path d="M11.3192 72.7916C8.70704 74.0106 5.92076 73.0528 4.6147 70.3536C4.0052 69.0476 3.83105 67.7415 4.35348 66.5225L5.22419 66.7837C4.87591 67.8286 4.96298 68.8734 5.48541 69.9183C6.53026 72.008 8.88119 72.8787 10.9709 71.8338C13.0606 70.789 13.8442 68.4381 12.7994 66.3484C12.277 65.3906 11.5804 64.6069 10.4485 64.2587L10.7097 63.3879C11.9287 63.7362 12.9735 64.694 13.583 66.0001C14.802 68.6122 13.8442 71.5726 11.3192 72.7916Z" fill="black"/>
<path d="M10.0131 54.7678L7.40095 57.6411C7.48802 57.9023 7.57509 58.1635 7.57509 58.4247L8.18459 60.9498L11.2321 60.2532L11.4933 61.2981L1.91546 63.3878L1.13182 59.8179C0.609393 57.3799 1.48011 55.6385 3.56981 55.2031C5.05003 54.8548 6.26902 55.4643 7.05267 56.7704L9.83895 53.7229L10.0131 54.7678ZM3.74396 56.1609C2.17668 56.5092 1.56718 57.7282 2.00253 59.5567L2.52496 62.0817L7.31388 61.0369L6.79145 58.5118C6.3561 56.6833 5.22417 55.8126 3.74396 56.1609Z" fill="black"/>
<path d="M4.70179 52.591C1.82844 52.5039 -0.174198 50.153 -5.59203e-05 47.2797C0.174087 44.3192 2.35087 42.2295 5.22422 42.4037C8.09757 42.5778 10.1002 44.8417 9.92607 47.715C9.75192 50.6754 7.57514 52.7652 4.70179 52.591ZM5.13715 43.4485C2.78622 43.3615 1.0448 45.0158 0.957728 47.3667C0.870656 49.7177 2.52501 51.5462 4.78886 51.6332C7.13979 51.7203 8.88121 50.0659 8.96828 47.715C9.14242 45.3641 7.48807 43.5356 5.13715 43.4485Z" fill="black"/>
<path d="M1.30598 38.2241L1.5672 37.2663L10.1002 39.7914L11.6675 34.5671L12.5382 34.8284L10.6226 40.9233L1.30598 38.2241Z" fill="black"/>
<path d="M4.44054 29.0818L4.87589 28.2111L12.7123 32.3035L15.2374 27.4275L16.021 27.8628L13.0606 33.6095L4.44054 29.0818Z" fill="black"/>
<path d="M12.1028 17.0659L14.9762 14.2796C17.24 12.1028 20.1134 12.1028 22.116 14.1926C24.1186 16.2823 23.9445 19.1556 21.7677 21.3324L18.8944 24.1187L12.1028 17.0659ZM21.0712 20.7229C22.8996 18.8944 22.9867 16.5435 21.4194 14.8891C19.8522 13.2348 17.4142 13.1477 15.5857 14.9762L13.496 16.9788L18.9814 22.7255L21.0712 20.7229Z" fill="black"/>
<path d="M23.8574 12.8866C22.5514 10.3615 23.4221 7.48819 26.0342 6.09505C28.6464 4.70191 31.5197 5.57263 32.9128 8.09769C34.2189 10.6228 33.2611 13.4961 30.7361 14.8892C28.1239 16.2824 25.1635 15.4117 23.8574 12.8866ZM32.0421 8.62012C30.9102 6.53041 28.6464 5.83384 26.5566 6.96576C24.4669 8.09769 23.7704 10.3615 24.8152 12.4513C25.9471 14.541 28.2981 15.2375 30.3007 14.1056C32.3904 12.9737 33.087 10.7098 32.0421 8.62012Z" fill="black"/>
<path d="M47.9762 0L46.3218 10.1873L45.277 10.3615L41.0976 2.61214L39.6174 11.3193L38.5725 11.4934L33.6965 2.43799L34.7414 2.26385L38.9208 10.1003L40.401 1.30607L41.3588 1.13193L45.6253 8.96834L47.0184 0.174142L47.9762 0Z" fill="black"/>
<path d="M60.2533 1.6543L58.8601 11.3192L57.9894 11.2321L52.9393 2.52501L51.8074 10.3614L50.7625 10.1873L52.2427 0.435303L53.1134 0.522374L58.1636 9.2295L59.2955 1.39309L60.2533 1.6543Z" fill="black"/>
<path d="M78.1899 21.3324L79.0607 21.1583C78.9736 22.1161 79.3219 23.4221 80.1926 24.3799C81.3245 25.7731 82.4564 25.9472 83.153 25.3377C85.2427 23.6834 80.1926 20.0264 82.9789 17.7625C84.1108 16.8918 85.7651 16.9789 87.3324 18.8944C88.029 19.7652 88.4643 20.81 88.5514 21.7678L87.6807 22.029C87.5936 21.0712 87.1583 20.1134 86.6358 19.4169C85.5039 18.0237 84.372 17.9367 83.6754 18.5462C81.5857 20.2005 86.6358 23.8575 83.8496 26.1214C82.7176 26.9921 81.0633 26.905 79.496 24.9894C78.6253 23.7704 78.1029 22.3773 78.1899 21.3324Z" fill="black"/>
<path d="M86.7229 26.2082C89.248 24.9892 92.1213 25.947 93.4274 28.6462C94.0369 29.9523 94.211 31.2584 93.6886 32.4774L92.8179 32.2162C93.1662 31.1713 93.0791 30.1264 92.5567 29.0816C91.5118 26.9919 89.1609 26.1212 87.0712 27.166C84.9815 28.2109 84.1978 30.5618 85.2427 32.6515C85.7651 33.6093 86.4617 34.3929 87.5936 34.7412L87.3324 35.6119C86.1134 35.2636 85.0685 34.3059 84.459 32.9998C83.24 30.3877 84.1978 27.5143 86.7229 26.2082Z" fill="black"/>
<path d="M88.029 44.2321L90.6411 41.3588C90.554 41.0975 90.467 40.8363 90.467 40.5751L89.9445 38.0501L86.8971 38.7466L86.6358 37.7018L96.1266 35.6121L96.9102 39.182C97.4327 41.62 96.562 43.3614 94.4722 43.7968C92.992 44.145 91.773 43.5355 90.9894 42.2295L88.2031 45.277L88.029 44.2321ZM94.2981 42.839C95.8654 42.4907 96.4749 41.2717 96.0395 39.4432L95.5171 36.9181L90.7282 37.963L91.2506 40.488C91.686 42.4036 92.8179 43.1873 94.2981 42.839Z" fill="black"/>
<path d="M93.3403 46.4089C96.2137 46.4959 98.2163 48.8469 98.0422 51.7202C97.868 54.6806 95.6913 56.7704 92.8179 56.5962C89.9446 56.5091 87.9419 54.1582 88.1161 51.2849C88.2902 48.4115 90.467 46.3218 93.3403 46.4089ZM92.905 55.6384C95.2559 55.7255 96.9973 54.0711 97.0844 51.7202C97.1715 49.3693 95.5171 47.5408 93.2533 47.4537C90.9894 47.3667 89.1609 49.021 89.0738 51.3719C88.9868 53.7229 90.6411 55.5514 92.905 55.6384Z" fill="black"/>
<path d="M96.8232 60.8626L96.562 61.8204L88.029 59.2953L86.4617 64.5196L85.591 64.2584L87.4195 57.9893L96.8232 60.8626Z" fill="black"/>
<path d="M93.6016 70.005L93.1662 70.8757L85.3298 66.7834L82.8048 71.6594L82.0211 71.224L85.0686 65.4773L93.6016 70.005Z" fill="black"/>
<path d="M85.9393 81.9339L83.066 84.7202C80.8021 86.8969 77.9288 86.8969 75.9261 84.8072C73.9235 82.7175 74.0976 79.8442 76.2744 77.6674L79.1478 74.8811L85.9393 81.9339ZM77.058 78.2769C75.2295 80.1054 75.1425 82.4563 76.7098 84.1107C78.277 85.765 80.715 85.8521 82.5435 84.0236L84.6332 82.0209L79.1478 76.2742L77.058 78.2769Z" fill="black"/>
<path d="M74.1846 86.1133C75.4907 88.6384 74.62 91.5117 72.0079 92.9049C69.3957 94.298 66.5224 93.4273 65.1292 90.9022C63.8232 88.3772 64.781 85.5038 67.306 84.1107C70.0052 82.7175 72.8786 83.5883 74.1846 86.1133ZM66.087 90.3798C67.219 92.4695 69.4828 93.1661 71.5725 92.0342C73.6622 90.9022 74.3588 88.6384 73.3139 86.5487C72.182 84.459 69.8311 83.7624 67.8284 84.8943C65.7387 86.0262 64.9551 88.3772 66.087 90.3798Z" fill="black"/>
<path d="M50.1531 98.9997L51.8074 88.8124L52.8523 88.6383L57.0317 96.3876L58.5119 87.6805L59.5568 87.5063L64.4328 96.5618L63.3879 96.7359L59.2085 88.8995L57.7283 97.6937L56.7705 97.8678L52.504 90.0314L51.1109 98.8256L50.1531 98.9997Z" fill="black"/>
<path d="M37.7889 97.3453L39.182 87.6804L40.0528 87.7675L45.1029 96.4746L46.2348 88.6382L47.2797 88.8123L45.8865 98.4773L45.0158 98.3902L39.9657 89.6831L38.8338 97.5195L37.7889 97.3453Z" fill="black"/>
<path d="M72.7915 13.5832C74.0899 13.5832 75.1424 12.5307 75.1424 11.2323C75.1424 9.93389 74.0899 8.88135 72.7915 8.88135C71.4931 8.88135 70.4406 9.93389 70.4406 11.2323C70.4406 12.5307 71.4931 13.5832 72.7915 13.5832Z" fill="black"/>
<path d="M49.0211 57.6412C43.9709 57.6412 39.8786 53.5488 39.8786 48.4987C39.8786 43.4485 43.9709 39.3562 49.0211 39.3562C54.0712 39.3562 58.1635 43.4485 58.1635 48.4987C58.1635 53.5488 54.0712 57.6412 49.0211 57.6412ZM49.0211 40.1398C44.4063 40.1398 40.7493 43.8839 40.7493 48.4116C40.7493 52.9393 44.4933 56.6834 49.0211 56.6834C53.6358 56.6834 57.2928 52.9393 57.2928 48.4116C57.2928 43.8839 53.6358 40.1398 49.0211 40.1398Z" fill="black"/>
<path d="M25.8601 91.0764C27.1585 91.0764 28.211 90.0238 28.211 88.7254C28.211 87.4271 27.1585 86.3745 25.8601 86.3745C24.5617 86.3745 23.5092 87.4271 23.5092 88.7254C23.5092 90.0238 24.5617 91.0764 25.8601 91.0764Z" fill="black"/>
</g>
<defs>
<clipPath id="clip0">
<rect width="98.0422" height="99" fill="white"/>
</clipPath>
</defs>
</svg>
