<svg viewBox="0 0 129 130" fill="none" xmlns="http://www.w3.org/2000/svg">
<path d="M26.6804 47.9747L26.1897 47.2238C27.1204 46.9454 28.214 46.1278 28.7846 44.9514C29.6651 43.3664 29.4028 42.2397 28.5695 41.8158C26.2328 40.4786 24.703 46.5882 21.533 44.8271C20.2911 44.0932 19.7508 42.5095 20.9574 40.3199C21.5119 39.3395 22.3278 38.5385 23.193 38.0968L23.7652 38.8149C22.9 39.2567 22.1658 40.0249 21.7091 40.7766C20.8286 42.3616 21.1725 43.4555 22.0058 43.8794C24.3425 45.2166 25.8723 39.1071 29.0423 40.8681C30.2842 41.602 30.8245 43.1857 29.6179 45.3753C28.884 46.6172 27.6927 47.6635 26.6804 47.9747Z" fill="black"/>
<path d="M30.6969 27.9807L37.9215 34.6542L37.1872 35.4225L33.8527 32.306L29.692 36.8173L33.0265 39.9338L32.2922 40.702L25.0676 34.0285L25.8019 33.2603L28.9892 36.2462L33.1499 31.735L29.9626 28.749L30.6969 27.9807Z" fill="black"/>
<path d="M36.5122 29.2494C35.0565 26.8008 35.7725 23.8604 38.3516 22.2576C40.8817 20.7692 43.871 21.3709 45.3595 23.901C46.8152 26.3496 46.0175 29.3227 43.5201 30.8928C40.9899 32.3812 38.0822 31.7468 36.5122 29.2494ZM44.527 24.4244C43.3493 22.4329 40.9153 21.7981 38.8749 23.0901C36.8018 24.3005 36.2486 26.7018 37.4263 28.6933C38.6039 30.6847 41.038 31.3196 43.0783 30.0275C45.1514 28.8172 45.7046 26.4159 44.527 24.4244Z" fill="black"/>
<path d="M60.083 14.7749L59.0305 25.1467L57.9854 25.3763L53.2752 17.884L52.352 26.6878L51.307 26.9173L45.877 18.1028L46.9221 17.8732L51.5834 25.4799L52.5555 16.5617L53.5189 16.3649L58.2945 24.0204L59.1523 15.0534L60.083 14.7749Z" fill="black"/>
<path d="M70.2998 25.3656L68.288 22.0029C68.0104 22.0195 67.8144 22.0033 67.504 21.9383L64.9072 21.8426L64.6486 24.9785L63.587 24.9305L64.3623 15.0489L68.0535 15.2743C70.6015 15.4844 71.9909 16.8224 71.8131 18.9784C71.6838 20.5464 70.7701 21.5761 69.3658 21.855L71.5574 25.4298L70.2998 25.3656ZM70.7515 18.9303C70.8808 17.3623 69.9327 16.4159 67.9727 16.2543L65.3103 15.9953L64.9063 20.8953L67.5359 21.0727C69.5287 21.3159 70.6222 20.4983 70.7515 18.9303Z" fill="black"/>
<path d="M73.9053 20.8873C74.8011 18.159 77.5928 16.85 80.4681 17.8764C83.2291 18.8539 84.6197 21.6128 83.6911 24.2594C82.7625 26.906 79.9709 28.2151 77.1283 27.2703C74.2856 26.3255 73.0094 23.6155 73.9053 20.8873ZM82.7273 23.9826C83.5419 21.7608 82.3804 19.5733 80.1586 18.7586C77.9367 17.944 75.7165 19.0238 74.9018 21.2457C74.0872 23.4676 75.2487 25.6551 77.4705 26.4697C79.6597 27.2027 81.9126 26.2045 82.7273 23.9826Z" fill="black"/>
<path d="M85.6192 25.2868C87.234 22.9335 90.2713 22.4736 92.7389 24.1373C95.1249 25.8337 95.7481 28.8056 94.0517 31.1916C92.3552 33.5775 89.3995 34.0048 86.9319 32.341C84.546 30.6446 84.0044 27.64 85.6192 25.2868ZM93.1856 30.686C94.4905 28.7414 94.0964 26.3409 92.119 24.9544C90.1416 23.5679 87.7412 23.962 86.3547 25.9394C85.0498 27.884 85.4439 30.2845 87.4213 31.671C89.4476 32.9431 91.8808 32.6307 93.1856 30.686Z" fill="black"/>
<path d="M106.503 38.6118L98.6691 44.5962L98.0641 43.7965L104.299 39.0221L96.7215 39.9759L96.3618 39.5516L99.1974 32.4447L92.9627 37.2191L92.3578 36.4194L100.192 30.435L100.764 31.1531L97.5536 38.979L105.931 37.8937L106.503 38.6118Z" fill="black"/>
<path d="M101.51 81.4551L102.001 82.206C101.07 82.4844 99.9769 83.302 99.4063 84.4784C98.5257 86.0634 98.788 87.1901 99.6213 87.614C101.958 88.9511 103.488 82.8416 106.658 84.6027C107.9 85.3366 108.44 86.9203 107.233 89.1099C106.679 90.0903 105.863 90.8912 104.998 91.333L104.426 90.6149C105.291 90.1731 106.025 89.4049 106.482 88.6532C107.362 87.0682 107.018 85.9743 106.185 85.5504C103.848 84.2132 102.318 90.3227 99.1485 88.5616C97.9067 87.8278 97.3663 86.244 98.573 84.0545C99.3557 82.6983 100.465 81.6847 101.51 81.4551Z" fill="black"/>
<path d="M97.5756 101.416L90.351 94.7429L91.0853 93.9746L94.4197 97.0911L98.5804 92.5798L95.246 89.4633L95.9802 88.6951L103.205 95.3686L102.471 96.1368L99.2832 93.1508L95.1225 97.6621L98.3099 100.648L97.5756 101.416Z" fill="black"/>
<path d="M91.6459 100.099C93.1016 102.547 92.3855 105.488 89.8065 107.09C87.2763 108.579 84.287 107.977 82.7986 105.447C81.3429 102.999 82.1406 100.025 84.638 98.4553C87.1682 96.9669 90.1902 97.6502 91.6459 100.099ZM83.7127 104.891C84.8904 106.882 87.3244 107.517 89.3648 106.225C91.4379 105.015 91.9911 102.614 90.8134 100.622C89.6358 98.6306 87.2017 97.9958 85.1614 99.2878C83.0882 100.498 82.5351 102.9 83.7127 104.891Z" fill="black"/>
<path d="M68.1567 114.541L69.1276 104.201L70.1727 103.972L74.8829 111.464L75.8061 102.66L76.8511 102.431L82.2811 111.245L81.236 111.475L76.5747 103.868L75.6026 112.786L74.6392 112.983L69.8635 105.328L69.0058 114.295L68.1567 114.541Z" fill="black"/>
<path d="M57.9399 103.95L59.9517 107.313C60.2293 107.296 60.4253 107.312 60.7357 107.377L63.3653 107.555L63.6239 104.419L64.6855 104.467L63.9918 114.315L60.3006 114.09C57.7526 113.88 56.3632 112.542 56.541 110.386C56.6703 108.818 57.584 107.788 58.9883 107.509L56.7967 103.935L57.9399 103.95ZM57.4883 110.385C57.359 111.953 58.3071 112.9 60.267 113.061L62.8967 113.238L63.3007 108.338L60.671 108.161C58.7438 108.081 57.6503 108.899 57.4883 110.385Z" fill="black"/>
<path d="M54.3345 108.428C53.4386 111.156 50.6469 112.465 47.7716 111.439C45.0106 110.461 43.62 107.702 44.5486 105.056C45.4772 102.409 48.2689 101.1 51.1115 102.045C53.8724 103.022 55.2631 105.781 54.3345 108.428ZM45.5452 105.414C44.7305 107.636 45.892 109.824 48.1139 110.638C50.3358 111.453 52.556 110.373 53.3706 108.151C54.1853 105.929 53.0238 103.742 50.8019 102.927C48.5801 102.112 46.3598 103.192 45.5452 105.414Z" fill="black"/>
<path d="M42.6205 104.029C41.0057 106.382 37.9684 106.842 35.5008 105.178C33.1148 103.482 32.4916 100.51 34.188 98.1237C35.8845 95.7378 38.8402 95.3106 41.3078 96.9743C43.6938 98.6707 44.2353 101.675 42.6205 104.029ZM34.9724 98.662C33.6676 100.607 34.0616 103.007 36.039 104.394C38.0164 105.78 40.4169 105.386 41.8034 103.409C43.1082 101.464 42.7142 99.0635 40.7368 97.677C38.7921 96.3722 36.3917 96.7663 34.9724 98.662Z" fill="black"/>
<path d="M21.7692 90.7853L29.6034 84.801L30.2083 85.6007L23.9737 90.3751L31.5509 89.4212L31.8779 89.7639L29.0423 96.8708L35.277 92.0964L35.882 92.8962L28.0478 98.8805L27.5083 98.2441L30.7189 90.4182L22.3415 91.5035L21.7692 90.7853Z" fill="black"/>
<path d="M107.342 64.3341C107.831 65.5514 109.213 66.1424 110.43 65.6543C111.648 65.1661 112.239 63.7836 111.75 62.5664C111.262 61.3491 109.88 60.758 108.663 61.2462C107.445 61.7343 106.854 63.1168 107.342 64.3341Z" fill="black"/>
<path d="M56.5037 67.7593C54.605 63.0246 56.9032 57.6494 61.6378 55.7507C66.3724 53.852 71.7477 56.1502 73.6463 60.8848C75.545 65.6194 73.2469 70.9947 68.5123 72.8933C63.7776 74.792 58.4024 72.4939 56.5037 67.7593ZM72.9117 61.1794C71.1767 56.8529 66.2916 54.832 62.0468 56.5343C57.8019 58.2365 55.6994 63.1543 57.4017 67.3992C59.1366 71.7256 64.0217 73.7465 68.2665 72.0443C72.5114 70.342 74.6139 65.4243 72.9117 61.1794Z" fill="black"/>
<path d="M17.9101 66.7479C18.3983 67.9652 19.7808 68.5562 20.9981 68.0681C22.2153 67.5799 22.8064 66.1974 22.3182 64.9802C21.8301 63.7629 20.4476 63.1718 19.2303 63.66C18.0131 64.1481 17.422 65.5306 17.9101 66.7479Z" fill="black"/>
</svg>
