<svg width="129" height="130" viewBox="0 0 129 130" fill="none" xmlns="http://www.w3.org/2000/svg">
<g clip-path="url(#clip0)">
<path d="M26.6802 47.9747L26.1896 47.2238C27.1203 46.9454 28.2138 46.1278 28.7844 44.9514C29.665 43.3664 29.4027 42.2397 28.5694 41.8158C26.2327 40.4786 24.7028 46.5882 21.5329 44.8271C20.291 44.0932 19.7507 42.5095 20.9573 40.3199C21.5117 39.3395 22.3277 38.5385 23.1929 38.0968L23.7651 38.8149C22.8999 39.2567 22.1656 40.0249 21.709 40.7766C20.8284 42.3616 21.1724 43.4555 22.0057 43.8794C24.3423 45.2166 25.8722 39.1071 29.0422 40.8681C30.284 41.602 30.8244 43.1857 29.6177 45.3753C28.8839 46.6172 27.6926 47.6635 26.6802 47.9747Z" fill="black"/>
<path d="M30.6967 27.9807L37.9213 34.6542L37.1871 35.4225L33.8526 32.306L29.6919 36.8173L33.0263 39.9338L32.2921 40.702L25.0675 34.0285L25.8017 33.2603L28.9891 36.2462L33.1498 31.735L29.9625 28.749L30.6967 27.9807Z" fill="black"/>
<path d="M36.512 29.2494C35.0564 26.8008 35.7724 23.8604 38.3514 22.2576C40.8816 20.7692 43.8709 21.3709 45.3593 23.901C46.815 26.3496 46.0174 29.3227 43.5199 30.8928C40.9898 32.3812 38.0821 31.7468 36.512 29.2494ZM44.5269 24.4244C43.3492 22.4329 40.9152 21.7981 38.8748 23.0901C36.8017 24.3005 36.2485 26.7018 37.4262 28.6933C38.6038 30.6847 41.0378 31.3196 43.0782 30.0275C45.1513 28.8172 45.7045 26.4159 44.5269 24.4244Z" fill="black"/>
<path d="M60.0829 14.7749L59.0304 25.1467L57.9853 25.3763L53.2751 17.884L52.3519 26.6878L51.3068 26.9173L45.8769 18.1028L46.9219 17.8732L51.5832 25.4799L52.5553 16.5617L53.5188 16.3649L58.2944 24.0204L59.1522 15.0534L60.0829 14.7749Z" fill="black"/>
<path d="M70.2997 25.3656L68.2879 22.0029C68.0103 22.0195 67.8143 22.0033 67.5039 21.9383L64.907 21.8426L64.6484 24.9785L63.5868 24.9305L64.3621 15.0489L68.0533 15.2743C70.6013 15.4844 71.9907 16.8224 71.813 18.9784C71.6837 20.5464 70.77 21.5761 69.3657 21.855L71.5573 25.4298L70.2997 25.3656ZM70.7513 18.9303C70.8806 17.3623 69.9325 16.4159 67.9725 16.2543L65.3102 15.9953L64.9062 20.8953L67.5358 21.0727C69.5285 21.3159 70.622 20.4983 70.7513 18.9303Z" fill="black"/>
<path d="M73.9051 20.8873C74.801 18.159 77.5926 16.85 80.468 17.8764C83.2289 18.8539 84.6196 21.6128 83.691 24.2594C82.7624 26.906 79.9707 28.2151 77.1281 27.2703C74.2855 26.3255 73.0093 23.6155 73.9051 20.8873ZM82.7271 23.9826C83.5418 21.7608 82.3803 19.5733 80.1584 18.7586C77.9366 17.944 75.7164 19.0238 74.9017 21.2457C74.087 23.4676 75.2485 25.6551 77.4704 26.4697C79.6595 27.2027 81.9125 26.2045 82.7271 23.9826Z" fill="black"/>
<path d="M85.6191 25.2868C87.2339 22.9335 90.2712 22.4736 92.7388 24.1373C95.1248 25.8337 95.748 28.8056 94.0516 31.1916C92.3551 33.5775 89.3994 34.0048 86.9318 32.341C84.5458 30.6446 84.0042 27.64 85.6191 25.2868ZM93.1855 30.686C94.4904 28.7414 94.0963 26.3409 92.1189 24.9544C90.1415 23.5679 87.7411 23.962 86.3546 25.9394C85.0497 27.884 85.4438 30.2845 87.4212 31.671C89.4475 32.9431 91.8807 32.6307 93.1855 30.686Z" fill="black"/>
<path d="M106.503 38.6118L98.669 44.5962L98.064 43.7965L104.299 39.0221L96.7214 39.9759L96.3617 39.5516L99.1973 32.4447L92.9626 37.2191L92.3576 36.4194L100.192 30.435L100.764 31.1531L97.5535 38.979L105.931 37.8937L106.503 38.6118Z" fill="black"/>
<path d="M101.51 81.4551L102.001 82.206C101.07 82.4844 99.9767 83.302 99.4062 84.4784C98.5256 86.0634 98.7879 87.1901 99.6212 87.614C101.958 88.9511 103.488 82.8416 106.658 84.6027C107.9 85.3366 108.44 86.9203 107.233 89.1099C106.679 90.0903 105.863 90.8912 104.998 91.333L104.425 90.6149C105.291 90.1731 106.025 89.4049 106.482 88.6532C107.362 87.0682 107.018 85.9743 106.185 85.5504C103.848 84.2132 102.318 90.3227 99.1484 88.5616C97.9065 87.8278 97.3662 86.244 98.5728 84.0545C99.3556 82.6983 100.465 81.6847 101.51 81.4551Z" fill="black"/>
<path d="M97.5755 101.416L90.3509 94.7429L91.0851 93.9746L94.4196 97.0911L98.5803 92.5798L95.2459 89.4633L95.9801 88.6951L103.205 95.3686L102.47 96.1368L99.2831 93.1508L95.1224 97.6621L98.3097 100.648L97.5755 101.416Z" fill="black"/>
<path d="M91.6458 100.099C93.1015 102.547 92.3854 105.488 89.8064 107.09C87.2762 108.579 84.2869 107.977 82.7985 105.447C81.3428 102.999 82.1404 100.025 84.6379 98.4553C87.168 96.9669 90.1901 97.6502 91.6458 100.099ZM83.7126 104.891C84.8902 106.882 87.3243 107.517 89.3646 106.225C91.4378 105.015 91.9909 102.614 90.8133 100.622C89.6356 98.6306 87.2016 97.9958 85.1612 99.2878C83.0881 100.498 82.5349 102.9 83.7126 104.891Z" fill="black"/>
<path d="M68.1566 114.541L69.1275 104.201L70.1725 103.972L74.8827 111.464L75.8059 102.66L76.851 102.431L82.281 111.245L81.2359 111.475L76.5746 103.868L75.6025 112.786L74.6391 112.983L69.8634 105.328L69.0057 114.295L68.1566 114.541Z" fill="black"/>
<path d="M57.9398 103.95L59.9516 107.313C60.2292 107.296 60.4252 107.312 60.7356 107.377L63.3652 107.555L63.6238 104.419L64.6854 104.467L63.9917 114.315L60.3005 114.09C57.7525 113.88 56.3631 112.542 56.5409 110.386C56.6702 108.818 57.5838 107.788 58.9882 107.509L56.7965 103.935L57.9398 103.95ZM57.4881 110.385C57.3588 111.953 58.3069 112.9 60.2669 113.061L62.8965 113.238L63.3005 108.338L60.6709 108.161C58.7437 108.081 57.6501 108.899 57.4881 110.385Z" fill="black"/>
<path d="M54.3343 108.428C53.4384 111.156 50.6468 112.465 47.7715 111.439C45.0105 110.461 43.6198 107.702 44.5485 105.056C45.4771 102.409 48.2687 101.1 51.1113 102.045C53.8723 103.022 55.2629 105.781 54.3343 108.428ZM45.545 105.414C44.7304 107.636 45.8919 109.824 48.1137 110.638C50.3356 111.453 52.5558 110.373 53.3705 108.151C54.1851 105.929 53.0236 103.742 50.8018 102.927C48.5799 102.112 46.3597 103.192 45.545 105.414Z" fill="black"/>
<path d="M42.6204 104.029C41.0056 106.382 37.9682 106.842 35.5006 105.178C33.1146 103.482 32.4914 100.51 34.1879 98.1237C35.8843 95.7378 38.84 95.3106 41.3076 96.9743C43.6936 98.6707 44.2352 101.675 42.6204 104.029ZM34.9723 98.662C33.6674 100.607 34.0615 103.007 36.0389 104.394C38.0163 105.78 40.4167 105.386 41.8032 103.409C43.1081 101.464 42.714 99.0635 40.7366 97.677C38.792 96.3722 36.3915 96.7663 34.9723 98.662Z" fill="black"/>
<path d="M21.7691 90.7853L29.6032 84.801L30.2082 85.6007L23.9736 90.3751L31.5508 89.4212L31.8777 89.7639L29.0422 96.8708L35.2768 92.0964L35.8818 92.8962L28.0477 98.8805L27.5082 98.2441L30.7187 90.4182L22.3413 91.5035L21.7691 90.7853Z" fill="black"/>
<path d="M107.342 64.3341C107.83 65.5514 109.213 66.1424 110.43 65.6543C111.647 65.1661 112.238 63.7836 111.75 62.5664C111.262 61.3491 109.88 60.758 108.662 61.2462C107.445 61.7343 106.854 63.1168 107.342 64.3341Z" fill="black"/>
<path d="M17.91 66.7479C18.3982 67.9652 19.7807 68.5562 20.9979 68.0681C22.2152 67.5799 22.8063 66.1974 22.3181 64.9802C21.83 63.7629 20.4475 63.1718 19.2302 63.66C18.0129 64.1481 17.4219 65.5306 17.91 66.7479Z" fill="black"/>
<path d="M89.7072 65.7071C90.0978 65.3166 90.0978 64.6834 89.7072 64.2929L83.3433 57.9289C82.9527 57.5384 82.3196 57.5384 81.9291 57.9289C81.5385 58.3195 81.5385 58.9526 81.9291 59.3431L87.5859 65L81.9291 70.6569C81.5385 71.0474 81.5385 71.6805 81.9291 72.0711C82.3196 72.4616 82.9527 72.4616 83.3433 72.0711L89.7072 65.7071ZM43.0001 66H89.0001V64H43.0001V66Z" fill="black"/>
</g>
<defs>
<clipPath id="clip0">
<rect width="100" height="98.0651" fill="white" transform="translate(91.0192) rotate(68.1484)"/>
</clipPath>
</defs>
</svg>
